<svg width="318" height="107" viewBox="0 0 318 107" fill="none" xmlns="http://www.w3.org/2000/svg">
<path d="M1.27695 106.289L1.5539 106.289L1.83085 106.289L2.1078 106.289L2.38475 106.289L2.6617 106.289L2.93865 106.289L3.2156 106.289L3.49255 106.289L3.7695 106.289L4.04645 106.289L4.3234 106.289L4.60035 106.288L4.8773 106.288L5.15425 106.287L5.4312 106.285L5.70815 106.285L5.9851 106.284L6.26205 106.284L6.539 106.284L6.81595 106.283L7.0929 106.283L7.36985 106.283L7.6468 106.283L7.92375 106.282L8.2007 106.282L8.47765 106.281L8.7546 106.281L9.03155 106.28L9.3085 106.28L9.58545 106.278L9.8624 106.277L10.1394 106.276L10.4163 106.274L10.6933 106.273L10.9702 106.271L11.2472 106.27L11.5241 106.269L11.8011 106.266L12.078 106.261L12.355 106.258L12.6319 106.258L12.9089 106.256L13.1858 106.255L13.4628 106.254L13.7397 106.251L14.0167 106.233L14.2936 106.232L14.5706 106.23L14.8475 106.229L15.1245 106.227L15.4014 106.226L15.6784 106.225L15.9553 106.224L16.2323 106.223L16.5092 106.223L16.7862 106.222L17.0631 106.221L17.3401 106.221L17.617 106.22L17.894 106.219L18.1709 106.218L18.4479 106.215L18.7248 106.215L19.0018 106.214L19.2787 106.213L19.5557 106.213L19.8326 106.212L20.1096 106.212L20.3865 106.211L20.6635 106.211L20.9404 106.211L21.2174 106.21L21.4943 106.21L21.7713 106.21L22.0482 106.209L22.3252 106.209L22.6021 106.208L22.8791 106.208L23.156 106.208L23.433 106.207L23.7099 106.206L23.9869 106.206L24.2638 106.205L24.5408 106.205L24.8177 106.205L25.0947 106.204L25.3716 106.204L25.6486 106.2L25.9255 106.197L26.2025 106.194L26.4794 106.193L26.7564 106.192L27.0333 106.191L27.3103 106.19L27.5872 106.189L27.8642 106.186L28.1411 106.185L28.4181 106.184L28.695 106.184L28.972 106.183L29.2489 106.182L29.5259 106.181L29.8028 106.181L30.0798 106.18L30.3567 106.18L30.6337 106.179L30.9106 106.179L31.1876 106.178L31.4645 106.178L31.7415 106.174L32.0184 106.173L32.2954 106.172L32.5723 106.167L32.8493 106.163L33.1262 106.15L33.4032 106.145L33.6801 106.142L33.9571 106.139L34.234 106.135L34.511 106.132L34.7879 106.128L35.0649 106.125L35.3418 106.122L35.6188 106.117L35.8957 106.115L36.1727 106.112L36.4496 106.11L36.7266 106.108L37.0035 106.106L37.2805 106.105L37.5574 106.104L37.8344 106.101L38.1113 106.091L38.3883 106.084L38.6652 106.077L38.9422 106.075L39.2191 106.073L39.4961 106.071L39.773 106.07L40.05 106.069L40.3269 106.067L40.6039 106.065L40.8808 106.064L41.1578 106.063L41.4347 106.061L41.7117 106.058L41.9886 106.056L42.2656 106.054L42.5425 106.052L42.8195 106.043L43.0964 106.038L43.3734 106.034L43.6503 106.03L43.9273 106.027L44.2042 106.023L44.4812 106.021L44.7581 106.013L45.0351 106.007L45.312 106.002L45.589 105.998L45.8659 105.989L46.1429 105.979L46.4198 105.97L46.6968 105.962L46.9737 105.956L47.2507 105.949L47.5276 105.922L47.8046 105.744L48.0815 105.324L48.3585 104.79L48.6354 104.292L48.9124 103.469L49.1893 102.928L49.4663 102.391L49.7432 101.821L50.0202 101.204L50.2971 100.931L50.5741 100.441L50.851 99.9037L51.128 98.5955L51.4049 96.9101L51.6819 95.3105L51.9588 93.7928L52.2358 92.0569L52.5127 91.22L52.7897 91.1923L53.0666 91.1835L53.3436 91.1757L53.6205 91.002L53.8975 90.9372L54.1744 90.9262L54.4514 90.9157L54.7283 90.902L55.0053 90.8869L55.2822 90.8697L55.5592 90.7758L55.8361 90.532L56.1131 90.5112L56.39 90.4934L56.667 90.3942L56.9439 90.3697L57.2209 90.3436L57.4978 90.2578L57.7748 90.19L58.0517 90.1304L58.3287 90.065L58.6056 90.039L58.8826 90.0115L59.1595 89.9754L59.4365 89.946L59.7134 89.9147L59.9904 89.8822L60.2673 89.851L60.5443 89.813L60.8212 89.7762L61.0982 89.7394L61.3751 89.7027L61.6521 89.6646L61.929 89.6407L62.206 89.5937L62.4829 89.4853L62.7599 89.3356L63.0368 89.3093L63.3138 89.2791L63.5907 89.2489L63.8677 89.2199L64.1446 89.1864L64.4216 89.1359L64.6985 89.1047L64.9755 89.062L65.2524 89.0023L65.5294 88.9513L65.8063 88.8566L66.0833 88.7702L66.3602 88.7203L66.6372 88.6523L66.9141 88.6141L67.1911 88.5755L67.468 88.5199L67.745 88.4368L68.0219 88.3632L68.2989 88.2984L68.5758 88.2484L68.8528 88.1863L69.1297 88.1236L69.4067 88.0534L69.6836 87.9873L69.9606 87.9272L70.2375 87.8501L70.5145 87.7811L70.7914 87.708L71.0684 87.6042L71.3453 87.5476L71.6223 87.4636L71.8992 87.3197L72.1762 87.2726L72.4531 87.2251L72.7301 87.1784L73.007 87.141L73.284 87.04L73.5609 86.988L73.8379 86.8491L74.1148 86.7436L74.3918 86.6836L74.6687 86.6253L74.9457 86.5842L75.2226 86.4907L75.4996 86.4688L75.7765 86.4193L76.0535 86.3767L76.3304 86.3212L76.6074 86.303L76.8843 86.2702L77.1613 86.239L77.4382 86.2076L77.7152 86.1762L77.9921 86.1465L78.2691 86.1204L78.546 86.0963L78.823 86.0659L79.0999 86.0436L79.3769 86.007L79.6538 85.9565L79.9308 85.9203L80.2077 85.8874L80.4847 85.8423L80.7616 85.7907L81.0386 85.7377L81.3155 85.6784L81.5925 85.6041L81.8694 85.5013L82.1464 85.3797L82.4233 85.3537L82.7003 85.3321L82.9772 85.2207L83.2542 85.0418L83.5311 84.6973L83.8081 84.6288L84.085 84.5947L84.362 84.5778L84.6389 84.5621L84.9159 84.546L85.1928 84.5284L85.4698 84.5114L85.7467 84.4915L86.0237 84.4703L86.3006 84.4502L86.5776 84.4253L86.8545 84.4034L87.1315 84.3801L87.4084 84.3548L87.6854 84.3314L87.9623 84.31L88.2393 84.2901L88.5162 84.2687L88.7932 84.247L89.0701 84.2255L89.3471 84.2027L89.624 84.178L89.901 84.1526L90.1779 84.1268L90.4549 84.1021L90.7318 84.076L91.0088 84.0516L91.2857 84.028L91.5627 84.0025L91.8396 83.9722L92.1166 83.9335L92.3935 83.8932L92.6705 83.8501L92.9474 83.8202L93.2244 83.7908L93.5013 83.7614L93.7783 83.7285L94.0552 83.6981L94.3322 83.6734L94.6091 83.6473L94.8861 83.6179L95.163 83.5903L95.44 83.5628L95.7169 83.3591L95.9939 83.1112L96.2708 82.9165L96.5478 82.8879L96.8247 82.8535L97.1017 82.8045L97.3786 82.7741L97.6556 82.7439L97.9325 82.7154L98.2095 82.6825L98.4864 82.6487L98.7634 82.6172L99.0403 82.5839L99.3173 82.5511L99.5942 82.5114L99.8712 82.4728L100.148 82.4387L100.425 82.4001L100.702 82.3612L100.979 82.3205L101.256 82.2754L101.533 82.2288L101.81 82.1716L102.087 82.1294L102.364 82.0771L102.641 82.0291L102.918 81.9721L103.195 81.93L103.472 81.8876L103.748 81.8442L104.025 81.8043L104.302 81.7615L104.579 81.7167L104.856 81.6689L105.133 81.6215L105.41 81.582L105.687 81.5368L105.964 81.4869L106.241 81.4419L106.518 81.391L106.795 81.3376L107.072 81.2849L107.349 81.2414L107.626 81.2007L107.903 81.1578L108.18 81.1109L108.457 81.064L108.734 81.0176L109.011 80.9668L109.287 80.9085L109.564 80.8651L109.841 80.8163L110.118 80.7627L110.395 80.7202L110.672 80.6707L110.949 80.6267L111.226 80.5844L111.503 80.5465L111.78 80.5045L112.057 80.4624L112.334 80.4171L112.611 80.3634L112.888 80.3084L113.165 80.2611L113.442 80.2145L113.719 80.1664L113.996 80.116L114.273 80.0662L114.55 80.0065L114.826 79.9504L115.103 79.8951L115.38 79.8528L115.657 79.8027L115.934 79.7431L116.211 79.6682L116.488 79.5978L116.765 79.531L117.042 79.104L117.319 78.6035L117.596 78.0911L117.873 77.7631L118.15 77.6835L118.427 77.603L118.704 77.4763L118.981 77.3896L119.258 77.2984L119.535 77.2042L119.812 77.109L120.089 77.012L120.365 76.8096L120.642 76.6076L120.919 76.4958L121.196 76.3909L121.473 76.3208L121.75 76.2444L122.027 76.1709L122.304 76.0729L122.581 75.9958L122.858 75.9222L123.135 75.8515L123.412 75.7754L123.689 75.6905L123.966 75.6175L124.243 75.5489L124.52 75.487L124.797 75.4306L125.074 75.3701L125.351 75.3073L125.628 75.2428L125.904 75.18L126.181 75.1164L126.458 75.0511L126.735 74.9985L127.012 74.9504L127.289 74.8969L127.566 74.8362L127.843 74.7573L128.12 74.6905L128.397 74.6266L128.674 74.5724L128.951 74.5223L129.228 74.467L129.505 74.4115L129.782 74.3545L130.059 74.2985L130.336 74.2335L130.613 74.1406L130.89 74.0951L131.167 74.0516L131.443 74.0016L131.72 73.9382L131.997 73.8757L132.274 73.818L132.551 73.7561L132.828 73.7052L133.105 73.6573L133.382 73.5991L133.659 73.5442L133.936 73.485L134.213 73.4283L134.49 73.3761L134.767 73.3306L135.044 73.2782L135.321 73.2225L135.598 73.1651L135.875 73.1016L136.152 73.0387L136.429 72.9901L136.706 72.944L136.982 72.8974L137.259 72.846L137.536 72.7862L137.813 72.7241L138.09 72.6691L138.367 72.614L138.644 72.5587L138.921 72.5137L139.198 72.4619L139.475 72.4098L139.752 72.3544L140.029 72.2987L140.306 72.2439L140.583 72.1946L140.86 72.1391L141.137 72.0079L141.414 71.9501L141.691 71.8866L141.968 71.8212L142.245 71.7634L142.521 71.6982L142.798 71.6454L143.075 71.5809L143.352 71.5215L143.629 71.4552L143.906 71.4062L144.183 71.3595L144.46 71.3153L144.737 71.2647L145.014 71.2169L145.291 71.1756L145.568 71.1286L145.845 71.0802L146.122 71.0366L146.399 70.9886L146.676 70.9437L146.953 70.8879L147.23 70.8242L147.507 70.7691L147.784 70.698L148.06 70.6415L148.337 70.5953L148.614 70.5399L148.891 70.4768L149.168 70.3962L149.445 70.3356L149.722 70.2722L149.999 70.2187L150.276 70.1645L150.553 70.113L150.83 70.0513L151.107 69.9611L151.384 69.9048L151.661 69.8503L151.938 69.7894L152.215 69.7431L152.492 69.6921L152.769 69.6401L153.046 69.5709L153.323 69.5088L153.599 69.4414L153.876 69.3782L154.153 69.3196L154.43 69.2626L154.707 69.1822L154.984 69.1116L155.261 69.033L155.538 68.9507L155.815 68.8778L156.092 68.8031L156.369 68.7297L156.646 68.634L156.923 68.5447L157.2 68.4583L157.477 68.3674L157.754 68.2928L158.031 68.2073L158.308 68.1179L158.585 68.0165L158.862 67.9149L159.138 67.8398L159.415 67.7518L159.692 67.6597L159.969 67.594L160.246 67.5236L160.523 67.4385L160.8 67.3495L161.077 67.2598L161.354 67.1779L161.631 67.0994L161.908 67.0141L162.185 66.9356L162.462 66.8398L162.739 66.7561L163.016 66.6736L163.293 66.6035L163.57 66.5321L163.847 66.47L164.124 66.407L164.401 66.3437L164.677 66.2658L164.954 66.2074L165.231 66.0991L165.508 66.0267L165.785 65.9712L166.062 65.9234L166.339 65.8541L166.616 65.793L166.893 65.7098L167.17 65.635L167.447 65.5503L167.724 65.4563L168.001 65.3982L168.278 65.3287L168.555 65.263L168.832 65.1986L169.109 65.132L169.386 65.0659L169.663 65.0079L169.94 64.9518L170.216 64.9014L170.493 64.836L170.77 64.7796L171.047 64.7213L171.324 64.6737L171.601 64.6195L171.878 64.5639L172.155 64.5095L172.432 64.4526L172.709 64.3625L172.986 64.2726L173.263 63.9769L173.54 63.6382L173.817 63.4455L174.094 63.3583L174.371 63.3029L174.648 63.2527L174.925 63.2039L175.202 63.1563L175.479 63.1171L175.755 63.0727L176.032 63.0178L176.309 62.9676L176.586 62.9157L176.863 62.8663L177.14 62.8208L177.417 62.7786L177.694 62.7319L177.971 62.6816L178.248 62.6299L178.525 62.5833L178.802 62.543L179.079 62.5069L179.356 62.4657L179.633 62.4234L179.91 62.3763L180.187 62.3219L180.464 62.267L180.741 62.2108L181.018 62.1578L181.294 62.1186L181.571 62.0783L181.848 62.0272L182.125 61.9755L182.402 61.8709L182.679 61.8164L182.956 61.7728L183.233 61.7004L183.51 61.656L183.787 61.5836L184.064 61.5138L184.341 61.4536L184.618 61.3969L184.895 61.3183L185.172 61.2566L185.449 61.1804L185.726 61.1194L186.003 61.0608L186.28 60.9906L186.557 60.9142L186.833 60.8485L187.11 60.7936L187.387 60.7371L187.664 60.6676L187.941 60.6045L188.218 60.5418L188.495 60.4798L188.772 60.4082L189.049 60.3488L189.326 60.2898L189.603 60.2301L189.88 60.162L190.157 60.0994L190.434 60.0422L190.711 59.9699L190.988 59.9191L191.265 59.8663L191.542 59.8077L191.819 59.755L192.096 59.6926L192.372 59.6347L192.649 59.5827L192.926 59.5353L193.203 59.4867L193.48 59.4354L193.757 59.3859L194.034 59.3418L194.311 59.2917L194.588 59.2415L194.865 59.1632L195.142 59.1023L195.419 59.0476L195.696 58.9973L195.973 58.9447L196.25 58.8964L196.527 58.8471L196.804 58.7931L197.081 58.741L197.358 58.6807L197.635 58.6267L197.911 58.5706L198.188 58.4601L198.465 58.3478L198.742 58.2657L199.019 58.1927L199.296 58.1204L199.573 58.0339L199.85 57.9291L200.127 57.8411L200.404 57.7512L200.681 57.6807L200.958 57.614L201.235 57.5471L201.512 57.4865L201.789 57.4319L202.066 57.4129L202.343 57.3514L202.62 57.2904L202.897 57.2317L203.174 57.1609L203.45 57.0871L203.727 57.008L204.004 56.9244L204.281 56.8286L204.558 56.7458L204.835 56.6765L205.112 56.6026L205.389 56.4932L205.666 56.3799L205.943 56.2731L206.22 56.1702L206.497 56.0993L206.774 56.0322L207.051 55.9624L207.328 55.8943L207.605 55.8202L207.882 55.7312L208.159 55.6474L208.436 55.5709L208.713 55.4798L208.989 55.3484L209.266 55.2702L209.543 55.1918L209.82 55.1166L210.097 55.047L210.374 54.985L210.651 54.9211L210.928 54.8575L211.205 54.7876L211.482 54.7189L211.759 54.6553L212.036 54.5859L212.313 54.5232L212.59 54.4523L212.867 54.3879L213.144 54.3234L213.421 54.2612L213.698 54.198L213.975 54.1485L214.252 54.0827L214.528 54.0126L214.805 53.9107L215.082 53.6229L215.359 53.2594L215.636 53.1717L215.913 53.0933L216.19 53.0151L216.467 52.9332L216.744 52.8441L217.021 52.7391L217.298 52.3749L217.575 52.2533L217.852 52.0824L218.129 51.8268L218.406 51.6085L218.683 51.4367L218.96 51.3222L219.237 51.2035L219.514 50.9866L219.791 50.8716L220.067 50.7866L220.344 50.6962L220.621 50.5892L220.898 50.4852L221.175 50.3694L221.452 50.2347L221.729 50.0441L222.006 49.8867L222.283 49.7824L222.56 49.6548L222.837 49.5497L223.114 49.4566L223.391 49.3576L223.668 49.1331L223.945 48.9092L224.222 48.7944L224.499 48.6862L224.776 48.5481L225.053 48.4051L225.33 48.2553L225.606 48.1682L225.883 48.0698L226.16 47.9852L226.437 47.9122L226.714 47.8346L226.991 47.7416L227.268 47.6411L227.545 47.5483L227.822 47.4622L228.099 47.3644L228.376 47.2656L228.653 47.1497L228.93 47.0445L229.207 46.8905L229.484 46.6664L229.761 46.5397L230.038 46.4131L230.315 46.2896L230.592 46.1654L230.869 46.0658L231.145 45.9721L231.422 45.6943L231.699 45.3392L231.976 45.2276L232.253 45.1682L232.53 45.1036L232.807 45.0272L233.084 44.9635L233.361 44.8702L233.638 44.8094L233.915 44.7617L234.192 44.7164L234.469 44.6707L234.746 44.6162L235.023 44.571L235.3 44.5226L235.577 44.4546L235.854 44.3897L236.131 44.3344L236.408 44.2786L236.684 44.1758L236.961 44.0715L237.238 43.9218L237.515 43.7934L237.792 43.7178L238.069 43.6632L238.346 43.6099L238.623 43.52L238.9 43.3913L239.177 43.2809L239.454 43.1424L239.731 43.0034L240.008 42.8889L240.285 42.7761L240.562 42.6603L240.839 42.5489L241.116 42.4851L241.393 42.3358L241.67 42.1978L241.947 42.1125L242.223 41.9981L242.5 41.8809L242.777 41.7928L243.054 41.7312L243.331 41.6598L243.608 41.5936L243.885 41.52L244.162 41.4055L244.439 41.3371L244.716 41.258L244.993 41.2031L245.27 41.1273L245.547 41.0329L245.824 40.9532L246.101 40.8407L246.378 40.7492L246.655 40.6346L246.932 40.5571L247.209 40.367L247.486 40.2435L247.762 40.0563L248.039 39.9208L248.316 39.7646L248.593 39.6264L248.87 39.4875L249.147 39.3339L249.424 39.2081L249.701 39.0607L249.978 38.9626L250.255 38.7947L250.532 38.658L250.809 38.5206L251.086 38.3911L251.363 38.2853L251.64 38.1536L251.917 38.0502L252.194 37.929L252.471 37.7635L252.748 37.5943L253.025 37.4414L253.301 37.3127L253.578 37.1055L253.855 36.9241L254.132 36.7116L254.409 36.4324L254.686 36.2759L254.963 36.1566L255.24 36.0457L255.517 35.9568L255.794 35.8526L256.071 35.7586L256.348 35.6575L256.625 35.5586L256.902 35.4729L257.179 35.3801L257.456 35.2862L257.733 35.2038L258.01 35.0954L258.287 34.9709L258.564 34.8755L258.84 34.8074L259.117 34.73L259.394 34.637L259.671 34.5501L259.948 34.4426L260.225 34.3207L260.502 34.1869L260.779 34.092L261.056 34.0034L261.333 33.8953L261.61 33.797L261.887 33.6859L262.164 33.5914L262.441 33.4507L262.718 33.333L262.995 33.2492L263.272 33.1451L263.549 33.0578L263.826 32.9495L264.103 32.8215L264.379 32.707L264.656 32.59L264.933 32.4919L265.21 32.361L265.487 32.2373L265.764 32.0857L266.041 31.8915L266.318 31.6756L266.595 31.5013L266.872 31.3026L267.149 30.9961L267.426 30.6856L267.703 30.1509L267.98 29.654L268.257 29.164L268.534 28.6748L268.811 28.1474L269.088 27.1906L269.365 26.1263L269.642 25.127L269.918 24.3308L270.195 23.785L270.472 23.3909L270.749 23.0913L271.026 22.8727L271.303 22.6688L271.58 22.349L271.857 22.1603L272.134 21.939L272.411 21.648L272.688 21.3995L272.965 21.1662L273.242 20.9494L273.519 20.7295L273.796 20.5403L274.073 20.3737L274.35 20.2384L274.627 20.0991L274.904 19.9092L275.181 19.7279L275.457 19.4906L275.734 19.2818L276.011 19.1005L276.288 18.9543L276.565 18.8146L276.842 18.6705L277.119 18.4959L277.396 18.3596L277.673 18.2769L277.95 18.1425L278.227 18.0244L278.504 17.9059L278.781 17.7816L279.058 17.6428L279.335 17.4867L279.612 17.3494L279.889 17.1601L280.166 17.0123L280.443 16.8898L280.72 16.7184L280.996 16.5355L281.273 16.3726L281.55 16.2105L281.827 16.0512L282.104 15.8661L282.381 15.7075L282.658 15.5863L282.935 15.4862L283.212 15.3742L283.489 15.2478L283.766 15.0931L284.043 14.9939L284.32 14.8944L284.597 14.7788L284.874 14.6642L285.151 14.5607L285.428 14.464L285.705 14.3076L285.982 14.186L286.259 14.0878L286.535 13.9972L286.812 13.8767L287.089 13.745L287.366 13.6178L287.643 13.4698L287.92 13.3638L288.197 13.2736L288.474 13.1515L288.751 13.0489L289.028 12.9248L289.305 12.8055L289.582 12.6634L289.859 12.4466L290.136 12.2038L290.413 11.9758L290.69 11.7555L290.967 11.6014L291.244 11.4282L291.521 11.2587L291.798 11.1115L292.074 10.9625L292.351 10.7704L292.628 10.6421L292.905 10.4943L293.182 10.3664L293.459 10.2496L293.736 10.1479L294.013 10.0509L294.29 9.92916L294.567 9.81966L294.844 9.71174L295.121 9.61516L295.398 9.49771L295.675 9.39064L295.952 9.29346L296.229 9.17898L296.506 9.03393L296.783 8.92944L297.06 8.78247L297.337 8.6686L297.613 8.55995L297.89 8.45602L298.167 8.35163L298.444 8.22971L298.721 8.10155L298.998 8.00407L299.275 7.86654L299.552 7.69511L299.829 7.54799L300.106 7.41318L300.383 7.26851L300.66 7.14116L300.937 7.02544L301.214 6.91491L301.491 6.81887L301.768 6.72617L302.045 6.61481L302.322 6.49448L302.599 6.38707L302.876 6.29787L303.152 6.21023L303.429 6.11901L303.706 6.02989L303.983 5.94892L304.26 5.86617L304.537 5.80976L304.814 5.77144L305.091 5.64802L305.368 5.59212L305.645 5.53587L305.922 5.44264L306.199 5.00203L306.476 4.41589L306.753 4.35062L307.03 4.29145L307.307 4.24389L307.584 4.19596L307.861 4.14178L308.138 4.07846L308.415 4.03158L308.691 3.98373L308.968 3.93599L309.245 3.87979L309.522 3.83294L309.799 3.77421L310.076 3.71257L310.353 3.65253L310.63 3.59854L310.907 3.54929L311.184 3.50249L311.461 3.45179L311.738 3.38598L312.015 3.32786L312.292 3.2751L312.569 3.21516L312.846 3.14445L313.123 3.09393L313.4 3.04768L313.677 3.00104L313.954 2.9345L314.23 2.88162L314.507 2.82846L314.784 2.77163L315.061 2.69761L315.338 2.64558L315.615 2.59035L315.892 2.53052L316.169 2.44512L316.446 2.39131L316.723 2.33914L317 2.28882V106.289H316.723H316.446H316.169H315.892H315.615H315.338H315.061H314.784H314.507H314.23H313.954H313.677H313.4H313.123H312.846H312.569H312.292H312.015H311.738H311.461H311.184H310.907H310.63H310.353H310.076H309.799H309.522H309.245H308.968H308.691H308.415H308.138H307.861H307.584H307.307H307.03H306.753H306.476H306.199H305.922H305.645H305.368H305.091H304.814H304.537H304.26H303.983H303.706H303.429H303.152H302.876H302.599H302.322H302.045H301.768H301.491H301.214H300.937H300.66H300.383H300.106H299.829H299.552H299.275H298.998H298.721H298.444H298.167H297.89H297.613H297.337H297.06H296.783H296.506H296.229H295.952H295.675H295.398H295.121H294.844H294.567H294.29H294.013H293.736H293.459H293.182H292.905H292.628H292.351H292.074H291.798H291.521H291.244H290.967H290.69H290.413H290.136H289.859H289.582H289.305H289.028H288.751H288.474H288.197H287.92H287.643H287.366H287.089H286.812H286.535H286.259H285.982H285.705H285.428H285.151H284.874H284.597H284.32H284.043H283.766H283.489H283.212H282.935H282.658H282.381H282.104H281.827H281.55H281.273H280.996H280.72H280.443H280.166H279.889H279.612H279.335H279.058H278.781H278.504H278.227H277.95H277.673H277.396H277.119H276.842H276.565H276.288H276.011H275.734H275.457H275.181H274.904H274.627H274.35H274.073H273.796H273.519H273.242H272.965H272.688H272.411H272.134H271.857H271.58H271.303H271.026H270.749H270.472H270.195H269.918H269.642H269.365H269.088H268.811H268.534H268.257H267.98H267.703H267.426H267.149H266.872H266.595H266.318H266.041H265.764H265.487H265.21H264.933H264.656H264.379H264.103H263.826H263.549H263.272H262.995H262.718H262.441H262.164H261.887H261.61H261.333H261.056H260.779H260.502H260.225H259.948H259.671H259.394H259.117H258.84H258.564H258.287H258.01H257.733H257.456H257.179H256.902H256.625H256.348H256.071H255.794H255.517H255.24H254.963H254.686H254.409H254.132H253.855H253.578H253.301H253.025H252.748H252.471H252.194H251.917H251.64H251.363H251.086H250.809H250.532H250.255H249.978H249.701H249.424H249.147H248.87H248.593H248.316H248.039H247.762H247.486H247.209H246.932H246.655H246.378H246.101H245.824H245.547H245.27H244.993H244.716H244.439H244.162H243.885H243.608H243.331H243.054H242.777H242.5H242.223H241.947H241.67H241.393H241.116H240.839H240.562H240.285H240.008H239.731H239.454H239.177H238.9H238.623H238.346H238.069H237.792H237.515H237.238H236.961H236.684H236.408H236.131H235.854H235.577H235.3H235.023H234.746H234.469H234.192H233.915H233.638H233.361H233.084H232.807H232.53H232.253H231.976H231.699H231.422H231.145H230.869H230.592H230.315H230.038H229.761H229.484H229.207H228.93H228.653H228.376H228.099H227.822H227.545H227.268H226.991H226.714H226.437H226.16H225.883H225.606H225.33H225.053H224.776H224.499H224.222H223.945H223.668H223.391H223.114H222.837H222.56H222.283H222.006H221.729H221.452H221.175H220.898H220.621H220.344H220.067H219.791H219.514H219.237H218.96H218.683H218.406H218.129H217.852H217.575H217.298H217.021H216.744H216.467H216.19H215.913H215.636H215.359H215.082H214.805H214.528H214.252H213.975H213.698H213.421H213.144H212.867H212.59H212.313H212.036H211.759H211.482H211.205H210.928H210.651H210.374H210.097H209.82H209.543H209.266H208.989H208.713H208.436H208.159H207.882H207.605H207.328H207.051H206.774H206.497H206.22H205.943H205.666H205.389H205.112H204.835H204.558H204.281H204.004H203.727H203.45H203.174H202.897H202.62H202.343H202.066H201.789H201.512H201.235H200.958H200.681H200.404H200.127H199.85H199.573H199.296H199.019H198.742H198.465H198.188H197.911H197.635H197.358H197.081H196.804H196.527H196.25H195.973H195.696H195.419H195.142H194.865H194.588H194.311H194.034H193.757H193.48H193.203H192.926H192.649H192.372H192.096H191.819H191.542H191.265H190.988H190.711H190.434H190.157H189.88H189.603H189.326H189.049H188.772H188.495H188.218H187.941H187.664H187.387H187.11H186.833H186.557H186.28H186.003H185.726H185.449H185.172H184.895H184.618H184.341H184.064H183.787H183.51H183.233H182.956H182.679H182.402H182.125H181.848H181.571H181.294H181.018H180.741H180.464H180.187H179.91H179.633H179.356H179.079H178.802H178.525H178.248H177.971H177.694H177.417H177.14H176.863H176.586H176.309H176.032H175.755H175.479H175.202H174.925H174.648H174.371H174.094H173.817H173.54H173.263H172.986H172.709H172.432H172.155H171.878H171.601H171.324H171.047H170.77H170.493H170.216H169.94H169.663H169.386H169.109H168.832H168.555H168.278H168.001H167.724H167.447H167.17H166.893H166.616H166.339H166.062H165.785H165.508H165.231H164.954H164.677H164.401H164.124H163.847H163.57H163.293H163.016H162.739H162.462H162.185H161.908H161.631H161.354H161.077H160.8H160.523H160.246H159.969H159.692H159.415H159.138H158.862H158.585H158.308H158.031H157.754H157.477H157.2H156.923H156.646H156.369H156.092H155.815H155.538H155.261H154.984H154.707H154.43H154.153H153.876H153.599H153.323H153.046H152.769H152.492H152.215H151.938H151.661H151.384H151.107H150.83H150.553H150.276H149.999H149.722H149.445H149.168H148.891H148.614H148.337H148.06H147.784H147.507H147.23H146.953H146.676H146.399H146.122H145.845H145.568H145.291H145.014H144.737H144.46H144.183H143.906H143.629H143.352H143.075H142.798H142.521H142.245H141.968H141.691H141.414H141.137H140.86H140.583H140.306H140.029H139.752H139.475H139.198H138.921H138.644H138.367H138.09H137.813H137.536H137.259H136.982H136.706H136.429H136.152H135.875H135.598H135.321H135.044H134.767H134.49H134.213H133.936H133.659H133.382H133.105H132.828H132.551H132.274H131.997H131.72H131.443H131.167H130.89H130.613H130.336H130.059H129.782H129.505H129.228H128.951H128.674H128.397H128.12H127.843H127.566H127.289H127.012H126.735H126.458H126.181H125.904H125.628H125.351H125.074H124.797H124.52H124.243H123.966H123.689H123.412H123.135H122.858H122.581H122.304H122.027H121.75H121.473H121.196H120.919H120.642H120.365H120.089H119.812H119.535H119.258H118.981H118.704H118.427H118.15H117.873H117.596H117.319H117.042H116.765H116.488H116.211H115.934H115.657H115.38H115.103H114.826H114.55H114.273H113.996H113.719H113.442H113.165H112.888H112.611H112.334H112.057H111.78H111.503H111.226H110.949H110.672H110.395H110.118H109.841H109.564H109.287H109.011H108.734H108.457H108.18H107.903H107.626H107.349H107.072H106.795H106.518H106.241H105.964H105.687H105.41H105.133H104.856H104.579H104.302H104.025H103.748H103.472H103.195H102.918H102.641H102.364H102.087H101.81H101.533H101.256H100.979H100.702H100.425H100.148H99.8712H99.5942H99.3173H99.0403H98.7634H98.4864H98.2095H97.9325H97.6556H97.3786H97.1017H96.8247H96.5478H96.2708H95.9939H95.7169H95.44H95.163H94.8861H94.6091H94.3322H94.0552H93.7783H93.5013H93.2244H92.9474H92.6705H92.3935H92.1166H91.8396H91.5627H91.2857H91.0088H90.7318H90.4549H90.1779H89.901H89.624H89.3471H89.0701H88.7932H88.5162H88.2393H87.9623H87.6854H87.4084H87.1315H86.8545H86.5776H86.3006H86.0237H85.7467H85.4698H85.1928H84.9159H84.6389H84.362H84.085H83.8081H83.5311H83.2542H82.9772H82.7003H82.4233H82.1464H81.8694H81.5925H81.3155H81.0386H80.7616H80.4847H80.2077H79.9308H79.6538H79.3769H79.0999H78.823H78.546H78.2691H77.9921H77.7152H77.4382H77.1613H76.8843H76.6074H76.3304H76.0535H75.7765H75.4996H75.2226H74.9457H74.6687H74.3918H74.1148H73.8379H73.5609H73.284H73.007H72.7301H72.4531H72.1762H71.8992H71.6223H71.3453H71.0684H70.7914H70.5145H70.2375H69.9606H69.6836H69.4067H69.1297H68.8528H68.5758H68.2989H68.0219H67.745H67.468H67.1911H66.9141H66.6372H66.3602H66.0833H65.8063H65.5294H65.2524H64.9755H64.6985H64.4216H64.1446H63.8677H63.5907H63.3138H63.0368H62.7599H62.4829H62.206H61.929H61.6521H61.3751H61.0982H60.8212H60.5443H60.2673H59.9904H59.7134H59.4365H59.1595H58.8826H58.6056H58.3287H58.0517H57.7748H57.4978H57.2209H56.9439H56.667H56.39H56.1131H55.8361H55.5592H55.2822H55.0053H54.7283H54.4514H54.1744H53.8975H53.6205H53.3436H53.0666H52.7897H52.5127H52.2358H51.9588H51.6819H51.4049H51.128H50.851H50.5741H50.2971H50.0202H49.7432H49.4663H49.1893H48.9124H48.6354H48.3585H48.0815H47.8046H47.5276H47.2507H46.9737H46.6968H46.4198H46.1429H45.8659H45.589H45.312H45.0351H44.7581H44.4812H44.2042H43.9273H43.6503H43.3734H43.0964H42.8195H42.5425H42.2656H41.9886H41.7117H41.4347H41.1578H40.8808H40.6039H40.3269H40.05H39.773H39.4961H39.2191H38.9422H38.6652H38.3883H38.1113H37.8344H37.5574H37.2805H37.0035H36.7266H36.4496H36.1727H35.8957H35.6188H35.3418H35.0649H34.7879H34.511H34.234H33.9571H33.6801H33.4032H33.1262H32.8493H32.5723H32.2954H32.0184H31.7415H31.4645H31.1876H30.9106H30.6337H30.3567H30.0798H29.8028H29.5259H29.2489H28.972H28.695H28.4181H28.1411H27.8642H27.5872H27.3103H27.0333H26.7564H26.4794H26.2025H25.9255H25.6486H25.3716H25.0947H24.8177H24.5408H24.2638H23.9869H23.7099H23.433H23.156H22.8791H22.6021H22.3252H22.0482H21.7713H21.4943H21.2174H20.9404H20.6635H20.3865H20.1096H19.8326H19.5557H19.2787H19.0018H18.7248H18.4479H18.1709H17.894H17.617H17.3401H17.0631H16.7862H16.5092H16.2323H15.9553H15.6784H15.4014H15.1245H14.8475H14.5706H14.2936H14.0167H13.7397H13.4628H13.1858H12.9089H12.6319H12.355H12.078H11.8011H11.5241H11.2472H10.9702H10.6933H10.4163H10.1394H9.8624H9.58545H9.3085H9.03155H8.7546H8.47765H8.2007H7.92375H7.6468H7.36985H7.0929H6.81595H6.539H6.26205H5.9851H5.70815H5.4312H5.15425H4.8773H4.60035L4.3234 106.289L4.04645 106.289L3.7695 106.289L3.49255 106.289L3.2156 106.289L2.93865 106.289L2.6617 106.289L2.38475 106.289L2.1078 106.289L1.83085 106.289L1.5539 106.289L1.27695 106.289Z" fill="url(#paint0_linear_824_1888)"/>
<path d="M1 106.289H1.27695L1.5539 106.289L1.83085 106.289L2.1078 106.289L2.38475 106.289L2.6617 106.289L2.93865 106.289L3.2156 106.289L3.49255 106.289L3.7695 106.289L4.04645 106.289L4.3234 106.289L4.60035 106.288L4.8773 106.288L5.15425 106.287L5.4312 106.285L5.70815 106.285L5.9851 106.284L6.26205 106.284L6.539 106.284L6.81595 106.283L7.0929 106.283L7.36985 106.283L7.6468 106.283L7.92375 106.282L8.2007 106.282L8.47765 106.281L8.7546 106.281L9.03155 106.28L9.3085 106.28L9.58545 106.278L9.8624 106.277L10.1394 106.276L10.4163 106.274L10.6933 106.273L10.9702 106.271L11.2472 106.27L11.5241 106.269L11.8011 106.266L12.078 106.261L12.355 106.258L12.6319 106.258L12.9089 106.256L13.1858 106.255L13.4628 106.254L13.7397 106.251L14.0167 106.233L14.2936 106.232L14.5706 106.23L14.8475 106.229L15.1245 106.227L15.4014 106.226L15.6784 106.225L15.9553 106.224L16.2323 106.223L16.5092 106.223L16.7862 106.222L17.0631 106.221L17.3401 106.221L17.617 106.22L17.894 106.219L18.1709 106.218L18.4479 106.215L18.7248 106.215L19.0018 106.214L19.2787 106.213L19.5557 106.213L19.8326 106.212L20.1096 106.212L20.3865 106.211L20.6635 106.211L20.9404 106.211L21.2174 106.21L21.4943 106.21L21.7713 106.21L22.0482 106.209L22.3252 106.209L22.6021 106.208L22.8791 106.208L23.156 106.208L23.433 106.207L23.7099 106.206L23.9869 106.206L24.2638 106.205L24.5408 106.205L24.8177 106.205L25.0947 106.204L25.3716 106.204L25.6486 106.2L25.9255 106.197L26.2025 106.194L26.4794 106.193L26.7564 106.192L27.0333 106.191L27.3103 106.19L27.5872 106.189L27.8642 106.186L28.1411 106.185L28.4181 106.184L28.695 106.184L28.972 106.183L29.2489 106.182L29.5259 106.181L29.8028 106.181L30.0798 106.18L30.3567 106.18L30.6337 106.179L30.9106 106.179L31.1876 106.178L31.4645 106.178L31.7415 106.174L32.0184 106.173L32.2954 106.172L32.5723 106.167L32.8493 106.163L33.1262 106.15L33.4032 106.145L33.6801 106.142L33.9571 106.139L34.234 106.135L34.511 106.132L34.7879 106.128L35.0649 106.125L35.3418 106.122L35.6188 106.117L35.8957 106.115L36.1727 106.112L36.4496 106.11L36.7266 106.108L37.0035 106.106L37.2805 106.105L37.5574 106.104L37.8344 106.101L38.1113 106.091L38.3883 106.084L38.6652 106.077L38.9422 106.075L39.2191 106.073L39.4961 106.071L39.773 106.07L40.05 106.069L40.3269 106.067L40.6039 106.065L40.8808 106.064L41.1578 106.063L41.4347 106.061L41.7117 106.058L41.9886 106.056L42.2656 106.054L42.5425 106.052L42.8195 106.043L43.0964 106.038L43.3734 106.034L43.6503 106.03L43.9273 106.027L44.2042 106.023L44.4812 106.021L44.7581 106.013L45.0351 106.007L45.312 106.002L45.589 105.998L45.8659 105.989L46.1429 105.979L46.4198 105.97L46.6968 105.962L46.9737 105.956L47.2507 105.949L47.5276 105.922L47.8046 105.744L48.0815 105.324L48.3585 104.79L48.6354 104.292L48.9124 103.469L49.1893 102.928L49.4663 102.391L49.7432 101.821L50.0202 101.204L50.2971 100.931L50.5741 100.441L50.851 99.9037L51.128 98.5955L51.4049 96.9101L51.6819 95.3105L51.9588 93.7928L52.2358 92.0569L52.5127 91.22L52.7897 91.1923L53.0666 91.1835L53.3436 91.1757L53.6205 91.002L53.8975 90.9372L54.1744 90.9262L54.4514 90.9157L54.7283 90.902L55.0053 90.8869L55.2822 90.8697L55.5592 90.7758L55.8361 90.532L56.1131 90.5112L56.39 90.4934L56.667 90.3942L56.9439 90.3697L57.2209 90.3436L57.4978 90.2578L57.7748 90.19L58.0517 90.1304L58.3287 90.065L58.6056 90.039L58.8826 90.0115L59.1595 89.9754L59.4365 89.946L59.7134 89.9147L59.9904 89.8822L60.2673 89.851L60.5443 89.813L60.8212 89.7762L61.0982 89.7394L61.3751 89.7027L61.6521 89.6646L61.929 89.6407L62.206 89.5937L62.4829 89.4853L62.7599 89.3356L63.0368 89.3093L63.3138 89.2791L63.5907 89.2489L63.8677 89.2199L64.1446 89.1864L64.4216 89.1359L64.6985 89.1047L64.9755 89.062L65.2524 89.0023L65.5294 88.9513L65.8063 88.8566L66.0833 88.7702L66.3602 88.7203L66.6372 88.6523L66.9141 88.6141L67.1911 88.5755L67.468 88.5199L67.745 88.4368L68.0219 88.3632L68.2989 88.2984L68.5758 88.2484L68.8528 88.1863L69.1297 88.1236L69.4067 88.0534L69.6836 87.9873L69.9606 87.9272L70.2375 87.8501L70.5145 87.7811L70.7914 87.708L71.0684 87.6042L71.3453 87.5476L71.6223 87.4636L71.8992 87.3197L72.1762 87.2726L72.4531 87.2251L72.7301 87.1784L73.007 87.141L73.284 87.04L73.5609 86.988L73.8379 86.8491L74.1148 86.7436L74.3918 86.6836L74.6687 86.6253L74.9457 86.5842L75.2226 86.4907L75.4996 86.4688L75.7765 86.4193L76.0535 86.3767L76.3304 86.3212L76.6074 86.303L76.8843 86.2702L77.1613 86.239L77.4382 86.2076L77.7152 86.1762L77.9921 86.1465L78.2691 86.1204L78.546 86.0963L78.823 86.0659L79.0999 86.0436L79.3769 86.007L79.6538 85.9565L79.9308 85.9203L80.2077 85.8874L80.4847 85.8423L80.7616 85.7907L81.0386 85.7377L81.3155 85.6784L81.5925 85.6041L81.8694 85.5013L82.1464 85.3797L82.4233 85.3537L82.7003 85.3321L82.9772 85.2207L83.2542 85.0418L83.5311 84.6973L83.8081 84.6288L84.085 84.5947L84.362 84.5778L84.6389 84.5621L84.9159 84.546L85.1928 84.5284L85.4698 84.5114L85.7467 84.4915L86.0237 84.4703L86.3006 84.4502L86.5776 84.4253L86.8545 84.4034L87.1315 84.3801L87.4084 84.3548L87.6854 84.3314L87.9623 84.31L88.2393 84.2901L88.5162 84.2687L88.7932 84.247L89.0701 84.2255L89.3471 84.2027L89.624 84.178L89.901 84.1526L90.1779 84.1268L90.4549 84.1021L90.7318 84.076L91.0088 84.0516L91.2857 84.028L91.5627 84.0025L91.8396 83.9722L92.1166 83.9335L92.3935 83.8932L92.6705 83.8501L92.9474 83.8202L93.2244 83.7908L93.5013 83.7614L93.7783 83.7285L94.0552 83.6981L94.3322 83.6734L94.6091 83.6473L94.8861 83.6179L95.163 83.5903L95.44 83.5628L95.7169 83.3591L95.9939 83.1112L96.2708 82.9165L96.5478 82.8879L96.8247 82.8535L97.1017 82.8045L97.3786 82.7741L97.6556 82.7439L97.9325 82.7154L98.2095 82.6825L98.4864 82.6487L98.7634 82.6172L99.0403 82.5839L99.3173 82.5511L99.5942 82.5114L99.8712 82.4728L100.148 82.4387L100.425 82.4001L100.702 82.3612L100.979 82.3205L101.256 82.2754L101.533 82.2288L101.81 82.1716L102.087 82.1294L102.364 82.0771L102.641 82.0291L102.918 81.9721L103.195 81.93L103.472 81.8876L103.748 81.8442L104.025 81.8043L104.302 81.7615L104.579 81.7167L104.856 81.6689L105.133 81.6215L105.41 81.582L105.687 81.5368L105.964 81.4869L106.241 81.4419L106.518 81.391L106.795 81.3376L107.072 81.2849L107.349 81.2414L107.626 81.2007L107.903 81.1578L108.18 81.1109L108.457 81.064L108.734 81.0176L109.011 80.9668L109.287 80.9085L109.564 80.8651L109.841 80.8163L110.118 80.7627L110.395 80.7202L110.672 80.6707L110.949 80.6267L111.226 80.5844L111.503 80.5465L111.78 80.5045L112.057 80.4624L112.334 80.4171L112.611 80.3634L112.888 80.3084L113.165 80.2611L113.442 80.2145L113.719 80.1664L113.996 80.116L114.273 80.0662L114.55 80.0065L114.826 79.9504L115.103 79.8951L115.38 79.8528L115.657 79.8027L115.934 79.7431L116.211 79.6682L116.488 79.5978L116.765 79.531L117.042 79.104L117.319 78.6035L117.596 78.0911L117.873 77.7631L118.15 77.6835L118.427 77.603L118.704 77.4763L118.981 77.3896L119.258 77.2984L119.535 77.2042L119.812 77.109L120.089 77.012L120.365 76.8096L120.642 76.6076L120.919 76.4958L121.196 76.3909L121.473 76.3208L121.75 76.2444L122.027 76.1709L122.304 76.0729L122.581 75.9958L122.858 75.9222L123.135 75.8515L123.412 75.7754L123.689 75.6905L123.966 75.6175L124.243 75.5489L124.52 75.487L124.797 75.4306L125.074 75.3701L125.351 75.3073L125.628 75.2428L125.904 75.18L126.181 75.1164L126.458 75.0511L126.735 74.9985L127.012 74.9504L127.289 74.8969L127.566 74.8362L127.843 74.7573L128.12 74.6905L128.397 74.6266L128.674 74.5724L128.951 74.5223L129.228 74.467L129.505 74.4115L129.782 74.3545L130.059 74.2985L130.336 74.2335L130.613 74.1406L130.89 74.0951L131.167 74.0516L131.443 74.0016L131.72 73.9382L131.997 73.8757L132.274 73.818L132.551 73.7561L132.828 73.7052L133.105 73.6573L133.382 73.5991L133.659 73.5442L133.936 73.485L134.213 73.4283L134.49 73.3761L134.767 73.3306L135.044 73.2782L135.321 73.2225L135.598 73.1651L135.875 73.1016L136.152 73.0387L136.429 72.9901L136.706 72.944L136.982 72.8974L137.259 72.846L137.536 72.7862L137.813 72.7241L138.09 72.6691L138.367 72.614L138.644 72.5587L138.921 72.5137L139.198 72.4619L139.475 72.4098L139.752 72.3544L140.029 72.2987L140.306 72.2439L140.583 72.1946L140.86 72.1391L141.137 72.0079L141.414 71.9501L141.691 71.8866L141.968 71.8212L142.245 71.7634L142.521 71.6982L142.798 71.6454L143.075 71.5809L143.352 71.5215L143.629 71.4552L143.906 71.4062L144.183 71.3595L144.46 71.3153L144.737 71.2647L145.014 71.2169L145.291 71.1756L145.568 71.1286L145.845 71.0802L146.122 71.0366L146.399 70.9886L146.676 70.9437L146.953 70.8879L147.23 70.8242L147.507 70.7691L147.784 70.698L148.06 70.6415L148.337 70.5953L148.614 70.5399L148.891 70.4768L149.168 70.3962L149.445 70.3356L149.722 70.2722L149.999 70.2187L150.276 70.1645L150.553 70.113L150.83 70.0513L151.107 69.9611L151.384 69.9048L151.661 69.8503L151.938 69.7894L152.215 69.7431L152.492 69.6921L152.769 69.6401L153.046 69.5709L153.323 69.5088L153.599 69.4414L153.876 69.3782L154.153 69.3196L154.43 69.2626L154.707 69.1822L154.984 69.1116L155.261 69.033L155.538 68.9507L155.815 68.8778L156.092 68.8031L156.369 68.7297L156.646 68.634L156.923 68.5447L157.2 68.4583L157.477 68.3674L157.754 68.2928L158.031 68.2073L158.308 68.1179L158.585 68.0165L158.862 67.9149L159.138 67.8398L159.415 67.7518L159.692 67.6597L159.969 67.594L160.246 67.5236L160.523 67.4385L160.8 67.3495L161.077 67.2598L161.354 67.1779L161.631 67.0994L161.908 67.0141L162.185 66.9356L162.462 66.8398L162.739 66.7561L163.016 66.6736L163.293 66.6035L163.57 66.5321L163.847 66.47L164.124 66.407L164.401 66.3437L164.677 66.2658L164.954 66.2074L165.231 66.0991L165.508 66.0267L165.785 65.9712L166.062 65.9234L166.339 65.8541L166.616 65.793L166.893 65.7098L167.17 65.635L167.447 65.5503L167.724 65.4563L168.001 65.3982L168.278 65.3287L168.555 65.263L168.832 65.1986L169.109 65.132L169.386 65.0659L169.663 65.0079L169.94 64.9518L170.216 64.9014L170.493 64.836L170.77 64.7796L171.047 64.7213L171.324 64.6737L171.601 64.6195L171.878 64.5639L172.155 64.5095L172.432 64.4526L172.709 64.3625L172.986 64.2726L173.263 63.9769L173.54 63.6382L173.817 63.4455L174.094 63.3583L174.371 63.3029L174.648 63.2527L174.925 63.2039L175.202 63.1563L175.479 63.1171L175.755 63.0727L176.032 63.0178L176.309 62.9676L176.586 62.9157L176.863 62.8663L177.14 62.8208L177.417 62.7786L177.694 62.7319L177.971 62.6816L178.248 62.6299L178.525 62.5833L178.802 62.543L179.079 62.5069L179.356 62.4657L179.633 62.4234L179.91 62.3763L180.187 62.3219L180.464 62.267L180.741 62.2108L181.018 62.1578L181.294 62.1186L181.571 62.0783L181.848 62.0272L182.125 61.9755L182.402 61.8709L182.679 61.8164L182.956 61.7728L183.233 61.7004L183.51 61.656L183.787 61.5836L184.064 61.5138L184.341 61.4536L184.618 61.3969L184.895 61.3183L185.172 61.2566L185.449 61.1804L185.726 61.1194L186.003 61.0608L186.28 60.9906L186.557 60.9142L186.833 60.8485L187.11 60.7936L187.387 60.7371L187.664 60.6676L187.941 60.6045L188.218 60.5418L188.495 60.4798L188.772 60.4082L189.049 60.3488L189.326 60.2898L189.603 60.2301L189.88 60.162L190.157 60.0994L190.434 60.0422L190.711 59.9699L190.988 59.9191L191.265 59.8663L191.542 59.8077L191.819 59.755L192.096 59.6926L192.372 59.6347L192.649 59.5827L192.926 59.5353L193.203 59.4867L193.48 59.4354L193.757 59.3859L194.034 59.3418L194.311 59.2917L194.588 59.2415L194.865 59.1632L195.142 59.1023L195.419 59.0476L195.696 58.9973L195.973 58.9447L196.25 58.8964L196.527 58.8471L196.804 58.7931L197.081 58.741L197.358 58.6807L197.635 58.6267L197.911 58.5706L198.188 58.4601L198.465 58.3478L198.742 58.2657L199.019 58.1927L199.296 58.1204L199.573 58.0339L199.85 57.9291L200.127 57.8411L200.404 57.7512L200.681 57.6807L200.958 57.614L201.235 57.5471L201.512 57.4865L201.789 57.4319L202.066 57.4129L202.343 57.3514L202.62 57.2904L202.897 57.2317L203.174 57.1609L203.45 57.0871L203.727 57.008L204.004 56.9244L204.281 56.8286L204.558 56.7458L204.835 56.6765L205.112 56.6026L205.389 56.4932L205.666 56.3799L205.943 56.2731L206.22 56.1702L206.497 56.0993L206.774 56.0322L207.051 55.9624L207.328 55.8943L207.605 55.8202L207.882 55.7312L208.159 55.6474L208.436 55.5709L208.713 55.4798L208.989 55.3484L209.266 55.2702L209.543 55.1918L209.82 55.1166L210.097 55.047L210.374 54.985L210.651 54.9211L210.928 54.8575L211.205 54.7876L211.482 54.7189L211.759 54.6553L212.036 54.5859L212.313 54.5232L212.59 54.4523L212.867 54.3879L213.144 54.3234L213.421 54.2612L213.698 54.198L213.975 54.1485L214.252 54.0827L214.528 54.0126L214.805 53.9107L215.082 53.6229L215.359 53.2594L215.636 53.1717L215.913 53.0933L216.19 53.0151L216.467 52.9332L216.744 52.8441L217.021 52.7391L217.298 52.3749L217.575 52.2533L217.852 52.0824L218.129 51.8268L218.406 51.6085L218.683 51.4367L218.96 51.3222L219.237 51.2035L219.514 50.9866L219.791 50.8716L220.067 50.7866L220.344 50.6962L220.621 50.5892L220.898 50.4852L221.175 50.3694L221.452 50.2347L221.729 50.0441L222.006 49.8867L222.283 49.7824L222.56 49.6548L222.837 49.5497L223.114 49.4566L223.391 49.3576L223.668 49.1331L223.945 48.9092L224.222 48.7944L224.499 48.6862L224.776 48.5481L225.053 48.4051L225.33 48.2553L225.606 48.1682L225.883 48.0698L226.16 47.9852L226.437 47.9122L226.714 47.8346L226.991 47.7416L227.268 47.6411L227.545 47.5483L227.822 47.4622L228.099 47.3644L228.376 47.2656L228.653 47.1497L228.93 47.0445L229.207 46.8905L229.484 46.6664L229.761 46.5397L230.038 46.4131L230.315 46.2896L230.592 46.1654L230.869 46.0658L231.145 45.9721L231.422 45.6943L231.699 45.3392L231.976 45.2276L232.253 45.1682L232.53 45.1036L232.807 45.0272L233.084 44.9635L233.361 44.8702L233.638 44.8094L233.915 44.7617L234.192 44.7164L234.469 44.6707L234.746 44.6162L235.023 44.571L235.3 44.5226L235.577 44.4546L235.854 44.3897L236.131 44.3344L236.408 44.2786L236.684 44.1758L236.961 44.0715L237.238 43.9218L237.515 43.7934L237.792 43.7178L238.069 43.6632L238.346 43.6099L238.623 43.52L238.9 43.3913L239.177 43.2809L239.454 43.1424L239.731 43.0034L240.008 42.8889L240.285 42.7761L240.562 42.6603L240.839 42.5489L241.116 42.4851L241.393 42.3358L241.67 42.1978L241.947 42.1125L242.223 41.9981L242.5 41.8809L242.777 41.7928L243.054 41.7312L243.331 41.6598L243.608 41.5936L243.885 41.52L244.162 41.4055L244.439 41.3371L244.716 41.258L244.993 41.2031L245.27 41.1273L245.547 41.0329L245.824 40.9532L246.101 40.8407L246.378 40.7492L246.655 40.6346L246.932 40.5571L247.209 40.367L247.486 40.2435L247.762 40.0563L248.039 39.9208L248.316 39.7646L248.593 39.6264L248.87 39.4875L249.147 39.3339L249.424 39.2081L249.701 39.0607L249.978 38.9626L250.255 38.7947L250.532 38.658L250.809 38.5206L251.086 38.3911L251.363 38.2853L251.64 38.1536L251.917 38.0502L252.194 37.929L252.471 37.7635L252.748 37.5943L253.025 37.4414L253.301 37.3127L253.578 37.1055L253.855 36.9241L254.132 36.7116L254.409 36.4324L254.686 36.2759L254.963 36.1566L255.24 36.0457L255.517 35.9568L255.794 35.8526L256.071 35.7586L256.348 35.6575L256.625 35.5586L256.902 35.4729L257.179 35.3801L257.456 35.2862L257.733 35.2038L258.01 35.0954L258.287 34.9709L258.564 34.8755L258.84 34.8074L259.117 34.73L259.394 34.637L259.671 34.5501L259.948 34.4426L260.225 34.3207L260.502 34.1869L260.779 34.092L261.056 34.0034L261.333 33.8953L261.61 33.797L261.887 33.6859L262.164 33.5914L262.441 33.4507L262.718 33.333L262.995 33.2492L263.272 33.1451L263.549 33.0578L263.826 32.9495L264.103 32.8215L264.379 32.707L264.656 32.59L264.933 32.4919L265.21 32.361L265.487 32.2373L265.764 32.0857L266.041 31.8915L266.318 31.6756L266.595 31.5013L266.872 31.3026L267.149 30.9961L267.426 30.6856L267.703 30.1509L267.98 29.654L268.257 29.164L268.534 28.6748L268.811 28.1474L269.088 27.1906L269.365 26.1263L269.642 25.127L269.918 24.3308L270.195 23.785L270.472 23.3909L270.749 23.0913L271.026 22.8727L271.303 22.6688L271.58 22.349L271.857 22.1603L272.134 21.939L272.411 21.648L272.688 21.3995L272.965 21.1662L273.242 20.9494L273.519 20.7295L273.796 20.5403L274.073 20.3737L274.35 20.2384L274.627 20.0991L274.904 19.9092L275.181 19.7279L275.457 19.4906L275.734 19.2818L276.011 19.1005L276.288 18.9543L276.565 18.8146L276.842 18.6705L277.119 18.4959L277.396 18.3596L277.673 18.2769L277.95 18.1425L278.227 18.0244L278.504 17.9059L278.781 17.7816L279.058 17.6428L279.335 17.4867L279.612 17.3494L279.889 17.1601L280.166 17.0123L280.443 16.8898L280.72 16.7184L280.996 16.5355L281.273 16.3726L281.55 16.2105L281.827 16.0512L282.104 15.8661L282.381 15.7075L282.658 15.5863L282.935 15.4862L283.212 15.3742L283.489 15.2478L283.766 15.0931L284.043 14.9939L284.32 14.8944L284.597 14.7788L284.874 14.6642L285.151 14.5607L285.428 14.464L285.705 14.3076L285.982 14.186L286.259 14.0878L286.535 13.9972L286.812 13.8767L287.089 13.745L287.366 13.6178L287.643 13.4698L287.92 13.3638L288.197 13.2736L288.474 13.1515L288.751 13.0489L289.028 12.9248L289.305 12.8055L289.582 12.6634L289.859 12.4466L290.136 12.2038L290.413 11.9758L290.69 11.7555L290.967 11.6014L291.244 11.4282L291.521 11.2587L291.798 11.1115L292.074 10.9625L292.351 10.7704L292.628 10.6421L292.905 10.4943L293.182 10.3664L293.459 10.2496L293.736 10.1479L294.013 10.0509L294.29 9.92916L294.567 9.81966L294.844 9.71174L295.121 9.61516L295.398 9.49771L295.675 9.39064L295.952 9.29346L296.229 9.17898L296.506 9.03393L296.783 8.92944L297.06 8.78247L297.337 8.6686L297.613 8.55995L297.89 8.45602L298.167 8.35163L298.444 8.22971L298.721 8.10155L298.998 8.00407L299.275 7.86654L299.552 7.69511L299.829 7.54799L300.106 7.41318L300.383 7.26851L300.66 7.14116L300.937 7.02544L301.214 6.91491L301.491 6.81887L301.768 6.72617L302.045 6.61481L302.322 6.49448L302.599 6.38707L302.876 6.29787L303.152 6.21023L303.429 6.11901L303.706 6.02989L303.983 5.94892L304.26 5.86617L304.537 5.80976L304.814 5.77144L305.091 5.64802L305.368 5.59212L305.645 5.53587L305.922 5.44264L306.199 5.00203L306.476 4.41589L306.753 4.35062L307.03 4.29145L307.307 4.24389L307.584 4.19596L307.861 4.14178L308.138 4.07846L308.415 4.03158L308.691 3.98373L308.968 3.93599L309.245 3.87979L309.522 3.83294L309.799 3.77421L310.076 3.71257L310.353 3.65253L310.63 3.59854L310.907 3.54929L311.184 3.50249L311.461 3.45179L311.738 3.38598L312.015 3.32786L312.292 3.2751L312.569 3.21516L312.846 3.14445L313.123 3.09393L313.4 3.04768L313.677 3.00104L313.954 2.9345L314.23 2.88162L314.507 2.82846L314.784 2.77163L315.061 2.69761L315.338 2.64558L315.615 2.59035L315.892 2.53052L316.169 2.44512L316.446 2.39131L316.723 2.33914L317 2.28882" stroke="#CED4DA" stroke-width="0.5" stroke-linecap="round" stroke-linejoin="round"/>
<defs>
<linearGradient id="paint0_linear_824_1888" x1="154.322" y1="42.3722" x2="147.606" y2="105.742" gradientUnits="userSpaceOnUse">
<stop stop-color="#F4F6F8"/>
<stop offset="1" stop-color="#F4F6F8" stop-opacity="0"/>
</linearGradient>
</defs>
</svg>
