<?xml version="1.0" encoding="utf-8"?>
<!-- Generator: Adobe Illustrator 26.3.1, SVG Export Plug-In . SVG Version: 6.00 Build 0)  -->
<svg version="1.1" id="Layer_1" xmlns="http://www.w3.org/2000/svg" xmlns:xlink="http://www.w3.org/1999/xlink" x="0px" y="0px"
	 viewBox="0 0 120 120" style="enable-background:new 0 0 120 120;" xml:space="preserve">
<style type="text/css">
	.st0{opacity:0.5;fill:#BDC5D1;enable-background:new    ;}
	.st1{fill:#FFFFFF;stroke:#BDC5D1;stroke-width:3;stroke-linecap:round;stroke-linejoin:round;stroke-miterlimit:10;}
	.st2{fill:#959814;}
	.st3{fill:none;stroke:#BDC5D1;stroke-width:3;stroke-linecap:round;stroke-linejoin:round;stroke-miterlimit:10;}
	.st4{fill:none;stroke:#959814;stroke-width:3;stroke-linecap:round;stroke-linejoin:round;stroke-miterlimit:10;}
	
		.st5{opacity:0.5;fill:none;stroke:#FFFFFF;stroke-width:3;stroke-linecap:round;stroke-linejoin:round;stroke-miterlimit:10;enable-background:new    ;}
	.st6{fill:none;stroke:#FFFFFF;stroke-width:3;stroke-linecap:round;stroke-linejoin:round;stroke-miterlimit:10;}
</style>
<polygon class="st0" points="120,87.7 120,26.5 9.4,26.5 9.4,108.4 99.3,108.4 "/>
<polyline class="st1" points="112.6,77.4 112.6,16.3 2,16.3 2,98.2 91.9,98.2 "/>
<path class="st2" d="M100.8,84.4h-86c-0.8,0-1.5-0.7-1.5-1.5V45.5c0-0.8,0.7-1.5,1.5-1.5h86c0.8,0,1.5,0.7,1.5,1.5V83
	C102.3,83.8,101.6,84.4,100.8,84.4z"/>
<polygon class="st1" points="91.9,77.4 112.6,77.4 91.9,98.2 "/>
<line class="st3" x1="15.9" y1="10.9" x2="15.9" y2="22.2"/>
<path class="st4" d="M13.6,24.5c0-1.3,1-2.3,2.3-2.3c1.3,0,2.3,1,2.3,2.3s-1,2.3-2.3,2.3S13.6,25.8,13.6,24.5z"/>
<line class="st3" x1="36" y1="10.9" x2="36" y2="22.2"/>
<path class="st4" d="M33.7,24.5c0-1.3,1-2.3,2.3-2.3s2.3,1,2.3,2.3s-1,2.3-2.3,2.3C34.8,26.8,33.7,25.8,33.7,24.5z"/>
<line class="st3" x1="56.1" y1="10.9" x2="56.1" y2="22.2"/>
<path class="st4" d="M53.8,24.5c0-1.3,1-2.3,2.3-2.3s2.3,1,2.3,2.3s-1,2.3-2.3,2.3C54.9,26.8,53.8,25.8,53.8,24.5z"/>
<line class="st3" x1="76.2" y1="10.9" x2="76.2" y2="22.2"/>
<path class="st4" d="M73.9,24.5c0-1.3,1-2.3,2.3-2.3s2.3,1,2.3,2.3s-1,2.3-2.3,2.3C75,26.8,73.9,25.8,73.9,24.5z"/>
<line class="st3" x1="96.3" y1="10.9" x2="96.3" y2="22.2"/>
<path class="st4" d="M94,24.5c0-1.3,1-2.3,2.3-2.3s2.3,1,2.3,2.3s-1,2.3-2.3,2.3C95.1,26.8,94,25.8,94,24.5z"/>
<line class="st3" x1="112.6" y1="32.9" x2="2.2" y2="32.9"/>
<line class="st5" x1="100.6" y1="58.1" x2="15" y2="58.1"/>
<line class="st5" x1="100.6" y1="70.4" x2="15" y2="70.4"/>
<line class="st5" x1="32.1" y1="45.7" x2="32.1" y2="82.8"/>
<line class="st5" x1="49.2" y1="45.7" x2="49.2" y2="82.8"/>
<line class="st5" x1="66.4" y1="45.7" x2="66.4" y2="82.8"/>
<line class="st5" x1="83.5" y1="45.7" x2="83.5" y2="82.8"/>
<polyline class="st6" points="88.2,64 91,67.4 95.9,61.2 "/>
<polyline class="st6" points="71.3,64 74,67.4 79,61.2 "/>
<polyline class="st6" points="37.5,76.3 40.3,79.7 45.2,73.5 "/>
<polyline class="st6" points="53.9,76.3 56.7,79.7 61.6,73.5 "/>
<polyline class="st6" points="20.6,76.3 23.3,79.7 28.3,73.5 "/>
</svg>
