<?xml version="1.0" encoding="utf-8"?>
<!-- Generator: Adobe Illustrator 26.3.1, SVG Export Plug-In . SVG Version: 6.00 Build 0)  -->
<svg version="1.1" id="Layer_1" xmlns="http://www.w3.org/2000/svg" xmlns:xlink="http://www.w3.org/1999/xlink" x="0px" y="0px"
	 viewBox="0 0 119.5 119.5" style="enable-background:new 0 0 119.5 119.5;" xml:space="preserve">
<style type="text/css">
	.st0{opacity:0.5;fill:#BDC5D1;enable-background:new    ;}
	.st1{fill:#FFFFFF;stroke:#959814;stroke-width:3;stroke-linecap:round;stroke-linejoin:round;stroke-miterlimit:10;}
	.st2{fill:#959814;}
	.st3{fill:#FFFFFF;}
	.st4{fill:#EEEEEE;}
	.st5{fill:#BBBBBB;}
	.st6{fill:none;stroke:#BDC5D1;stroke-width:3;stroke-linecap:round;stroke-linejoin:round;stroke-miterlimit:10;}
</style>
<circle id="Ellipse_1" class="st0" cx="35" cy="37.4" r="26.4"/>
<circle id="Ellipse_2" class="st1" cx="27.2" cy="27.2" r="25.7"/>
<circle id="Ellipse_3" class="st2" cx="27.2" cy="27.2" r="18.5"/>
<circle id="Ellipse_4" class="st0" cx="93.1" cy="93.1" r="26.4"/>
<circle id="Ellipse_5" class="st1" cx="84.9" cy="84.9" r="25.7"/>
<circle id="Ellipse_6" class="st2" cx="84.9" cy="84.9" r="18.5"/>
<path id="Path_2" class="st3" d="M85,94.4h-0.2c-3,0-5.4-2.4-5.4-5.4c0,0,0,0,0,0v-1.3h2.9V89c0,1.4,1.1,2.5,2.5,2.5c0,0,0,0,0,0H85
	c1.4,0,2.5-1.1,2.5-2.5s-1.1-2.5-2.5-2.5h-0.2c-3,0-5.4-2.4-5.4-5.4s2.4-5.4,5.4-5.4H85c3,0,5.4,2.4,5.4,5.4c0,0,0,0,0,0v1.3h-2.9
	v-1.3c0-1.4-1.1-2.5-2.5-2.5c0,0,0,0,0,0h-0.2c-1.4,0-2.5,1.1-2.5,2.5s1.1,2.5,2.5,2.5H85c3,0,5.4,2.4,5.4,5.4S88,94.4,85,94.4z"/>
<rect id="Rectangle_3" x="83.4" y="92.9" class="st3" width="2.9" height="2.6"/>
<rect id="Rectangle_4" x="83.4" y="74.3" class="st3" width="2.9" height="2.6"/>
<g id="ethereum" transform="translate(18.333 13.173)">
	<path id="Path_1" class="st3" d="M9.3-0.5v-0.2l-0.2,21l0.2,0.2l9.3-5.5L9.3-0.5z"/>
	<path id="Path_2-2" class="st3" d="M8.8-0.5l-9.3,15.5l9.3,5.5V-0.5z"/>
	<path id="Path_3" class="st3" d="M9.3,20.8l-0.1,0.1v7.2l0.1,0.3l9.3-13.2L9.3,20.8z"/>
	<path id="Path_4" class="st3" d="M8.8,28.4v-7.6l-9.3-5.5L8.8,28.4z"/>
	<path id="Path_5" class="st4" d="M9.2,20.5l9.4-5.5l-9.4-4.2L9.2,20.5z"/>
	<path id="Path_6" class="st5" d="M-0.5,14.9l9.3,5.5v-9.8L-0.5,14.9z"/>
</g>
<g id="Group_3">
	<path id="Path_3-2" class="st6" d="M62.3,8.5c1.5,0.2,3,0.5,4.5,0.9"/>
	<path id="Path_4-2" class="st6" d="M89.3,20.7c5.4,4.6,9.9,10.2,13.2,16.5"/>
	<path id="Path_5-2" class="st6" d="M72.5,11c4.3,1.5,8.4,3.6,12.2,6.1"/>
	<path id="Path_6-2" class="st6" d="M97.3,43.2l7.5,4c0.5,0.3,1.2,0.1,1.5-0.4l4.2-7.3"/>
</g>
<g id="Group_4">
	<path id="Path_7" class="st6" d="M56.7,110.5c-1.5-0.2-3-0.5-4.5-0.9"/>
	<path id="Path_8" class="st6" d="M29.7,98.3c-5.4-4.6-9.9-10.2-13.2-16.5"/>
	<path id="Path_9" class="st6" d="M46.5,108c-4.3-1.5-8.4-3.6-12.2-6.1"/>
	<path id="Path_10" class="st6" d="M21.7,75.8l-7.5-4c-0.5-0.3-1.2-0.1-1.5,0.4l-4.2,7.3"/>
</g>
</svg>
