<?xml version="1.0" encoding="utf-8"?>
<!-- Generator: Adobe Illustrator 26.3.1, SVG Export Plug-In . SVG Version: 6.00 Build 0)  -->
<svg version="1.1" id="Layer_1" xmlns="http://www.w3.org/2000/svg" xmlns:xlink="http://www.w3.org/1999/xlink" x="0px" y="0px"
	 viewBox="0 0 120 120" style="enable-background:new 0 0 120 120;" xml:space="preserve">
<style type="text/css">
	.st0{opacity:0.5;fill:#BDC5D1;enable-background:new    ;}
	.st1{fill:none;stroke:#BDC5D1;stroke-width:3;stroke-linecap:round;stroke-linejoin:round;stroke-miterlimit:10;}
	.st2{fill:#959814;}
	.st3{fill:none;stroke:#FFFFFF;stroke-width:3;stroke-linecap:round;stroke-linejoin:round;stroke-miterlimit:10;}
</style>
<rect x="101" y="15.1" class="st0" width="9.5" height="105"/>
<path class="st1" d="M18.3,110.5V12.3c0-5.9,4.8-10.7,10.7-10.7h70.4v100.7h-73C21.9,102.3,18.3,106,18.3,110.5L18.3,110.5
	c0,4.5,3.6,8.1,8.1,8.1h72.9"/>
<line class="st1" x1="99.3" y1="107.7" x2="28.2" y2="107.7"/>
<line class="st1" x1="99.3" y1="113.2" x2="28.2" y2="113.2"/>
<rect x="33.6" y="12.5" class="st2" width="54.5" height="78.9"/>
<line class="st3" x1="56.5" y1="38.5" x2="66.4" y2="38.5"/>
<line class="st3" x1="47.7" y1="46.5" x2="75.2" y2="46.5"/>
<line class="st3" x1="47.7" y1="54.6" x2="75.2" y2="54.6"/>
<line class="st3" x1="47.7" y1="62.7" x2="75.2" y2="62.7"/>
</svg>
