<svg xmlns="http://www.w3.org/2000/svg" viewBox="0 0 119.5 119.5">
  <defs>
    <style>
      .cls-1 {
        fill: #bdc5d1;
        opacity: 0.5;
      }

      .cls-2, .cls-4 {
        fill: #fff;
      }

      .cls-2 {
        stroke: #3498db;
      }

      .cls-2, .cls-7 {
        stroke-linecap: round;
        stroke-linejoin: round;
        stroke-miterlimit: 10;
        stroke-width: 3px;
      }

      .cls-3 {
        fill: #3498db;
      }

      .cls-5 {
        fill: #eee;
      }

      .cls-6 {
        fill: #bbb;
      }

      .cls-7 {
        fill: none;
        stroke: #bdc5d1;
      }
    </style>
  </defs>
  <g id="icon-55" transform="translate(-0.5 -0.5)">
    <circle id="Ellipse_1" data-name="Ellipse 1" class="cls-1" cx="26.4" cy="26.4" r="26.4" transform="translate(9.1 11.5)"/>
    <circle id="Ellipse_2" data-name="Ellipse 2" class="cls-2" cx="25.7" cy="25.7" r="25.7" transform="translate(2 2)"/>
    <circle id="Ellipse_3" data-name="Ellipse 3" class="cls-3" cx="18.5" cy="18.5" r="18.5" transform="translate(9.2 9.2)"/>
    <circle id="Ellipse_4" data-name="Ellipse 4" class="cls-1" cx="26.4" cy="26.4" r="26.4" transform="translate(67.2 67.2)"/>
    <circle id="Ellipse_5" data-name="Ellipse 5" class="cls-2" cx="25.7" cy="25.7" r="25.7" transform="translate(59.7 59.7)"/>
    <circle id="Ellipse_6" data-name="Ellipse 6" class="cls-3" cx="18.5" cy="18.5" r="18.5" transform="translate(66.9 66.9)"/>
    <path id="Path_2" data-name="Path 2" class="cls-4" d="M85.5,94.9h-.2a5.378,5.378,0,0,1-5.4-5.4V88.2h2.9v1.3A2.476,2.476,0,0,0,85.3,92h.2a2.5,2.5,0,0,0,0-5h-.2a5.4,5.4,0,0,1,0-10.8h.2a5.378,5.378,0,0,1,5.4,5.4v1.3H88V81.6a2.476,2.476,0,0,0-2.5-2.5h-.2a2.5,2.5,0,0,0,0,5h.2a5.4,5.4,0,0,1,0,10.8Z"/>
    <rect id="Rectangle_3" data-name="Rectangle 3" class="cls-4" width="2.9" height="2.6" transform="translate(83.9 93.4)"/>
    <rect id="Rectangle_4" data-name="Rectangle 4" class="cls-4" width="2.9" height="2.6" transform="translate(83.9 74.8)"/>
    <g id="ethereum" transform="translate(18.333 13.173)">
      <path id="Path_1" data-name="Path 1" class="cls-4" d="M125.37-.044V-.2l-.2,20.962.2.2,9.335-5.518Z" transform="translate(-115.543)"/>
      <path id="Path_2-2" data-name="Path 2" class="cls-4" d="M9.335,0,0,15.488l9.335,5.518V0Z" transform="translate(0 -0.044)"/>
      <path id="Path_3" data-name="Path 3" class="cls-4" d="M126.5,242.1l-.115.14v7.163l.115.336,9.34-13.154Z" transform="translate(-116.675 -220.823)"/>
      <path id="Path_4" data-name="Path 4" class="cls-4" d="M9.335,249.739V242.1L0,236.585Z" transform="translate(0 -220.821)"/>
      <path id="Path_5" data-name="Path 5" class="cls-5" d="M127.961,163.919l9.449-5.518-9.449-4.243Z" transform="translate(-118.25 -142.963)"/>
      <path id="Path_6" data-name="Path 6" class="cls-6" d="M0,158.4l9.334,5.518v-9.761Z" transform="translate(0 -142.962)"/>
    </g>
    <g id="Group_3" data-name="Group 3">
      <path id="Path_3-2" data-name="Path 3" class="cls-7" d="M62.8,9a35.83,35.83,0,0,1,4.5.9"/>
      <path id="Path_4-2" data-name="Path 4" class="cls-7" d="M89.8,21.2A55.592,55.592,0,0,1,103,37.7"/>
      <path id="Path_5-2" data-name="Path 5" class="cls-7" d="M73,11.5a55.679,55.679,0,0,1,12.2,6.1"/>
      <path id="Path_6-2" data-name="Path 6" class="cls-7" d="M97.8,43.7l7.5,4a1.129,1.129,0,0,0,1.5-.4L111,40"/>
    </g>
    <g id="Group_4" data-name="Group 4">
      <path id="Path_7" data-name="Path 7" class="cls-7" d="M57.2,111a35.831,35.831,0,0,1-4.5-.9"/>
      <path id="Path_8" data-name="Path 8" class="cls-7" d="M30.2,98.8A55.592,55.592,0,0,1,17,82.3"/>
      <path id="Path_9" data-name="Path 9" class="cls-7" d="M47,108.5a55.678,55.678,0,0,1-12.2-6.1"/>
      <path id="Path_10" data-name="Path 10" class="cls-7" d="M22.2,76.3l-7.5-4a1.129,1.129,0,0,0-1.5.4L9,80"/>
    </g>
  </g>
</svg>
