<?xml version="1.0" encoding="utf-8"?>
<!-- Generator: Adobe Illustrator 26.3.1, SVG Export Plug-In . SVG Version: 6.00 Build 0)  -->
<svg version="1.1" id="Layer_1" xmlns="http://www.w3.org/2000/svg" xmlns:xlink="http://www.w3.org/1999/xlink" x="0px" y="0px"
	 viewBox="0 0 120.5 113.2" style="enable-background:new 0 0 120.5 113.2;" xml:space="preserve">
<style type="text/css">
	.st0{opacity:0.5;fill:#BDC5D1;enable-background:new    ;}
	.st1{fill:#FFFFFF;stroke:#BDC5D1;stroke-width:3;stroke-linecap:round;stroke-linejoin:round;stroke-miterlimit:10;}
	.st2{fill:none;stroke:#959814;stroke-width:3;stroke-linecap:round;stroke-linejoin:round;stroke-miterlimit:10;}
	.st3{fill:#959814;}
	.st4{fill:none;stroke:#FFFFFF;stroke-width:3;stroke-linecap:round;stroke-linejoin:round;stroke-miterlimit:10;}
	.st5{fill:none;stroke:#BDC5D1;stroke-width:3;stroke-linecap:round;stroke-linejoin:round;stroke-miterlimit:10;}
	.st6{fill:#959814;stroke:#FFFFFF;stroke-width:3;stroke-miterlimit:10;}
	.st7{fill:#FFFFFF;}
	.st8{fill:#EEEEEE;}
	.st9{fill:#BBBBBB;}
</style>
<path id="Path_1" class="st0" d="M19.2,37.9h-1.4c-4.7,0-8.5,3.8-8.5,8.5c0,0,0,0,0,0v49.4c0,4.7,3.8,8.5,8.5,8.5c0,0,0,0,0,0h93.5
	c4.7,0,8.5-3.8,8.5-8.5c0,0,0,0,0,0V46.5c0-4.7-3.8-8.5-8.5-8.5c0,0,0,0,0,0h-6.2"/>
<path id="Path_2" class="st1" d="M11.6,27.1h-1.4c-4.7,0-8.5,3.8-8.5,8.5c0,0,0,0,0,0V85c0,4.7,3.8,8.5,8.5,8.5c0,0,0,0,0,0h93.5
	c4.7,0,8.5-3.8,8.5-8.5c0,0,0,0,0,0V35.6c0-4.7-3.8-8.5-8.5-8.5c0,0,0,0,0,0h-6.2"/>
<path id="Path_3" class="st1" d="M13.3,34.6l-2.8-22.5L91,1.5L92.9,16"/>
<path id="Path_4" class="st2" d="M16.3,38.7V16h81.2v22.7"/>
<path id="Path_5" class="st0" d="M94.3,37.4V26.5c-3.1-0.1-5.6-2.6-5.5-5.7c0,0,0,0,0-0.1v-0.1h-56v0.1c0.1,3.1-2.4,5.7-5.5,5.8
	v10.9"/>
<path id="Path_6" class="st3" d="M90.5,40.1V29.6c-3,0-5.5-2.4-5.5-5.5c0,0,0,0,0,0V24H29v0.1c0,3-2.4,5.5-5.5,5.5c0,0,0,0,0,0v10.5
	"/>
<path id="Path_7" class="st4" d="M68.1,40.1c-2-6.2-8.7-9.5-14.9-7.5c-3.6,1.2-6.3,4-7.5,7.5"/>
<line id="Line_1" class="st5" x1="102.9" y1="38.7" x2="11" y2="38.7"/>
<path id="Path_8" class="st1" d="M41.5,93.6V78.4l-40-14.9v21.6c0,4.6,3.7,8.4,8.4,8.4c0,0,0,0,0,0L41.5,93.6L41.5,93.6z"/>
<circle id="Ellipse_1" class="st0" cx="84.8" cy="79.7" r="26.3"/>
<circle id="Ellipse_2" class="st6" cx="92.7" cy="85.4" r="26.3"/>
<g id="ethereum" transform="translate(80.133 70.073)">
	<path id="Path_1-2" class="st7" d="M13.2-3.4v-0.2L13,23.1l0.3,0.3l11.9-7L13.2-3.4z"/>
	<path id="Path_2-2" class="st7" d="M12.6-3.4L0.7,16.3l11.9,7V-3.4z"/>
	<path id="Path_3-2" class="st7" d="M13.2,23.8L13.1,24v9.1l0.1,0.4l11.9-16.8L13.2,23.8z"/>
	<path id="Path_4-2" class="st7" d="M12.6,33.5v-9.7l-11.9-7L12.6,33.5z"/>
	<path id="Path_5-2" class="st8" d="M13.1,23.4l12-7l-12-5.4V23.4z"/>
	<path id="Path_6-2" class="st9" d="M0.7,16.3l11.9,7V10.9L0.7,16.3z"/>
</g>
</svg>
