<svg id="Layer_1" data-name="Layer 1" xmlns="http://www.w3.org/2000/svg" viewBox="0 0 100 100"><defs><style>.cls-1{fill:#959814;}.cls-2{fill:#bdc5d1;}</style></defs><path class="cls-1" d="M39.18,59.77c1.8-2.46,3.61-4.92,5.4-7.39l5.81-8.05c.75-1,1.43-1,2.17,0q4.11,5.76,8.21,11.53c.79,1.1,1.46,1.08,2.22-.07l3.76-5.74C67.45,49,68.21,49,69,50L87.29,75.58c.66.92,1.32,1.85,2,2.76a1.58,1.58,0,0,1,.2,1.7c-.27.59-.81.67-1.4.66q-9.8,0-19.59,0l-.83,0c-.27,0-.55,0-.83,0H26.89a1.21,1.21,0,0,1-1.23-.59,1.48,1.48,0,0,1,0-1.58l.23-.34,8.33-11.53C35.91,64.37,37.54,62.07,39.18,59.77Z"/><path class="cls-2" d="M39.18,59.77c-1.64,2.3-3.27,4.6-4.92,6.89L25.93,78.19l-.23.34a1.48,1.48,0,0,0,0,1.58,1.21,1.21,0,0,0,1.23.59H66.83c.28,0,.56,0,.83,0q2.55,3.27,5.09,6.55c.34.44.76.89.48,1.55a1.28,1.28,0,0,1-1.37.8q-26.88,0-53.77,0c-2.15,0-4.31,0-6.46,0A1.08,1.08,0,0,1,10.49,89a1.31,1.31,0,0,1,.17-1.42q3.63-4.57,7.23-9.17c2.44-3.12,4.86-6.25,7.31-9.37q4.05-5.13,8.12-10.23c.56-.7,1.1-1.41,1.66-2.12a1,1,0,0,1,1.66-.12A33.7,33.7,0,0,1,39.18,59.77Z"/><path class="cls-1" d="M14.87,49.52a1,1,0,0,1-.68-.29l-1.93-1.7c-.62-.57-.64-1-.07-1.6l16.4-19c1.76-2,3.51-4.07,5.26-6.1.75-.86,1-.88,1.89-.16.56.48,1.14.95,1.69,1.44s.64,1,.12,1.54L21.91,41.75,15.66,49C15.44,49.27,15.25,49.52,14.87,49.52Z"/><path class="cls-1" d="M43.63,17.08a.75.75,0,0,1-.25.56c-.87,1-1.76,2-2.62,3-.34.39-.64.45-1,.09Q38.12,19.33,36.47,18a.68.68,0,0,1-.08-1.12c.87-1,1.74-2,2.58-3a.77.77,0,0,1,1.29-.07c1,.89,2,1.75,2.94,2.63C43.41,16.59,43.64,16.76,43.63,17.08Z"/><path class="cls-2" d="M30.15,10.37a11.88,11.88,0,0,1,6.62,2.3c.34.24.44.53.15.88s-.71.91-1.08,1.35-.86.28-1.28,0a14,14,0,0,0-4.08-2,7.74,7.74,0,0,0-4.76,0c-.44.15-.86.15-1.06-.33s.14-.76.54-1A11.3,11.3,0,0,1,30.15,10.37Z"/><path class="cls-2" d="M46.55,29.38A10.54,10.54,0,0,0,44,23.2,16.23,16.23,0,0,0,42.87,22a.63.63,0,0,1-.17-.81A14.59,14.59,0,0,1,44,19.58a.6.6,0,0,1,.92.05,11.64,11.64,0,0,1,3.36,6.89,11.63,11.63,0,0,1-.32,3.95,3.27,3.27,0,0,1-.34.9.58.58,0,0,1-.79.24.57.57,0,0,1-.35-.68A7.8,7.8,0,0,0,46.55,29.38Z"/><path class="cls-2" d="M66.55,13.71A2.84,2.84,0,0,1,68.45,15a.72.72,0,0,1-.2.82.9.9,0,0,1-1.07.23,4,4,0,0,1-1.28-1,.75.75,0,0,1-.06-.91C66,13.84,66.26,13.66,66.55,13.71Z"/><path class="cls-2" d="M77.81,28.6c0,.81-.27,1.21-.79,1.24s-1-.47-1-1.16a6.34,6.34,0,0,0-.07-.75.82.82,0,0,1,.72-1.05.79.79,0,0,1,1,.64A2.22,2.22,0,0,1,77.81,28.6Z"/><path class="cls-2" d="M71.11,20.13a2.59,2.59,0,0,1-1.79-1.71c0-.38.23-.58.49-.78a.62.62,0,0,1,.83,0,13,13,0,0,1,1.17,1.18.69.69,0,0,1,0,.84A.9.9,0,0,1,71.11,20.13Z"/><path class="cls-2" d="M72,37.05c.51,0,.8.17,1,.53a.8.8,0,0,1-.14.9,8,8,0,0,1-.82.93.83.83,0,0,1-1.13.12c-.38-.29-.6-.66-.3-1.13S71.38,37.21,72,37.05Z"/><path class="cls-2" d="M57.53,12.27a.69.69,0,0,1-.57.79c-.35.1-.69.25-1,.34a.84.84,0,0,1-1.14-.59.82.82,0,0,1,.54-1.11,3.49,3.49,0,0,1,1.32-.35C57.25,11.36,57.52,11.62,57.53,12.27Z"/><path class="cls-2" d="M73.36,22.61a.84.84,0,0,1,.54-.75.76.76,0,0,1,.89.15,3.53,3.53,0,0,1,.89,1.37.79.79,0,0,1-.29.92.68.68,0,0,1-.81.19A3.81,3.81,0,0,1,73.36,22.61Z"/><path class="cls-2" d="M76.43,33.32a3.63,3.63,0,0,1-.7,1.55.87.87,0,0,1-1.08.19A.81.81,0,0,1,74.23,34a5.53,5.53,0,0,1,.62-1.24.68.68,0,0,1,.89-.33A1,1,0,0,1,76.43,33.32Z"/><path class="cls-2" d="M50,15.76A3,3,0,0,1,51.52,14a.87.87,0,0,1,.8.45.66.66,0,0,1,0,.89c-.37.41-.76.8-1.16,1.18a.59.59,0,0,1-.71.05A.79.79,0,0,1,50,15.76Z"/><path class="cls-2" d="M63.36,12.44a.81.81,0,0,1-1,.86,6.17,6.17,0,0,1-1.27-.3.85.85,0,0,1,.29-1.65A3.79,3.79,0,0,1,63,11.8.79.79,0,0,1,63.36,12.44Z"/></svg>