<svg id="Layer_1" data-name="Layer 1" xmlns="http://www.w3.org/2000/svg" viewBox="0 0 100 100"><defs><style>.cls-1{fill:#bcc4d0;}.cls-2{fill:#949713;}.cls-3{fill:#dde1e7;}.cls-4{fill:#959813;}.cls-5{fill:#fefefe;}</style></defs><path class="cls-1" d="M80.46,46.81a31.64,31.64,0,0,0-1.67-7.42,1.48,1.48,0,0,0-.4-.64l-.1,0h0a.14.14,0,0,0-.14,0,5.68,5.68,0,0,0-1.41,2.38h0s0,.07,0,.1l0,.08h0a31.57,31.57,0,0,1,1.36,9.46V51A30.76,30.76,0,0,1,77,59a.8.8,0,0,1-.9.67c-1.06,0-2.13,0-3.19,0s-2,0-3,0a1.22,1.22,0,0,0,0,2.44,6.6,6.6,0,0,0,.77,0c1.53,0,3.06,0,4.59,0,.58,0,.66.13.43.66s-.38,1-.61,1.4A31.64,31.64,0,0,1,62.06,78a30.06,30.06,0,0,1-6.2,2.67c.46-.49.91-.88,1.31-1.34S58,78.46,58.32,78a39.1,39.1,0,0,0,6.82-16.26A49.49,49.49,0,0,0,66,55.19c.11-1.8.28-3.61.21-5.41-.08-2.1-.15-4.21-.43-6.3l0-.25h0a.78.78,0,0,1,0-.16,17.49,17.49,0,0,0-1.84-3,.41.41,0,0,0-.4-.21.34.34,0,0,0-.14,0,1.33,1.33,0,0,0-.45,1.55,36.4,36.4,0,0,1,.69,6.07,66.51,66.51,0,0,1-.21,8.81,48.58,48.58,0,0,1-3.2,13.18,25.77,25.77,0,0,1-6.13,9.34,12.06,12.06,0,0,1-5.38,3c-.94.24-1,.17-1-.82V63.23c0-1,0-1.07,1.11-1.08h9.38a6.76,6.76,0,0,0,.9,0,1.24,1.24,0,0,0,0-2.45,5.42,5.42,0,0,0-.9,0H48.67c-.93,0-1-.07-1-1V42.27c0-.9.07-1,1-1H56.1c1.37,0,2.74,0,4.1,0a1.23,1.23,0,0,0,1.28-1,1.31,1.31,0,0,0-1-1.37,4,4,0,0,0-1-.08H48.84c-.23,0-.46,0-.69,0a.46.46,0,0,1-.48-.49c0-.25,0-.5,0-.76V20.79c0-2,0-2,2-1.34a13.25,13.25,0,0,1,4.86,3.15,1.48,1.48,0,0,0,1.25.6h.07a1,1,0,0,0,.19-.72c0-.62,0-1.23,0-1.85a.43.43,0,0,0-.13-.27.08.08,0,0,0,0,0c-.18-.15-.46-.18-.6-.35.2.08.4.27.63.18h0l.13-.09a4.06,4.06,0,0,0,.39-2l-.33-.12a34.9,34.9,0,0,0-17.84-.34A34,34,0,0,0,16.56,34.49,34,34,0,0,0,45,84.45a33,33,0,0,0,8-.63A34,34,0,0,0,72.5,72.37a33.9,33.9,0,0,0,5.37-8.87A32.49,32.49,0,0,0,80.39,52c0-1.5,0-3,0-4.51A1.06,1.06,0,0,0,80.46,46.81Zm-35.73-28c.6-.12.65.05.65.55,0,3.18,0,6.35,0,9.52s0,6.25,0,9.38c0,.56-.13.76-.72.75-2.36,0-4.73,0-7.09,0a1.09,1.09,0,0,0-1.23.78c-.22.79.21,1.3,1,1.31,2.43,0,4.87,0,7.3,0,.54,0,.71.14.7.7,0,5.79,0,11.58,0,17.37,0,.56-.18.69-.71.69q-7.12,0-14.25,0c-.52,0-.7-.2-.76-.65-.28-2.19-.48-4.4-.61-6.61-.1-1.74,0-3.46.05-5.19a51.08,51.08,0,0,1,.58-5.64c.06-.47.24-.73.8-.67a12.19,12.19,0,0,0,1.6,0c.68,0,1-.31,1-.93a1.05,1.05,0,0,0-1-1.15A5.17,5.17,0,0,0,31,39c-.63.08-.8-.13-.64-.75A46.77,46.77,0,0,1,33,30.47a26.58,26.58,0,0,1,4.89-7.6A12.93,12.93,0,0,1,44.73,18.83ZM17.05,38.38a32.06,32.06,0,0,1,8.89-12.15,31.3,31.3,0,0,1,11.23-6.14c.15-.05.29-.17.46-.07,0,.21-.2.3-.33.42A29.63,29.63,0,0,0,30,32a44,44,0,0,0-1.86,6.45.67.67,0,0,1-.79.63q-4.93,0-9.87,0C17,39,16.83,38.92,17.05,38.38ZM15.91,59.29a36.13,36.13,0,0,1-1.15-6.46,31.71,31.71,0,0,1,1.12-11c.14-.51.34-.73.89-.72q5.07,0,10.14,0c.57,0,.74.18.65.72a53.1,53.1,0,0,0-.66,10,49,49,0,0,0,.65,7.36c.09.51-.05.7-.6.69-1.74,0-3.47,0-5.21,0s-3.38,0-5.06,0A.66.66,0,0,1,15.91,59.29ZM31.12,78.37a31.49,31.49,0,0,1-7.32-5.55A32.54,32.54,0,0,1,17,62.51c-.19-.46-.08-.57.38-.56q5,0,10.08,0c.45,0,.59.2.67.6a44.42,44.42,0,0,0,2.41,7.87,28.7,28.7,0,0,0,6.74,10.22c.09.08.15.17.23.25A24.3,24.3,0,0,1,31.12,78.37Zm13.45,3.85A12.26,12.26,0,0,1,39,79.32a26.76,26.76,0,0,1-6.89-10.67,41.91,41.91,0,0,1-1.82-6.1c-.11-.46-.06-.61.44-.61q7,0,14,0c.55,0,.58.25.58.68,0,3.19,0,6.39,0,9.58s0,6.25,0,9.38C45.4,82.31,45.14,82.35,44.57,82.22Z"/><path class="cls-2" d="M76.34,22.58a5.8,5.8,0,0,1-11.59.05,5.8,5.8,0,0,1,11.59-.05Z"/><path class="cls-2" d="M85.29,20.12A8.93,8.93,0,0,0,84,16.49c-.13-.24-.28-.48-.4-.72A14.82,14.82,0,0,0,66.44,8.33a14.63,14.63,0,0,0-10,9.68c-.18.7-.35,1.39-.52,2.09l0,0a.26.26,0,0,0,0,.17.36.36,0,0,0,0,.09,17,17,0,0,0-.13,2.76l0,0c-.15.22-.06.45,0,.68a19,19,0,0,0,1,3.53,67.32,67.32,0,0,0,5.6,10.75,7.42,7.42,0,0,0,1.17,1.73l.09.08c.74,1,1.39,2,2,3.07a.34.34,0,0,0,0,.26l.11.18q1.64,2.52,3.43,4.91a1.52,1.52,0,0,0,1.16.65h.13a2.1,2.1,0,0,0,1.53-.88c1.49-2.08,3-4.17,4.4-6.32a2.26,2.26,0,0,0,.3-.52h0a.75.75,0,0,0,0-.22h0l1.52-2.38h0a1.05,1.05,0,0,0,.51-.53,65.18,65.18,0,0,0,5.63-10.92A12,12,0,0,0,85.29,20.12ZM70.55,30.53a7.93,7.93,0,1,1,7.9-7.9A7.92,7.92,0,0,1,70.55,30.53Z"/><path class="cls-3" d="M78.29,38.71A94.81,94.81,0,0,0,83.05,30a33.29,33.29,0,0,0,1.85-4.84,12.36,12.36,0,0,0-.51-7.67c-.11-.34-.25-.69-.38-1a10.28,10.28,0,0,1,2.73,2.73A15.12,15.12,0,0,1,89.55,26a12.27,12.27,0,0,1-.77,6.23,69.59,69.59,0,0,1-7,13.22,12.3,12.3,0,0,1-1.4,2c-.3-1.53-.42-3.08-.8-4.6A25.33,25.33,0,0,0,78.29,38.71Z"/><path class="cls-2" d="M45.27,92.24a41.34,41.34,0,0,1-18.44-4.92c-.76-.41-1-1-.66-1.57s.92-.72,1.67-.32A38.92,38.92,0,0,0,46.12,90.1a2.7,2.7,0,0,1,.49,0,1.06,1.06,0,0,1-.08,2.1C46.14,92.27,45.74,92.24,45.27,92.24Z"/><path class="cls-3" d="M16,22.49a1,1,0,0,1,.34-.86,44.94,44.94,0,0,1,9-7.17,1.13,1.13,0,0,1,1.65.21c.36.55.19,1.12-.5,1.56A43.74,43.74,0,0,0,18,23a1.2,1.2,0,0,1-1.43.39A.82.82,0,0,1,16,22.49Z"/><path class="cls-4" d="M81.33,73.18A1.65,1.65,0,0,1,81,74a46.21,46.21,0,0,1-4.7,5.73c-.64.66-1.25.72-1.75.21s-.38-1.08.21-1.7a43.37,43.37,0,0,0,4.52-5.52,1.07,1.07,0,0,1,1.23-.55A1.08,1.08,0,0,1,81.33,73.18Z"/><path class="cls-3" d="M35.17,12.49a.88.88,0,0,1-1.05-.7,1,1,0,0,1,.75-1.36c1.2-.34,2.41-.6,3.62-.89a5.19,5.19,0,0,1,1.3-.15.91.91,0,0,1,1,.8,1,1,0,0,1-.63,1.18C38.49,11.78,36.83,12.12,35.17,12.49Z"/><path class="cls-4" d="M60.18,89.88a1,1,0,0,1-1-.78.94.94,0,0,1,.49-1.18c1.44-.66,2.9-1.3,4.38-1.9a1,1,0,0,1,1.23.51.91.91,0,0,1-.26,1.3,29.11,29.11,0,0,1-4.68,2A.57.57,0,0,1,60.18,89.88Z"/><path class="cls-3" d="M11.38,31a1,1,0,0,1-.93-1.52,19.38,19.38,0,0,1,2-3.13.89.89,0,0,1,1.34-.2,1,1,0,0,1,.37,1.38c-.62,1.05-1.3,2.06-1.95,3.09C12,31,11.68,30.94,11.38,31Z"/><path class="cls-3" d="M78.3,50.83l-.19.19a21.34,21.34,0,0,0-1.7,2.33c-.9,1.25-2,1.31-2.94.08-1-1.38-2-2.79-2.93-4.18a2,2,0,0,1-.1-.21l-.06-.17a2.19,2.19,0,0,0,1.73-1.1c1.52-2.23,3.08-4.44,4.63-6.65h0l0,0h0a7.13,7.13,0,0,1,.8,2.53A30.16,30.16,0,0,1,78.3,50.83Z"/><path class="cls-5" d="M76.34,22.58a5.8,5.8,0,0,1-11.59.05,5.8,5.8,0,0,1,11.59-.05Z"/><path class="cls-2" d="M76.34,22.58a5.8,5.8,0,0,1-11.59.05,5.8,5.8,0,0,1,11.59-.05Z"/></svg>