<svg id="Layer_1" data-name="Layer 1" xmlns="http://www.w3.org/2000/svg" viewBox="0 0 100 100"><defs><style>.cls-1{fill:#bcc4d0;}.cls-2{fill:#949713;}.cls-3{fill:#f2f4f8;}.cls-4{fill:#dde1e7;}.cls-5{fill:#fefefe;}</style></defs><path class="cls-1" d="M81,49.64V85.22a3.21,3.21,0,0,0,6.39.57c0-.26,0-.51,0-.77q0-33.94,0-67.9c0-.3.19-.78-.17-.87a3.14,3.14,0,0,0-1.77,0c-.14.05-.13.24-.13.38s0,.41,0,.62V83.87a5.73,5.73,0,0,1,0,.83,1.11,1.11,0,0,1-2.2,0,3.29,3.29,0,0,1,0-.63V15.58c0-1.2.42-1.62,1.63-1.62s2.27,0,3.41,0,1.5.37,1.5,1.49v70.2a5.29,5.29,0,0,1-5.19,5.18H29.88c-.93,0-1.3-.31-1.29-1.06s.45-1.06,1.33-1.06H79.19c.42,0,.62,0,.32-.51a5.63,5.63,0,0,1-.74-2.91q0-35.21,0-70.41a1.76,1.76,0,0,0-.63-1.51,6.13,6.13,0,0,1-1.08-1.08c-.4-.53-.73-.37-1.13,0-.71.63-1.43,1.23-2.15,1.86a1.22,1.22,0,0,1-1.92-.06c-.62-.62-1.26-1.23-1.86-1.88-.28-.3-.45-.26-.71,0-.6.64-1.23,1.25-1.86,1.87a1.2,1.2,0,0,1-2,0c-.63-.62-1.26-1.23-1.86-1.88-.28-.3-.45-.26-.72,0-.6.64-1.23,1.25-1.86,1.87a1.2,1.2,0,0,1-2,0c-.58-.57-1.17-1.13-1.71-1.73-.35-.38-.58-.47-1,0-.53.61-1.13,1.17-1.71,1.73a1.21,1.21,0,0,1-2,0c-.62-.62-1.26-1.23-1.86-1.87-.3-.32-.49-.3-.77,0-.62.66-1.27,1.29-1.92,1.92a1.17,1.17,0,0,1-1.87,0c-.62-.59-1.23-1.19-1.81-1.82-.33-.37-.55-.44-.91,0-.57.64-1.2,1.22-1.81,1.82a1.16,1.16,0,0,1-1.87,0c-.65-.62-1.29-1.26-1.91-1.92-.27-.28-.44-.3-.71,0-.6.64-1.24,1.25-1.86,1.87a1.22,1.22,0,0,1-2,0c-.62-.59-1.24-1.19-1.81-1.82-.32-.35-.51-.31-.81,0-.6.65-1.24,1.26-1.86,1.88a1.2,1.2,0,0,1-1.88,0c-.62-.61-1.26-1.22-1.86-1.87-.32-.35-.52-.32-.81,0a7.19,7.19,0,0,1-.77.68,2.4,2.4,0,0,0-1,2.06q0,23,0,46a4.57,4.57,0,0,1,0,.83,1,1,0,0,1-1.27.89,1,1,0,0,1-.91-1.11v-4.3q0-21.69,0-43.37a2,2,0,0,1,.69-1.63c.92-.81,1.75-1.72,2.63-2.58a1.29,1.29,0,0,1,2.15,0c.61.6,1.22,1.2,1.82,1.82.22.24.37.25.6,0,.63-.65,1.27-1.28,1.92-1.92a1.25,1.25,0,0,1,1.95,0c.61.6,1.24,1.19,1.81,1.83.34.38.54.32.86,0,.56-.62,1.17-1.19,1.76-1.78a1.25,1.25,0,0,1,2,0c.56.56,1.16,1.08,1.66,1.68s.72.43,1.12,0,1-1,1.51-1.54a1.37,1.37,0,0,1,2.25,0c.54.63,1.19,1.17,1.76,1.78.27.3.45.28.72,0,.64-.68,1.3-1.32,2-2a1.13,1.13,0,0,1,1.76,0c.66.65,1.32,1.3,2,2,.27.29.45.28.73,0,.6-.64,1.23-1.25,1.86-1.88a1.25,1.25,0,0,1,2,0c.63.58,1.23,1.19,1.82,1.82.29.32.49.37.81,0,.59-.65,1.23-1.25,1.86-1.87a1.23,1.23,0,0,1,1.84,0c.65.62,1.3,1.26,1.91,1.92.29.3.46.34.76,0,.56-.61,1.17-1.19,1.77-1.77a1.28,1.28,0,0,1,2.14,0c.6.58,1.2,1.16,1.77,1.77.3.34.53.33.85.05.77-.68,1.55-1.33,2.32-2a1.22,1.22,0,0,1,1.85,0c1,1,2,2,3.07,3A1.6,1.6,0,0,1,81,13.91V49.64Z"/><path class="cls-2" d="M34,33.39a5.56,5.56,0,0,1-3.69-4.47,5.41,5.41,0,0,1,5.16-6.18q14.73,0,29.44,0c2.76,0,4.89,2.11,5.26,5.11a2,2,0,0,1,.09,1.49,5.75,5.75,0,0,1-5.65,4.56H36.42a12.36,12.36,0,0,1-1.73-.17A1,1,0,0,1,34,33.39Z"/><path class="cls-1" d="M34,55.78a6,6,0,0,1-3.3-3.08,5.47,5.47,0,0,1,3.88-7.48,8.47,8.47,0,0,1,1.51-.13H64.6a5.45,5.45,0,0,1,5.58,5.14,1.72,1.72,0,0,1,.17,1.07,5.58,5.58,0,0,1-5.26,4.84H35.46A2,2,0,0,1,34,55.78Z"/><path class="cls-1" d="M34,77.35a5.44,5.44,0,0,1-2.34-8.82,4.76,4.76,0,0,1,3.65-1.75q14.91,0,29.81,0a5.34,5.34,0,0,1,5,5A3.08,3.08,0,0,1,70,74.39a5.39,5.39,0,0,1-5,3.42c-2.31.07-4.62,0-6.94,0q-11,0-22.07,0A2.31,2.31,0,0,1,34,77.35Z"/><path class="cls-3" d="M34,55.78a16.59,16.59,0,0,0,3.45.15c8.93,0,17.87-.1,26.8.06,3.55.06,6.19-2.8,5.91-5.76a5.22,5.22,0,0,1,3.68,4.37,5.35,5.35,0,0,1-3.47,5.9,4.6,4.6,0,0,1-1.69.3c-9.89,0-19.78,0-29.67,0a4.75,4.75,0,0,1-4.22-2.59A4.23,4.23,0,0,1,34,55.78Z"/><path class="cls-3" d="M34,77.35a6.59,6.59,0,0,0,1.77.26H64.65a5.3,5.3,0,0,0,5.51-5.49c0-.12,0-.23,0-.35a8.37,8.37,0,0,1,2.38,1.62,5.5,5.5,0,0,1-1.23,8.29,6.12,6.12,0,0,1-3.11.81c-9.54,0-19.08,0-28.62,0A5.46,5.46,0,0,1,34,77.35Z"/><path class="cls-4" d="M34,33.39a13,13,0,0,0,3.18.24H64.49a5.4,5.4,0,0,0,5.6-4.41,10.55,10.55,0,0,0,.1-1.38,5.46,5.46,0,0,1,2.73,8.34,5,5,0,0,1-4.24,2.23H39.23A5.33,5.33,0,0,1,34,33.39Z"/><path class="cls-4" d="M18.42,76.08H11.68c-1,0-1.29-.27-1.3-1s.42-1.17,1.31-1.18c1.57,0,3.15,0,4.72,0H25a1.62,1.62,0,0,1,1.17.32,1,1,0,0,1,.35,1.17,1,1,0,0,1-1.11.73Z"/><path class="cls-4" d="M16.09,68.3h4.37c.88,0,1.32.38,1.33,1.14s-.45,1.08-1.31,1.08H11.67c-.85,0-1.28-.39-1.29-1.1s.43-1.12,1.27-1.12Z"/><path class="cls-4" d="M13.15,79.55c1.1-.09,2.35.21,3.63.15.81,0,1.25.35,1.25,1a1.12,1.12,0,0,1-1.24,1.18c-.49,0-.95-.15-1.44-.14-1.23,0-2.46,0-3.69,0-.84,0-1.27-.39-1.28-1.11s.43-1.1,1.27-1.12Z"/><path class="cls-4" d="M23.84,81.78c-.55,0-1.11,0-1.66,0a1,1,0,0,1-1.09-1.07,1.06,1.06,0,0,1,1.12-1.14c1.06,0,2.13,0,3.19,0a1.18,1.18,0,0,1,1.24,1.14,1.15,1.15,0,0,1-1.27,1.08Z"/><path class="cls-5" d="M50.21,27h8.54c.94,0,1.41.39,1.42,1.14s-.52,1.24-1.43,1.24H41.67c-.86,0-1.4-.48-1.4-1.2s.5-1.18,1.4-1.18Z"/><path class="cls-5" d="M50.23,49.38h8.54c.93,0,1.39.39,1.38,1.16s-.52,1.2-1.39,1.2H41.67a1.27,1.27,0,0,1-1.4-1.22c0-.75.48-1.14,1.42-1.14Z"/><path class="cls-5" d="M50.28,70.94h8.54a1.23,1.23,0,0,1,1.33,1.13,1.24,1.24,0,0,1-1.21,1.33,3.47,3.47,0,0,1-.56,0H42a2.4,2.4,0,0,1-1-.12,1.2,1.2,0,0,1,0-2.24,2.37,2.37,0,0,1,.88-.12Z"/></svg>