<svg id="Layer_1" data-name="Layer 1" xmlns="http://www.w3.org/2000/svg" viewBox="0 0 100 100"><defs><style>.cls-1{fill:#403500;}.cls-2{fill:#4d4d4d;}.cls-3{fill:#fed200;}.cls-4{fill:#060500;}.cls-5{fill:#131000;}.cls-6{fill:#141202;}.cls-7{fill:#191919;}</style></defs><path class="cls-1" d="M50.39,11.07,64,20.59,80.86,32.37l.54.39L56.75,50,81.41,67.3l-9.3,6.51L50.85,88.69c-.18.12-.31.34-.58.31a1.76,1.76,0,0,1-.06-.82q0-17.24,0-34.47a.51.51,0,0,1,0-.34,27.89,27.89,0,0,1,3-2.21c.37-.27.73-.56,1.12-.8s.46-.52.17-.9a2.9,2.9,0,0,1-.56-.86c0-.2,0-.41-.22-.55a3.31,3.31,0,0,1-.95-.95c-.15-.24-.4-.17-.62-.22a12.25,12.25,0,0,1-1.64-1.13.61.61,0,0,1-.31-.64q0-16.66,0-33.33C50.21,11.55,50,11.23,50.39,11.07Z"/><path class="cls-2" d="M50.39,11.07c-.19.25-.1.53-.1.8q0,16.77,0,33.54a14.43,14.43,0,0,1,0,2.71,1.64,1.64,0,0,1-.77.85c-.59.42-.58.45,0,.91.27.21.62.32.74.69a12,12,0,0,1,0,2.74.39.39,0,0,1-.24.26c-2.43,1.76-4.9,3.48-7.35,5.22l-6.26,4.43c-2.69,1.9-5.39,3.78-8,5.72-1.41,1-2.91,2-4.29,3.07-.22.18-.34,0-.44-.13-.69-.95-1.36-1.91-2.05-2.86-.25-.36.05-.51.26-.66l5.74-4.06Q37.79,57,48,49.8c.63-.45.31-.56-.07-.83Q34.53,39.49,21.09,30c-.51-.35-.55-.56-.17-1,.6-.76,1.15-1.57,1.68-2.38.26-.41.46-.43.85-.15q7.36,5.24,14.74,10.42l11.34,8,.64.44v-.88q0-16.36,0-32.73c0-.23-.13-.5.1-.7,0,0,0,0,.06,0Z"/><path d="M18.59,37.69l5.19,5.56c1.69,1.81,3.37,3.62,5.07,5.42.23.25.27.4,0,.67L18.74,60.18s-.07,0-.15,0Z"/><path class="cls-2" d="M50,53.57l.19-.15.09,0q0,17.67,0,35.35c0,.07,0,.14,0,.21-.2-.22-.09-.49-.09-.73q0-16.93,0-33.88C50.17,54.12,50.33,53.78,50,53.57Z"/><path class="cls-3" d="M74,67.3,54.49,81V53.64Z"/><path class="cls-3" d="M54.48,19.09,62,24.36c3.8,2.65,7.58,5.31,11.38,8,.46.32.62.46,0,.87Q64.18,39.6,55,46.06l-.51.34Z"/><path class="cls-4" d="M52.21,46.79a.5.5,0,0,1,.73.23,1.94,1.94,0,0,0,.8.83.54.54,0,0,1,.28.74c0,.43-.35.69-.56,1-.36.54-.74,1.06-1.11,1.58s-.61.64-1.19.24c-.34-.24-.81-.37-1-.85a6.24,6.24,0,0,1-.11-1.78,1.25,1.25,0,0,1,.6-1.1A4.78,4.78,0,0,1,52.21,46.79Z"/><path class="cls-5" d="M50.28,50.67a9.16,9.16,0,0,1,1,.64c.44.36.68.2,1-.21.58-.85,1.2-1.68,1.8-2.51C55.14,50,55.15,50,53.74,51c-1.1.79-2.22,1.54-3.34,2.31-.1,0-.19,0-.19-.13A15,15,0,0,1,50.28,50.67Z"/><path class="cls-6" d="M50.28,50.67a10.16,10.16,0,0,0,.12,2.64l-.12.13-.09,0c0-1,0-2-.07-3a2.35,2.35,0,0,1,0-2.1c0-.75,0-1.51,0-2.27,0-.22-.08-.46.13-.64l1.93,1.38c-.05,0-.09.11-.15.13A3,3,0,0,0,50.28,50.67Z"/><path class="cls-7" d="M50.14,48.32c0,.7,0,1.4,0,2.1C48.43,49.56,48.43,49.56,50.14,48.32Z"/></svg>