<svg id="Layer_1" data-name="Layer 1" xmlns="http://www.w3.org/2000/svg" xmlns:xlink="http://www.w3.org/1999/xlink" viewBox="0 0 535 123"><defs><style>.cls-1{fill:url(#linear-gradient);}.cls-2{fill:url(#linear-gradient-2);}.cls-3{fill:#265104;}</style><linearGradient id="linear-gradient" x1="84.53" y1="83.49" x2="18.96" y2="17.92" gradientUnits="userSpaceOnUse"><stop offset="0" stop-color="#84cf00"/><stop offset="1" stop-color="#f1cf00"/></linearGradient><linearGradient id="linear-gradient-2" x1="99.35" y1="109.45" x2="63.04" y2="73.15" xlink:href="#linear-gradient"/></defs><title>Artboard 1</title><path class="cls-1" d="M25.79,58.5a5,5,0,0,1,.4-2A5.17,5.17,0,0,1,29,53.73a5.18,5.18,0,0,1,2-.39l8.59,0a5.17,5.17,0,0,1,5.16,5.17V91c1-.29,2.21-.6,3.57-.92a4.26,4.26,0,0,0,2.39-1.51,4.31,4.31,0,0,0,.93-2.67V45.63a5.16,5.16,0,0,1,5.16-5.17h8.61a5.16,5.16,0,0,1,5.16,5.17V83s2.16-.87,4.26-1.76a4.33,4.33,0,0,0,2.63-4V32.72a5.17,5.17,0,0,1,5.16-5.17H91.2a5.17,5.17,0,0,1,5.16,5.17V69.43c7.47-5.41,15-11.92,21-19.74a8.65,8.65,0,0,0,1.32-8.09A60.79,60.79,0,1,0,8.58,91.83a7.67,7.67,0,0,0,7.33,3.8c1.63-.14,3.66-.34,6.07-.62a4.3,4.3,0,0,0,3.81-4.27Z"/><path class="cls-2" d="M122,57.24C99.81,90.38,58.78,105.87,25.6,110.59h0a60.8,60.8,0,0,0,96.58-49.19C122.18,60,122.12,58.62,122,57.24Z"/><polygon class="cls-3" points="187.54 64.69 185.33 78.77 184.72 78.77 181.45 64.69 173.01 36.02 161.53 36.02 153.08 64.69 149.81 78.77 149.2 78.77 147 64.69 140.68 36.02 131.25 36.02 143.04 86.98 154.98 86.98 162.74 61.04 166.85 45.22 167.53 45.22 171.64 61.04 179.4 86.98 191.34 86.98 197.34 60.56 190.58 50 187.54 64.69"/><polygon class="cls-3" points="186.59 36.02 191.98 44.74 193.93 36.02 186.59 36.02"/><polygon class="cls-3" points="225.09 36.02 215.5 51.76 210.86 59.75 210.33 59.75 205.61 51.76 201.21 44.59 198.66 55.55 206.37 68.04 206.37 86.98 214.51 86.98 214.51 68.19 234.36 36.02 225.09 36.02"/><polygon class="cls-3" points="195.95 36.02 193.93 36.02 191.98 44.74 198.66 55.55 201.21 44.59 195.95 36.02"/><path class="cls-3" d="M236.34,87V80.14L265.78,44V43.4H237.87V36h38.94v6.84L247.3,79v.6H278V87Z"/><path class="cls-3" d="M285.49,75.34V56h-6.32V49.18h6.47l1.75-9.36h6.31v9.36h11.41V56H293.7V75c0,4,1.68,4.64,6.77,4.64h4.64v6.7a32.09,32.09,0,0,1-6.77.68C289.9,87,285.49,83.86,285.49,75.34Z"/><path class="cls-3" d="M311,87V36h8.21V55.49h.31c1.75-3.42,5.78-7.07,12.63-7.07,9.88,0,14.07,6.46,14.07,14.75V87H338V65.08c0-6.77-2.13-9.59-9.05-9.59-6.69,0-9.74,2.59-9.74,9.74V87Z"/><path class="cls-3" d="M352.6,73.29v-.16h8v1.38c0,4.13,1.83,5.66,9.1,5.66,6.13,0,7.27-1.37,7.27-4.21,0-3.06-1.83-4-7.42-5l-5.89-1c-6.81-1.23-11.1-4.29-11.1-11.18s5.67-11.47,15.61-11.47c9,0,15.69,4.43,15.69,13.08v.69h-7.88V60.2c0-3.52-1.23-6-8-6-6,0-7.5,1.6-7.5,4.51s1.38,3.75,6.74,4.82l6.43,1.23c7.34,1.45,11.17,4.74,11.17,11,0,7-5.59,11.17-15.23,11.17C358.41,86.91,352.6,82.55,352.6,73.29Z"/><path class="cls-3" d="M389.87,67.16c0-11.86,7-19.81,18.9-19.81,10,0,16.91,6.19,16.91,15.3v.69h-8.19v-.46c0-5.59-2.91-8.11-9.26-8.11-7.34,0-10.18,4.13-10.18,12.39s2.84,12.32,10.18,12.32c6.35,0,9.26-2.44,9.26-8V71h8.19v.69c0,9-7,15.3-17.22,15.3C396.6,87,389.87,79,389.87,67.16Z"/><path class="cls-3" d="M430.5,76.73c0-6.27,4.59-9.57,12.7-10.71l13.32-2V62c0-5.66-2.6-7.34-8.57-7.34s-8.42,1.91-8.42,7v1.15h-8V62c0-8.49,6.66-14.61,16.84-14.61,10.63,0,16,6.42,16,15.68V86.14h-7.65v-6h-.38c-2.22,3.6-6.58,6.74-13.78,6.74C435.78,86.91,430.5,83.39,430.5,76.73Zm14.77,3.6c5.36,0,11.25-2.15,11.25-9.8v-.69l-12.09,1.84c-4.36.61-5.89,1.61-5.89,4.44S440.45,80.33,445.27,80.33Z"/><path class="cls-3" d="M472.28,86.14v-38h7.58v7.12h.31c1.76-4.06,5.81-7.88,13.23-7.88,9.87,0,14.31,6.27,14.31,14.92V86.14h-8.26v-22c0-6.81-2.14-9.64-9.11-9.64-6.73,0-9.79,2.6-9.79,9.72v22Z"/></svg>