<svg id="Capa_1" data-name="Capa 1" xmlns="http://www.w3.org/2000/svg" viewBox="0 0 450 512"><defs><style>.cls-1{fill:#000;}</style></defs><path class="cls-1" d="M-675.52,183.46h0l-210-121a15,15,0,0,0-15,0l-210,121a15.08,15.08,0,0,0-7.51,13v240a15,15,0,0,0,7.51,13l210,121h0a15,15,0,0,0,15,0h0l210-121a15,15,0,0,0,7.51-13v-240A15.08,15.08,0,0,0-675.52,183.46ZM-908,531.5l-180-103.72V222.3l180,102.85Zm15-232.33-179.86-102.78L-893,92.76-713.17,196.4Zm195,128.61L-878,531.5V325.15L-698,222.3V427.78Z" transform="translate(1118.03 -60.45)"/></svg>