<svg xmlns="http://www.w3.org/2000/svg" xmlns:xlink="http://www.w3.org/1999/xlink" version="1.1" x="0px" y="0px" viewBox="0 0 100 125" enable-background="new 0 0 100 100" xml:space="preserve"><g><path d="M88.613,27.142L50.489,5.131c-0.303-0.175-0.675-0.175-0.979,0L11.387,27.142c-0.303,0.175-0.489,0.498-0.489,0.847V72.01   c0,0.352,0.186,0.674,0.489,0.848l38.124,22.012C49.663,94.957,49.831,95,50,95s0.338-0.043,0.489-0.131l38.122-22.012   c0.304-0.174,0.49-0.498,0.49-0.848V27.989C89.102,27.64,88.916,27.317,88.613,27.142z M50,7.108l36.167,20.881L50,48.87   L13.833,27.989L50,7.108z M12.855,29.684l36.167,20.88v41.763L12.855,71.445V29.684z M50.979,92.327V50.564l36.166-20.88v41.761   L50.979,92.327z"/></g><text x="0" y="115" fill="#000000" font-size="5px" font-weight="bold" font-family="'Helvetica Neue', Helvetica, Arial-Unicode, Arial, Sans-serif">Created by Juan Pablo Bravo</text><text x="0" y="120" fill="#000000" font-size="5px" font-weight="bold" font-family="'Helvetica Neue', Helvetica, Arial-Unicode, Arial, Sans-serif">from the Noun Project</text></svg>