<?xml version="1.0" encoding="UTF-8"?>
<svg id="Layer_1" data-name="Layer 1" xmlns="http://www.w3.org/2000/svg" viewBox="0 0 385.196 461.456">
  <g>
    <polyline points="198.104 6.467 192.908 3.467 187.72 6.482" style="fill: none; stroke: #010101; stroke-miterlimit: 10; stroke-width: 6px;"/>
    <line x1="177.269" y1="12.555" x2="15.276" y2="106.695" style="fill: none; stroke: #010101; stroke-dasharray: 0 0 12.088 12.088; stroke-miterlimit: 10; stroke-width: 6px;"/>
    <polyline points="10.051 109.732 4.863 112.747 4.816 118.746" style="fill: none; stroke: #010101; stroke-miterlimit: 10; stroke-width: 6px;"/>
    <line x1="4.724" y1="130.534" x2="3.107" y2="336.817" style="fill: none; stroke: #010101; stroke-dasharray: 0 0 11.788 11.788; stroke-miterlimit: 10; stroke-width: 6px;"/>
    <polyline points="3.061 342.711 3.014 348.711 8.21 351.711" style="fill: none; stroke: #010101; stroke-miterlimit: 10; stroke-width: 6px;"/>
    <line x1="18.732" y1="357.786" x2="181.831" y2="451.951" style="fill: none; stroke: #010101; stroke-dasharray: 0 0 12.15 12.15; stroke-miterlimit: 10; stroke-width: 6px;"/>
    <polyline points="187.092 454.989 192.288 457.989 197.476 454.974" style="fill: none; stroke: #010101; stroke-miterlimit: 10; stroke-width: 6px;"/>
    <line x1="207.927" y1="448.9" x2="369.92" y2="354.76" style="fill: none; stroke: #010101; stroke-dasharray: 0 0 12.088 12.088; stroke-miterlimit: 10; stroke-width: 6px;"/>
    <polyline points="375.145 351.724 380.333 348.709 380.38 342.709" style="fill: none; stroke: #010101; stroke-miterlimit: 10; stroke-width: 6px;"/>
    <line x1="380.472" y1="330.922" x2="382.089" y2="124.638" style="fill: none; stroke: #010101; stroke-dasharray: 0 0 11.788 11.788; stroke-miterlimit: 10; stroke-width: 6px;"/>
    <polyline points="382.135 118.745 382.182 112.745 376.986 109.745" style="fill: none; stroke: #010101; stroke-miterlimit: 10; stroke-width: 6px;"/>
    <line x1="366.464" y1="103.67" x2="203.365" y2="9.505" style="fill: none; stroke: #010101; stroke-dasharray: 0 0 12.15 12.15; stroke-miterlimit: 10; stroke-width: 6px;"/>
  </g>
  <g>
    <polyline points="192.286 452.978 192.286 458.978 192.286 452.978" style="fill: none; stroke: #010101; stroke-miterlimit: 10; stroke-width: 6px;"/>
    <line x1="192.286" y1="441.209" x2="192.286" y2="235.254" style="fill: none; stroke: #010101; stroke-dasharray: 0 0 11.769 11.769; stroke-miterlimit: 10; stroke-width: 6px;"/>
    <polyline points="192.286 229.369 192.286 223.369 192.286 229.369" style="fill: none; stroke: #010101; stroke-miterlimit: 10; stroke-width: 6px;"/>
    <line x1="192.286" y1="241.138" x2="192.286" y2="447.094" style="fill: none; stroke: #010101; stroke-dasharray: 0 0 11.769 11.769; stroke-miterlimit: 10; stroke-width: 6px;"/>
  </g>
  <path d="M150.38,77.041l.429-16.64h85.108s-.429,16.64-.429,16.64h-85.108ZM164.55,152.981l-15.82-11.984,70.956-76.625,15.802,12.668-70.938,75.941ZM148.301,157.637l.429-16.64h86.93l-.429,16.64h-86.93Z" style="fill: #010101; stroke-width: 0px;"/>
  <path d="M49.085,316.752l26.514-104.799,20.953,9.581,26.514,129.048-18.43-8.428-17.978-96.572-1.164-.532-17.978,80.131-18.431-8.428ZM62.471,300.724v-20.09l46.562,21.292v20.09l-46.562-21.292Z" style="fill: #010101; stroke-width: 0px;"/>
  <path d="M268.498,350.746v-99.196l14.489-7.138v99.196l-14.489,7.138ZM276.346,315.304l.988-18.999c22.175-11.171,29.97-40.782,30.13-63.953l14.708-7.246c-.207,33.144-14.763,74.507-45.827,90.198ZM308.013,331.278l-15.641-36.234,13.501-13.776,20.032,41.195-17.892,8.815Z" style="fill: #010101; stroke-width: 0px;"/>
  <g>
    <line x1="4.863" y1="112.747" x2="10.03" y2="115.796" style="fill: none; stroke: #010101; stroke-miterlimit: 10; stroke-width: 6px;"/>
    <line x1="20.447" y1="121.945" x2="181.911" y2="217.245" style="fill: none; stroke: #010101; stroke-dasharray: 0 0 12.096 12.096; stroke-miterlimit: 10; stroke-width: 6px;"/>
    <polyline points="187.119 220.319 192.286 223.369 197.471 220.349" style="fill: none; stroke: #010101; stroke-miterlimit: 10; stroke-width: 6px;"/>
    <line x1="208.031" y1="214.197" x2="371.718" y2="118.841" style="fill: none; stroke: #010101; stroke-dasharray: 0 0 12.222 12.222; stroke-miterlimit: 10; stroke-width: 6px;"/>
    <line x1="376.998" y1="115.765" x2="382.182" y2="112.745" style="fill: none; stroke: #010101; stroke-miterlimit: 10; stroke-width: 6px;"/>
  </g>
</svg>