<?xml version="1.0" encoding="utf-8"?>
<!-- Generator: Adobe Illustrator 27.0.0, SVG Export Plug-In . SVG Version: 6.00 Build 0)  -->
<svg version="1.1" id="Layer_1" xmlns="http://www.w3.org/2000/svg" xmlns:xlink="http://www.w3.org/1999/xlink" x="0px" y="0px"
	 viewBox="0 0 619.3 110.9" style="enable-background:new 0 0 619.3 110.9;" xml:space="preserve">
<style type="text/css">
	.st0{fill:#FFA2B1;}
	.st1{fill:#B1E410;}
	.st2{fill:#504DD8;stroke:#000000;stroke-width:0.75;stroke-miterlimit:10;}
	.st3{fill:#FFFFFF;}
</style>
<g>
	<g>
		<path class="st0" d="M59.4,103.6c0-16.4,0.1-46.1,0.1-48.8L101.5,31v48L59.4,103.6z"/>
		<path d="M101.1,31.6v47.1l-41.3,24.2c0-16.2,0.1-44.3,0.1-47.9L101.1,31.6 M101.8,30.4L59.2,54.5c-0.1,0-0.1,49.7-0.1,49.7
			l42.8-25.1V30.4L101.8,30.4z"/>
	</g>
	<g>
		<path class="st1" d="M16.8,79V31L59,54.9c0.2,2.6,0,35.3-0.1,48.7L16.8,79z"/>
		<path d="M17.2,31.6l41.5,23.4c0.2,3.3,0,29.5-0.1,47.9L17.2,78.7V31.6 M16.4,30.4v48.8l42.8,25.1c0,0,0.5-49.6,0.1-49.6
			c0,0,0,0,0,0L16.4,30.4L16.4,30.4z"/>
	</g>
	<polygon class="st2" points="101.8,30.4 59,54.6 16.4,30.4 58.8,4.6 	"/>
</g>
<g>
	<path class="st3" d="M122.2,73.4V33.3H137l9.3,23.2h1.3l9.3-23.2h14.7v40.2H162v-29h-0.9l-9.4,23.2h-9.6l-9.4-23.2h-0.9v29H122.2z"
		/>
	<path class="st3" d="M182,73.4V33.3h35.3v8.3h-25.6v7.7H211V57h-19.3v8.1h26.2v8.3H182z"/>
	<path class="st3" d="M225.4,73.4V33.3h30.4l7.5,7.5V53l-6.7,6.7l7.9,10.9v2.9h-9.5L246,60.8h-10.8v12.6H225.4z M235.2,52.9h15.4
		l2.9-2.9v-5.9l-2.9-2.9h-15.4V52.9z"/>
	<path class="st3" d="M273,73.4V33.3h9.8v15.6h7.1L301,33.3h9.6v3l-12.6,16.6l13.7,17.6v3h-10L290,57.4h-7.3v16.1H273z"/>
	<path class="st3" d="M318.2,73.4V33.3h9.8V65h21.9v8.5H318.2z"/>
	<path class="st3" d="M356.1,73.4V33.3h35.3v8.3h-25.6v7.7h19.3V57h-19.3v8.1H392v8.3H356.1z"/>
	<path class="st3" d="M405.6,73.4l-8.4-8.4V41.7l8.4-8.4h26.8v8.3h-22L407,45v16.6l3.4,3.4h22v8.3H405.6z"/>
	<path class="st3" d="M440.1,73.4V33.3h9.8v15.8h19.3V33.3h9.8v40.2h-9.8V57.6h-19.3v15.9H440.1z"/>
	<path class="st3" d="M514.7,33.3l15.8,37.3v2.9H521l-3.2-8.1h-20.1l-3.3,8.1h-9.2v-2.9l15.8-37.3H514.7z M501,57h13.5l-6-15.2h-1.3
		L501,57z"/>
	<path class="st3" d="M534.5,73.4v-7.6h8V40.9h-8v-7.6h25.8v7.6h-8v24.9h8v7.6H534.5z"/>
	<path class="st3" d="M568.5,73.4V33.3h14.9L598.7,63h1V33.3h9.3v40.2h-14.9l-15.3-29.7h-1v29.7H568.5z"/>
</g>
<g>
	<path class="st3" d="M487.8,94.7V82.8h10.5v2.5h-7.6v2.3h5.7v2.3h-5.7v2.4h7.8v2.5H487.8z"/>
	<path class="st3" d="M502.1,94.7v-0.9l4-5.3l-3.7-4.9v-0.9h2.9l2.7,3.7h0.3l2.7-3.7h2.8v0.9l-3.7,4.9l4,5.3v0.9h-2.8l-3-4.2h-0.3
		l-3,4.2H502.1z"/>
	<path class="st3" d="M518.6,94.7V82.8h8.9l2.2,2.2v4.2l-2.2,2.2h-6v3.3H518.6z M521.5,89h4.5l0.8-0.8v-2.1l-0.8-0.8h-4.5V89z"/>
	<path class="st3" d="M534.6,94.7V82.8h2.9v9.4h6.5v2.5H534.6z"/>
	<path class="st3" d="M550.2,94.7l-2.5-2.5v-6.9l2.5-2.5h7.2l2.5,2.5v6.9l-2.5,2.5H550.2z M551.6,92.3h4.4l1-1v-4.9l-1-1h-4.4l-1,1
		v4.9L551.6,92.3z"/>
	<path class="st3" d="M565.2,94.7V82.8h9l2.2,2.2v3.6l-2,2l2.3,3.2v0.9h-2.8l-2.6-3.7h-3.2v3.7H565.2z M568.1,88.6h4.6l0.8-0.8v-1.7
		l-0.8-0.9h-4.6V88.6z"/>
	<path class="st3" d="M581.8,94.7V82.8h10.5v2.5h-7.6v2.3h5.7v2.3h-5.7v2.4h7.8v2.5H581.8z"/>
	<path class="st3" d="M597.2,94.7V82.8h9l2.2,2.2v3.6l-2,2l2.3,3.2v0.9H606l-2.6-3.7h-3.2v3.7H597.2z M600.1,88.6h4.6l0.8-0.8v-1.7
		l-0.8-0.9h-4.6V88.6z"/>
</g>
</svg>
