<?xml version="1.0" encoding="utf-8"?>
<!-- Generator: Adobe Illustrator 28.0.0, SVG Export Plug-In . SVG Version: 6.00 Build 0)  -->
<svg version="1.0" id="Layer_1" xmlns="http://www.w3.org/2000/svg" xmlns:xlink="http://www.w3.org/1999/xlink" x="0px" y="0px"
	 viewBox="0 0 1341.74 378.06" style="enable-background:new 0 0 1341.74 378.06;" xml:space="preserve">
<style type="text/css">
	.st0{fill:#231F20;}
	.st1{fill:#891E1A;}
	.st2{fill:url(#SVGID_1_);}
	.st3{fill:url(#SVGID_00000121238248311353214570000001040083872779303867_);}
	.st4{fill:url(#SVGID_00000048460269771643922290000007558230417868791714_);}
	.st5{fill:url(#SVGID_00000174575037869781973700000003247245284605496718_);}
	.st6{fill:url(#SVGID_00000063631540154297007810000010344868905082106242_);}
	.st7{fill:url(#SVGID_00000034071465127008875250000007822305924665139612_);}
</style>
<g>
	<g>
		<g>
			<path class="st0" d="M225.42,164.35l-5.62,6.31c-27.56,8.78-53.44,33.08-53.44,33.08l-2.01-11.77l-40.96,23.47l2.46,28.27
				l13.53-6.55l0.37-2.97l25.54-18.31l-0.06,19.44c17.88-28.01,58.89-55.01,58.89-55.01l5.88,8.12
				c3.71-10.46,14.54-24.21,14.54-24.21L225.42,164.35z"/>
			<polygon class="st0" points="191.59,210.38 218.93,187.99 219.6,225.23 230.97,229.51 191.59,246.5 			"/>
			<g>
				<polygon class="st0" points="136.28,204.18 164.55,187.3 164.55,150.74 124.72,167.61 136.2,171.66 				"/>
				<path class="st0" d="M162.86,195.4c0,0-2.25,10.13-2.7,11.59c-0.45,1.46-21.38,6.08-21.38,6.08l-2.5-4.53l0.13,54.71l28.13-12.6
					v-57.13L162.86,195.4z"/>
			</g>
			<polygon class="st0" points="187.61,143.33 214.84,130.95 214.84,172.13 187.61,185.86 			"/>
			<path class="st1" d="M123.26,214.55l42.42-25.09l0.56,13.39c0,0,25.88-24.3,53.44-33.08l-5.74-6.08l30.26,0.68
				c0,0-10.58,13.16-14.29,23.63l-5.74-8.1c0,0-41.16,27.3-58.94,54.64l0.03-17.91l-39.54,27.07L123.26,214.55z"/>
			<linearGradient id="SVGID_1_" gradientUnits="userSpaceOnUse" x1="159.9209" y1="175.7736" x2="160.6068" y2="181.7183">
				<stop  offset="0" style="stop-color:#231F20"/>
				<stop  offset="0.1666" style="stop-color:#291F20"/>
				<stop  offset="0.3893" style="stop-color:#3A1F1F"/>
				<stop  offset="0.6437" style="stop-color:#561F1D"/>
				<stop  offset="0.9198" style="stop-color:#7C1E1B"/>
				<stop  offset="1" style="stop-color:#891E1A"/>
			</linearGradient>
			<polygon class="st2" points="164.55,187.32 155.47,176.56 164.55,176.56 			"/>
			
				<linearGradient id="SVGID_00000158727639509421647730000006164526141965340607_" gradientUnits="userSpaceOnUse" x1="-2297.2058" y1="153.049" x2="-2293.1733" y2="161.6048" gradientTransform="matrix(-1 -5.862198e-03 5.862198e-03 -1 -2100.8435 363.264)">
				<stop  offset="0" style="stop-color:#231F20"/>
				<stop  offset="1" style="stop-color:#891E1A"/>
			</linearGradient>
			<polygon style="fill:url(#SVGID_00000158727639509421647730000006164526141965340607_);" points="191.59,224.18 201.23,219.68 
				191.59,210.38 			"/>
			
				<linearGradient id="SVGID_00000146482858116824429090000009710399601049168830_" gradientUnits="userSpaceOnUse" x1="130.0823" y1="216.163" x2="126.9881" y2="236.9921">
				<stop  offset="0" style="stop-color:#231F20;stop-opacity:0"/>
				<stop  offset="1" style="stop-color:#231F20"/>
			</linearGradient>
			<path style="fill:url(#SVGID_00000146482858116824429090000009710399601049168830_);" d="M123.26,214.55c0,0,12.98,6.12,13.2,6.2
				c0.23,0.07-10.73,22.94-10.73,22.94L123.26,214.55z"/>
		</g>
		<path class="st1" d="M278.71,196.67c0,13.32,0.02,26.64-0.01,39.96c-0.03,11.1-4.82,19.52-14.43,25.08
			c-23.2,13.43-46.41,26.83-69.65,40.2c-9.62,5.53-19.32,5.54-28.94,0c-23.23-13.37-46.45-26.77-69.65-40.2
			c-9.61-5.57-14.42-13.99-14.43-25.08c-0.03-26.74-0.03-53.47,0-80.21c0.01-11.1,4.81-19.52,14.43-25.08
			c23.2-13.43,46.41-26.83,69.65-40.2c9.62-5.53,19.32-5.53,28.94,0c23.23,13.37,46.45,26.77,69.65,40.2
			c9.61,5.57,14.4,13.99,14.43,25.08C278.73,169.84,278.71,183.26,278.71,196.67z M96.43,196.58c0,13.32,0.04,26.64-0.02,39.95
			c-0.02,5.61,2.36,9.68,7.21,12.47c23.15,13.32,46.28,26.66,69.4,40.04c4.86,2.82,9.53,2.76,14.38-0.05
			c23.03-13.34,46.08-26.63,69.15-39.89c4.94-2.84,7.37-6.94,7.36-12.68c-0.05-26.54-0.06-53.08,0.01-79.62
			c0.01-5.85-2.41-10.01-7.46-12.91c-22.91-13.16-45.8-26.35-68.64-39.63c-5.27-3.06-10.16-3-15.41,0.05
			c-22.75,13.24-45.55,26.39-68.39,39.49c-5.16,2.96-7.67,7.14-7.62,13.11C96.51,170.14,96.43,183.36,96.43,196.58z"/>
	</g>
	<g>
		<path class="st1" d="M429.33,143.92v95.8h-15.71v-41.9h-45.07v41.9h-15.71v-95.8h15.71V185h45.07v-41.08H429.33z"/>
		<path class="st1" d="M519.07,207.61h-58.03c0.46,6.06,2.71,10.94,6.75,14.61c4.04,3.68,9,5.51,14.89,5.51
			c8.45,0,14.43-3.54,17.92-10.61h16.95c-2.3,6.98-6.46,12.71-12.47,17.16c-6.02,4.46-13.49,6.69-22.4,6.69
			c-7.26,0-13.76-1.63-19.5-4.89c-5.74-3.26-10.25-7.86-13.51-13.78c-3.26-5.93-4.89-12.8-4.89-20.61c0-7.81,1.59-14.68,4.75-20.61
			c3.17-5.93,7.63-10.5,13.37-13.71c5.74-3.22,12.34-4.83,19.78-4.83c7.17,0,13.55,1.56,19.16,4.69c5.6,3.12,9.97,7.51,13.09,13.16
			c3.12,5.65,4.69,12.15,4.69,19.5C519.62,202.74,519.43,205.31,519.07,207.61z M503.21,194.92c-0.09-5.79-2.16-10.43-6.2-13.92
			c-4.04-3.49-9.05-5.24-15.02-5.24c-5.42,0-10.06,1.72-13.92,5.17s-6.16,8.11-6.89,13.99H503.21z"/>
		<path class="st1" d="M550.77,137.72v102h-15.71v-102H550.77z"/>
		<path class="st1" d="M598.04,166.12c4.59-2.39,9.79-3.58,15.58-3.58c6.62,0,12.66,1.63,18.13,4.89
			c5.47,3.26,9.76,7.84,12.89,13.71c3.12,5.88,4.69,12.63,4.69,20.26c0,7.63-1.56,14.45-4.69,20.47
			c-3.12,6.02-7.42,10.71-12.89,14.06c-5.47,3.36-11.51,5.03-18.13,5.03c-5.79,0-10.94-1.17-15.44-3.52
			c-4.5-2.34-8.18-5.26-11.03-8.75v47.14h-15.71V163.77h15.71v11.16C589.82,171.45,593.45,168.51,598.04,166.12z M630.09,187.83
			c-2.16-3.81-5.01-6.71-8.55-8.68c-3.54-1.98-7.33-2.96-11.37-2.96c-3.95,0-7.7,1.01-11.23,3.03c-3.54,2.02-6.39,4.96-8.55,8.82
			c-2.16,3.86-3.24,8.41-3.24,13.65s1.08,9.81,3.24,13.71c2.16,3.91,5.01,6.87,8.55,8.89c3.54,2.02,7.28,3.03,11.23,3.03
			c4.04,0,7.83-1.03,11.37-3.1c3.54-2.07,6.39-5.08,8.55-9.03c2.16-3.95,3.24-8.55,3.24-13.78
			C633.33,196.16,632.25,191.64,630.09,187.83z"/>
		<path class="st1" d="M733.95,207.61h-58.03c0.46,6.06,2.71,10.94,6.75,14.61c4.04,3.68,9,5.51,14.89,5.51
			c8.45,0,14.43-3.54,17.92-10.61h16.95c-2.3,6.98-6.46,12.71-12.47,17.16c-6.02,4.46-13.49,6.69-22.4,6.69
			c-7.26,0-13.76-1.63-19.5-4.89c-5.74-3.26-10.25-7.86-13.51-13.78c-3.26-5.93-4.89-12.8-4.89-20.61c0-7.81,1.59-14.68,4.75-20.61
			c3.17-5.93,7.63-10.5,13.37-13.71c5.74-3.22,12.34-4.83,19.78-4.83c7.17,0,13.55,1.56,19.16,4.69c5.6,3.12,9.97,7.51,13.09,13.16
			c3.12,5.65,4.69,12.15,4.69,19.5C734.5,202.74,734.32,205.31,733.95,207.61z M718.1,194.92c-0.09-5.79-2.16-10.43-6.2-13.92
			c-4.04-3.49-9.05-5.24-15.02-5.24c-5.42,0-10.06,1.72-13.92,5.17s-6.16,8.11-6.89,13.99H718.1z"/>
		<path class="st1" d="M774.82,165.77c3.81-2.16,8.34-3.24,13.58-3.24v16.27h-4c-6.16,0-10.82,1.56-13.99,4.69
			c-3.17,3.12-4.75,8.55-4.75,16.27v39.97h-15.71v-75.95h15.71v11.03C767.95,170.94,771,167.93,774.82,165.77z"/>
		<path class="st1" d="M963.45,143.92l-28.39,95.8h-17.78l-20.12-72.5l-21.37,72.5l-17.64,0.14l-27.15-95.94h16.68l19.85,78.02
			l21.5-78.02h17.64l19.99,77.6l19.99-77.6H963.45z"/>
		<path class="st1" d="M989.91,236.07c-5.79-3.26-10.34-7.86-13.65-13.78c-3.31-5.93-4.96-12.8-4.96-20.61
			c0-7.72,1.7-14.56,5.1-20.54c3.4-5.97,8.04-10.57,13.92-13.78c5.88-3.22,12.45-4.83,19.71-4.83c7.26,0,13.83,1.61,19.71,4.83
			c5.88,3.22,10.52,7.81,13.92,13.78c3.4,5.97,5.1,12.82,5.1,20.54s-1.75,14.56-5.24,20.54c-3.49,5.97-8.25,10.59-14.27,13.85
			c-6.02,3.26-12.66,4.89-19.92,4.89C1002.18,240.96,995.7,239.33,989.91,236.07z M1020.72,224.42c3.54-1.93,6.41-4.83,8.61-8.68
			c2.21-3.86,3.31-8.55,3.31-14.06c0-5.51-1.06-10.18-3.17-13.99c-2.12-3.81-4.92-6.69-8.41-8.62c-3.49-1.93-7.26-2.89-11.3-2.89
			c-4.04,0-7.79,0.96-11.23,2.89c-3.45,1.93-6.18,4.8-8.2,8.62c-2.02,3.81-3.03,8.48-3.03,13.99c0,8.18,2.09,14.5,6.27,18.95
			c4.18,4.46,9.44,6.69,15.78,6.69C1013.39,227.32,1017.18,226.35,1020.72,224.42z"/>
		<path class="st1" d="M1089.22,165.77c3.81-2.16,8.34-3.24,13.58-3.24v16.27h-4c-6.16,0-10.82,1.56-13.99,4.69
			c-3.17,3.12-4.75,8.55-4.75,16.27v39.97h-15.71v-75.95h15.71v11.03C1082.35,170.94,1085.41,167.93,1089.22,165.77z"/>
		<path class="st1" d="M1132.99,137.72v102h-15.71v-102H1132.99z"/>
		<path class="st1" d="M1153.18,181.14c3.17-5.88,7.49-10.45,12.96-13.71c5.47-3.26,11.55-4.89,18.26-4.89
			c4.96,0,9.86,1.08,14.68,3.24c4.83,2.16,8.66,5.03,11.51,8.61v-36.66h15.85v102h-15.85v-11.44c-2.57,3.68-6.13,6.71-10.68,9.1
			c-4.55,2.39-9.77,3.58-15.64,3.58c-6.62,0-12.66-1.68-18.13-5.03c-5.47-3.35-9.79-8.04-12.96-14.06
			c-3.17-6.02-4.75-12.84-4.75-20.47C1148.42,193.78,1150.01,187.02,1153.18,181.14z M1207.35,188.03c-2.16-3.86-4.99-6.8-8.48-8.82
			c-3.49-2.02-7.26-3.03-11.3-3.03c-4.04,0-7.81,0.99-11.3,2.96c-3.49,1.98-6.32,4.87-8.48,8.68c-2.16,3.81-3.24,8.34-3.24,13.58
			c0,5.24,1.08,9.83,3.24,13.78c2.16,3.95,5.01,6.96,8.55,9.03c3.54,2.07,7.28,3.1,11.23,3.1c4.04,0,7.81-1.01,11.3-3.03
			c3.49-2.02,6.32-4.98,8.48-8.89c2.16-3.9,3.24-8.48,3.24-13.71S1209.51,191.89,1207.35,188.03z"/>
	</g>
</g>
</svg>
