<?xml version="1.0" encoding="UTF-8"?>
<svg id="Layer_2" data-name="Layer 2" xmlns="http://www.w3.org/2000/svg" xmlns:xlink="http://www.w3.org/1999/xlink" viewBox="0 0 2063.19 436.32">
  <defs>
    <style>
      .cls-1 {
        fill: url(#linear-gradient-2);
      }

      .cls-2 {
        fill: #6402c6;
      }

      .cls-3 {
        fill: url(#linear-gradient-3);
      }

      .cls-4 {
        fill: url(#linear-gradient);
      }

      .cls-5 {
        fill: url(#linear-gradient-4);
      }
    </style>
    <linearGradient id="linear-gradient" x1="718.47" y1="567.32" x2="718.47" y2="-30.48" gradientUnits="userSpaceOnUse">
      <stop offset="0" stop-color="#faa61a"/>
      <stop offset=".6" stop-color="#f37021"/>
      <stop offset="1" stop-color="#e11b22"/>
    </linearGradient>
    <linearGradient id="linear-gradient-2" x1="956.73" y1="567.32" x2="956.73" y2="-30.48" xlink:href="#linear-gradient"/>
    <linearGradient id="linear-gradient-3" x1="-85.92" y1="415.14" x2="434.33" y2="31.14" xlink:href="#linear-gradient"/>
    <linearGradient id="linear-gradient-4" x1="385.81" y1="345.12" x2="141.16" y2="69.51" xlink:href="#linear-gradient"/>
  </defs>
  <g id="Layer_1-2" data-name="Layer 1">
    <g>
      <path class="cls-4" d="M801.52,96.89c2.4,0,3.61,1.29,3.61,3.85v42.32c0,2.57-1.21,3.85-3.61,3.85h-110.49c-2.17,0-4.69,.96-7.58,2.88-2.89,1.92-5.6,4.36-8.12,7.31-2.53,2.95-4.69,6.03-6.5,9.23-1.81,3.21-2.71,5.96-2.71,8.27v100.4c0,14.11,3.01,25.52,9.03,34.24,6.01,8.72,13.72,13.08,23.11,13.08h44.05c4.57,0,8.6-.9,12.1-2.69,3.49-1.79,6.38-3.97,8.67-6.54,2.29-2.56,3.97-5.32,5.05-8.27,1.08-2.95,1.62-5.58,1.62-7.89v-35.78c0-2.56-1.21-3.85-3.61-3.85h-58.85c-2.41,0-3.61-1.28-3.61-3.85v-42.32c0-2.56,1.2-3.85,3.61-3.85h112.29c2.4,0,3.61,1.29,3.61,3.85v86.55c0,5.9-1.26,13.15-3.79,21.73-2.53,8.6-6.68,16.8-12.46,24.62-5.78,7.83-13.42,14.56-22.93,20.2-9.51,5.64-21.37,8.46-35.57,8.46h-62.83c-11.55,0-21.79-2.82-30.69-8.46-8.91-5.64-16.43-12.75-22.57-21.35-6.14-8.59-10.78-18.08-13.9-28.47-3.13-10.39-4.69-20.45-4.69-30.2v-109.25c0-8.46,1.74-17.31,5.24-26.54,3.49-9.23,8.24-17.7,14.26-25.39,6.01-7.69,13-13.98,20.94-18.85,7.94-4.87,16.48-7.31,25.64-7.31h121.68Z"/>
      <path class="cls-1" d="M868.09,182.67c0-11.02,1.44-21.41,4.33-31.16,1.44-5.64,3.43-10.45,5.96-14.43,2.53-3.97,5.11-7.63,7.76-10.96,7.46-9.23,16.37-16.41,26.72-21.54,10.35-5.13,21.42-7.69,33.22-7.69h95.68c2.4,0,3.61,1.29,3.61,3.85v42.32c0,2.57-1.21,3.85-3.61,3.85h-93.52c-9.39,2.06-16.37,7.25-20.94,15.58-4.58,8.34-6.86,19.17-6.86,32.51v97.33c.72,8.98,3.43,16.1,8.12,21.35,4.69,5.26,11.25,8.27,19.68,9.04h93.52c2.4,0,3.61,1.29,3.61,3.85v42.32c0,2.57-1.21,3.85-3.61,3.85h-92.43c-7.22,0-13.6-.7-19.14-2.12-5.54-1.41-10.35-3.01-14.44-4.81-9.15-3.59-17.33-9.42-24.55-17.5-7.22-8.08-13.12-17.76-17.69-29.04-1.21-2.82-2.41-6.6-3.61-11.35-1.21-4.74-1.8-10.58-1.8-17.5v-107.71Z"/>
      <path class="cls-2" d="M1202.49,258.07c-7.46,0-15.47-1.02-24.01-3.08-8.55-2.05-16.31-6.02-23.29-11.92-4.1-3.59-7.53-7.89-10.29-12.89-2.77-5-5.05-10.39-6.86-16.16-1.81-5.77-3.13-11.67-3.97-17.7-.85-6.02-1.26-11.99-1.26-17.89v-7.31c0-2.31,.24-4.62,.72-6.92,1.68-22.31,9.51-39.62,23.47-51.93,4.09-3.59,9.15-7.05,15.17-10.39,6.01-3.33,11.92-5,17.69-5h119.51c2.4,0,3.61,1.29,3.61,3.85v42.32c0,2.57-1.21,3.85-3.61,3.85h-104.35c-3.37,0-6.44,1.6-9.21,4.81-2.77,3.21-4.76,6.22-5.96,9.04-1.21,2.57-1.93,5.13-2.17,7.69-.24,2.57-.36,5.13-.36,7.69,0,4.11,.24,8.34,.72,12.69,.48,4.36,2.17,8.21,5.05,11.54,2.65,2.83,6.32,4.49,11.01,5,4.69,.52,9.81,.77,15.35,.77h40.44c7.46,0,15.28,1.09,23.47,3.27,8.18,2.18,15.76,6.35,22.75,12.5,4.09,3.59,7.52,7.95,10.29,13.08,2.76,5.13,5.05,10.64,6.86,16.54,1.81,5.9,3.07,12.06,3.79,18.46,.72,6.41,1.08,12.57,1.08,18.46v8.08c0,2.31-.24,4.49-.72,6.54-1.93,23.34-9.63,41.29-23.11,53.86-4.1,3.59-9.09,7.12-14.98,10.58-5.9,3.46-11.5,5.19-16.79,5.19h-131.43c-2.41,0-3.61-1.28-3.61-3.85v-42.32c0-2.56,1.2-3.85,3.61-3.85h116.26c3.61,0,6.74-1.86,9.39-5.58,2.65-3.71,4.57-7.12,5.78-10.19,1.2-2.82,1.92-5.51,2.17-8.08,.24-2.56,.36-5.25,.36-8.08,0-4.1-.24-8.4-.72-12.89-.49-4.48-2.17-8.52-5.06-12.12-2.41-2.82-5.84-4.81-10.29-5.96-4.46-1.15-9.69-1.73-15.71-1.73h-40.8Z"/>
      <path class="cls-2" d="M1358.86,182.67c0-11.02,1.44-21.41,4.33-31.16,1.44-5.64,3.43-10.45,5.96-14.43,2.53-3.97,5.11-7.63,7.76-10.96,7.46-9.23,16.37-16.41,26.72-21.54,10.35-5.13,21.42-7.69,33.22-7.69h95.68c2.4,0,3.61,1.29,3.61,3.85v42.32c0,2.57-1.21,3.85-3.61,3.85h-93.52c-9.39,2.06-16.37,7.25-20.94,15.58-4.58,8.34-6.86,19.17-6.86,32.51v97.33c.72,8.98,3.43,16.1,8.12,21.35,4.69,5.26,11.25,8.27,19.68,9.04h93.52c2.4,0,3.61,1.29,3.61,3.85v42.32c0,2.57-1.21,3.85-3.61,3.85h-92.43c-7.22,0-13.6-.7-19.14-2.12-5.54-1.41-10.35-3.01-14.44-4.81-9.15-3.59-17.33-9.42-24.55-17.5-7.22-8.08-13.12-17.76-17.69-29.04-1.21-2.82-2.41-6.6-3.61-11.35-1.21-4.74-1.8-10.58-1.8-17.5v-107.71Z"/>
      <path class="cls-2" d="M1649.05,119.58c2.89-10,8.18-16.28,15.89-18.85,7.7-2.56,18.17-3.85,31.41-3.85s24.49,1.29,32.32,3.85c7.82,2.57,13.18,8.85,16.07,18.85l72.57,250.82c0,1.54-.85,2.31-2.53,2.31h-47.3c-2.41,0-3.97-1.15-4.69-3.46l-19.14-66.55c-.72-2.56-2.29-3.85-4.69-3.85h-84.85c-2.41,0-3.97,1.41-4.69,4.23l-19.14,65.78c-.72,2.57-2.29,3.85-4.69,3.85h-46.94c-1.93,0-2.89-.77-2.89-2.31l73.3-250.82Zm51.63,34.24c-.72-2.82-1.33-4.68-1.81-5.58-.49-.9-1.33-1.35-2.53-1.35s-2.53,2.31-3.97,6.92l-25.27,87.71c0,.52-.06,.9-.18,1.15-.12,.26-.18,.52-.18,.77,0,1.8,.96,2.69,2.89,2.69h53.8c1.92,0,2.89-.9,2.89-2.69,0-.25-.06-.51-.18-.77-.12-.25-.18-.64-.18-1.15l-25.27-87.71Z"/>
      <path class="cls-2" d="M1855.93,153.44c0-10,.84-18.59,2.53-25.77,1.68-7.18,4.57-13.01,8.67-17.5,4.09-4.48,9.57-7.82,16.43-10,6.86-2.18,15.46-3.27,25.82-3.27,15.17,0,26.18,2.57,33.04,7.69,6.86,5.13,11.49,12.18,13.9,21.16l48.38,190.04c.72,2.57,1.92,3.85,3.61,3.85s2.53-1.28,2.53-3.85V100.73c0-2.56,1.2-3.85,3.61-3.85h45.13c2.4,0,3.61,1.29,3.61,3.85v227.74c0,5.13-.96,10.26-2.89,15.39-1.93,5.13-4.51,9.88-7.76,14.23-3.25,4.36-7.1,7.89-11.55,10.58-4.46,2.69-9.21,4.04-14.26,4.04h-33.22c-2.89,0-5.96-.83-9.21-2.5-3.25-1.67-6.32-3.85-9.21-6.54-2.89-2.69-5.42-5.7-7.58-9.04-2.17-3.33-3.74-6.79-4.69-10.39l-48.74-191.19c-.72-2.31-1.81-3.46-3.25-3.46-1.69,0-2.53,1.15-2.53,3.46v215.81c0,2.57-1.21,3.85-3.61,3.85h-45.13c-2.41,0-3.61-1.28-3.61-3.85V153.44Z"/>
      <path class="cls-3" d="M0,294.36S334.46,248.14,414.97,0c0,0-35.54,265.23-414.97,294.36Z"/>
      <path class="cls-2" d="M400.01,77.76c-4.9,9.97-10.8,20.73-17.85,31.93,8.4,5.67,16.32,12.19,23.64,19.51,8.16,8.16,15.33,17.06,21.43,26.54h41.79c-15.56-31.82-39.53-58.79-69.01-77.99Zm-106.3-31.49c-107.71,0-195.03,87.32-195.03,195.02,0,5.84,.26,11.62,.76,17.32,11.28-3.67,23.31-7.88,35.82-12.68-.05-1.54-.07-3.09-.07-4.64,0-42.34,16.49-82.15,46.43-112.09,29.94-29.94,69.74-46.43,112.09-46.43,20.62,0,40.64,3.91,59.22,11.38,7.46-9.72,14.49-19.94,20.99-30.69-24.46-11.05-51.62-17.2-80.2-17.2Zm133.39,280.76c-6.07,9.41-13.19,18.24-21.31,26.35-29.94,29.94-69.74,46.43-112.09,46.43s-82.15-16.49-112.09-46.43c-20.35-20.35-34.49-45.26-41.45-72.43-11.5,3.33-23.28,6.36-35.35,9.07,21.64,84.13,98.01,146.3,188.89,146.3,76.94,0,143.48-44.56,175.22-109.29h-41.82Z"/>
      <path class="cls-5" d="M361.96,138.5c-1.2,1.54-2.42,3.08-3.66,4.62-3.45,4.28-6.99,8.49-10.65,12.62h34.95c-6.22-6.47-13.15-12.26-20.65-17.24Zm-68.25-20.59c-64.73,0-117.82,49.85-122.96,113.26,.84-.38,1.69-.76,2.54-1.15,7.36-3.35,14.9-6.96,22.58-10.85,4.11-18.34,13.33-35.18,26.94-48.79,18.94-18.94,44.12-29.37,70.91-29.37,5.13,0,10.21,.38,15.19,1.14,6.67-6.15,13.2-12.57,19.53-19.28-11.01-3.23-22.66-4.96-34.72-4.96Zm52.08,209.11c-15.53,9.48-33.41,14.54-52.08,14.54-26.78,0-51.97-10.43-70.91-29.37-14.04-14.04-23.41-31.51-27.31-50.53-7.12,2.94-14.38,5.75-21.78,8.41,12.97,54.25,61.77,94.59,120,94.59,34.82,0,66.28-14.43,88.71-37.64h-36.64Z"/>
      <path class="cls-2" d="M428.53,311.67v-26.29h-111.03l-36.51-39h189.58v65.29s-42.89,0-42.04,0Z"/>
    </g>
  </g>
</svg>