<?xml version="1.0" encoding="UTF-8"?><svg id="Layer_1" xmlns="http://www.w3.org/2000/svg" viewBox="0 0 1118.73 281.54"><defs><style>.cls-1{font-family:Poppins-Medium, Poppins;font-size:74.88px;}.cls-2{font-family:Poppins-Light, Poppins;font-size:140.45px;}.cls-3{fill:#8019f7;}.cls-4{fill:#3386f8;}.cls-5{fill:#515cf8;}.cls-6{fill:#456df8;}.cls-7{fill:#2797f8;}.cls-8{fill:#2d8ef8;}.cls-9{fill:#5c4bf7;}.cls-10,.cls-11{fill:#15b0f8;}.cls-12{fill:#683bf7;}.cls-11{font-family:Poppins-ExtraBold, Poppins;font-size:140.45px;}</style></defs><g><path class="cls-5" d="M33.09,141.03c-.78-3.34-1.36-6.73-1.75-10.14-.4-3.49-.6-6.92-.6-10.26,0-11.07,2.05-21.96,5.94-32.14,2.64-6.91,6.14-13.5,10.43-19.6l19.36,14.27c-3,4.34-5.46,9.01-7.33,13.91-2.85,7.45-4.34,15.43-4.34,23.57,0,2.61,.14,5.12,.41,7.52,.28,2.48,.71,4.96,1.28,7.41l-23.39,5.47Z"/><path class="cls-5" d="M97.88,239.17c-6.65-1.26-13.19-3.1-19.56-5.47-6.37-2.38-12.51-5.28-18.35-8.67l6.01-10.42c5.32,3.09,10.84,5.71,16.52,7.83,5.68,2.12,11.56,3.76,17.59,4.91l-2.21,11.83Z"/><path class="cls-10" d="M120.03,0h.19c15.79,0,31.26,3.11,45.59,9.01,14.33,5.89,27.53,14.57,38.77,25.68l-8.41,8.58c-10.13-10.01-22.01-17.82-34.91-23.13-12.9-5.31-26.83-8.11-41.03-8.11h-.19V0Z"/><path class="cls-6" d="M206.41,204.72c-11.22,11.58-24.52,20.66-39.03,26.88-14.5,6.21-30.24,9.55-46.35,9.66l-.05-12.02c14.46-.1,28.62-3.12,41.7-8.72,13.07-5.59,25.04-13.77,35.13-24.19l8.59,8.39Z"/><path class="cls-8" d="M228.44,68.1c3.95,8.19,6.95,16.78,8.96,25.58,2.02,8.85,3.05,17.89,3.05,26.95s-1.03,18.14-3.06,27c-2.02,8.83-5.03,17.43-8.99,25.63l-10.8-5.23c3.57-7.39,6.28-15.13,8.1-23.08,1.81-7.91,2.73-16.07,2.73-24.31s-.92-16.36-2.72-24.26c-1.81-7.94-4.51-15.67-8.07-23.04l10.8-5.23Z"/><path class="cls-9" d="M89.28,88.33c4.16-4.01,9.02-7.14,14.27-9.27,5.27-2.13,10.93-3.26,16.67-3.26s11.58,1.16,16.93,3.37c5.32,2.19,10.22,5.41,14.39,9.53l-8.41,8.58c-3.06-3.02-6.65-5.38-10.54-6.98-3.86-1.59-8.06-2.42-12.38-2.42s-8.39,.82-12.21,2.36c-3.84,1.55-7.38,3.84-10.42,6.77l-8.31-8.67Z"/><path class="cls-12" d="M164.89,120.56v.07c0,5.85-1.16,11.62-3.36,17-2.18,5.34-5.39,10.26-9.5,14.44l-8.55-8.44c3.01-3.07,5.37-6.67,6.96-10.58,1.58-3.87,2.42-8.09,2.42-12.42v-.07h12.02Z"/><path class="cls-12" d="M89.1,152.76c-4.29-4.18-7.65-9.14-9.95-14.55-2.29-5.39-3.53-11.26-3.57-17.29l11.98-.05c.03,4.36,.94,8.65,2.63,12.62,1.68,3.96,4.14,7.58,7.27,10.64l-8.36,8.63Z"/><path class="cls-3" d="M139.66,160.97c-3.03,1.47-6.21,2.59-9.46,3.34-3.3,.76-6.64,1.15-9.97,1.15s-6.69-.39-9.99-1.15c-3.27-.75-6.45-1.88-9.48-3.35l5.21-10.84c2.22,1.08,4.55,1.9,6.95,2.46,2.35,.54,4.81,.82,7.31,.82s4.95-.28,7.3-.82c2.39-.55,4.71-1.37,6.93-2.44l5.21,10.84Z"/><path class="cls-5" d="M75.09,43.08c6.82-4,14.15-7.06,21.79-9.14,7.6-2.06,15.45-3.12,23.34-3.12,10.98,0,21.79,2.04,31.92,5.92,10.06,3.86,19.46,9.58,27.71,16.99l-15.97,17.91c-5.95-5.34-12.84-9.51-20.29-12.37-7.38-2.83-15.3-4.32-23.37-4.32-5.84,0-11.6,.77-17.14,2.28-5.5,1.49-10.84,3.74-15.87,6.69l-12.12-20.83Z"/><path class="cls-7" d="M201.75,83.65c2.61,5.8,4.6,11.87,5.94,18.1,1.34,6.24,2.02,12.57,2.02,18.88h-.05c0,18.04-5.36,35.18-14.84,49.56-9.49,14.38-23.13,26.03-39.69,33.08l-9.3-22.15c12.06-5.13,22.02-13.67,28.99-24.22,6.96-10.56,10.9-23.11,10.9-36.27h-.05c0-4.73-.49-9.39-1.46-13.88-.97-4.51-2.42-8.93-4.34-13.19l21.89-9.9Z"/><path class="cls-5" d="M33.57,204.24c-10.76-11.24-19.16-24.35-24.85-38.55C3.01,151.47,0,136.19,0,120.63c0-23.22,6.66-45.42,18.54-64.33,11.87-18.89,28.97-34.49,49.86-44.51l5.17,10.84c-18.8,9.02-34.19,23.06-44.88,40.08-10.68,17-16.66,36.99-16.66,57.92,0,14.06,2.7,27.82,7.82,40.58,5.13,12.77,12.68,24.57,22.37,34.69l-8.64,8.34Z"/><path class="cls-6" d="M45.39,169.85c-4.77-7.3-8.43-15.24-10.9-23.54-2.48-8.32-3.75-16.97-3.75-25.68,0-3.48,.2-6.93,.6-10.36l23.47,8.57c-.02,.6-.02,1.19-.02,1.79,0,6.44,.93,12.77,2.72,18.8,1.8,6.05,4.48,11.86,7.99,17.22l-20.1,13.2Z"/><path class="cls-4" d="M78.49,200.04c-8.23-4.36-15.68-9.95-22.12-16.54-6.46-6.61-11.89-14.19-16.06-22.52l21.42-10.84c3.07,6.13,7.04,11.68,11.74,16.49,4.71,4.82,10.17,8.92,16.21,12.11l-11.18,21.3Z"/><path class="cls-7" d="M120.22,210.44c-8.67,0-17.28-1.28-25.57-3.76-8.26-2.47-16.17-6.14-23.44-10.92l13.15-20.17c5.34,3.51,11.12,6.19,17.14,7.99,6,1.8,12.3,2.72,18.71,2.72v24.13Z"/></g><text class="cls-11" transform="translate(279.35 167.75)"><tspan x="0" y="0">Globel</tspan></text><text class="cls-2" transform="translate(768.59 167.1)"><tspan x="0" y="0">Scan</tspan></text><text class="cls-1" transform="translate(403.89 237.96)"><tspan x="0" y="0">B l o c k c h a i n</tspan></text></svg>