<?xml version="1.0" encoding="UTF-8"?>
<svg id="Layer_2" data-name="Layer 2" xmlns="http://www.w3.org/2000/svg" xmlns:xlink="http://www.w3.org/1999/xlink" viewBox="0 0 470.57 436.32">
  <defs>
    <style>
      .cls-1 {
        fill: url(#linear-gradient-2);
      }

      .cls-2 {
        fill: #6402c6;
      }

      .cls-3 {
        fill: url(#linear-gradient);
      }
    </style>
    <linearGradient id="linear-gradient" x1="-85.92" y1="415.14" x2="434.33" y2="31.14" gradientUnits="userSpaceOnUse">
      <stop offset="0" stop-color="#faa61a"/>
      <stop offset=".6" stop-color="#f37021"/>
      <stop offset="1" stop-color="#e11b22"/>
    </linearGradient>
    <linearGradient id="linear-gradient-2" x1="385.81" y1="345.12" x2="141.16" y2="69.51" xlink:href="#linear-gradient"/>
  </defs>
  <g id="Layer_1-2" data-name="Layer 1">
    <g>
      <path class="cls-3" d="M0,294.36S334.46,248.14,414.97,0c0,0-35.54,265.23-414.97,294.36Z"/>
      <path class="cls-2" d="M400.01,77.76c-4.9,9.97-10.8,20.73-17.85,31.93,8.4,5.67,16.32,12.19,23.64,19.51,8.16,8.16,15.33,17.06,21.43,26.54h41.79c-15.56-31.82-39.53-58.79-69.01-77.99Zm-106.3-31.49c-107.71,0-195.03,87.32-195.03,195.02,0,5.84,.26,11.62,.76,17.32,11.28-3.67,23.31-7.88,35.82-12.68-.05-1.54-.07-3.09-.07-4.64,0-42.34,16.49-82.15,46.43-112.09,29.94-29.94,69.74-46.43,112.09-46.43,20.62,0,40.64,3.91,59.22,11.38,7.46-9.72,14.49-19.94,20.99-30.69-24.46-11.05-51.62-17.2-80.2-17.2Zm133.39,280.76c-6.07,9.41-13.19,18.24-21.31,26.35-29.94,29.94-69.74,46.43-112.09,46.43s-82.15-16.49-112.09-46.43c-20.35-20.35-34.49-45.26-41.45-72.43-11.5,3.33-23.28,6.36-35.35,9.07,21.64,84.13,98.01,146.3,188.89,146.3,76.94,0,143.48-44.56,175.22-109.29h-41.82Z"/>
      <path class="cls-1" d="M361.96,138.5c-1.2,1.54-2.42,3.08-3.66,4.62-3.45,4.28-6.99,8.49-10.65,12.62h34.95c-6.22-6.47-13.15-12.26-20.65-17.24Zm-68.25-20.59c-64.73,0-117.82,49.85-122.96,113.26,.84-.38,1.69-.76,2.54-1.15,7.36-3.35,14.9-6.96,22.58-10.85,4.11-18.34,13.33-35.18,26.94-48.79,18.94-18.94,44.12-29.37,70.91-29.37,5.13,0,10.21,.38,15.19,1.14,6.67-6.15,13.2-12.57,19.53-19.28-11.01-3.23-22.66-4.96-34.72-4.96Zm52.08,209.11c-15.53,9.48-33.41,14.54-52.08,14.54-26.78,0-51.97-10.43-70.91-29.37-14.04-14.04-23.41-31.51-27.31-50.53-7.12,2.94-14.38,5.75-21.78,8.41,12.97,54.25,61.77,94.59,120,94.59,34.82,0,66.28-14.43,88.71-37.64h-36.64Z"/>
      <path class="cls-2" d="M428.53,311.67v-26.29h-111.03l-36.51-39h189.58v65.29s-42.89,0-42.04,0Z"/>
    </g>
  </g>
</svg>