<?xml version="1.0" encoding="utf-8"?>
<!-- Generator: Adobe Illustrator 27.0.0, SVG Export Plug-In . SVG Version: 6.00 Build 0)  -->
<svg version="1.1" id="Layer_1" xmlns="http://www.w3.org/2000/svg" xmlns:xlink="http://www.w3.org/1999/xlink" x="0px" y="0px"
	 viewBox="0 0 700 700" style="enable-background:new 0 0 700 700;" xml:space="preserve">
<style type="text/css">
	.st0{fill:#1B1E25;}
	.st1{fill:#FFA2B1;}
	.st2{fill:#B1E410;}
	.st3{fill:#504DD8;stroke:#000000;stroke-width:0.75;stroke-miterlimit:10;}
	.st4{fill:none;stroke:#FFFFFF;stroke-miterlimit:10;}
	.st5{fill:#6A90F9;}
</style>
<g>
	<path class="st0" d="M390.5,222.1l-37.6,21.3c-0.8,0.5-1.8,0.5-2.6,0L312.9,222c-1.7-1-1.8-3.5-0.1-4.5l37.2-22.6
		c0.8-0.5,1.9-0.5,2.7,0l37.8,22.6C392.3,218.5,392.3,221.1,390.5,222.1z"/>
	<path class="st0" d="M221.3,381.9l-37.6,21.3c-0.8,0.5-1.8,0.5-2.6,0l-37.4-21.3c-1.7-1-1.8-3.5-0.1-4.5l37.2-22.6
		c0.8-0.5,1.9-0.5,2.7,0l37.8,22.6C223.1,378.4,223.1,380.9,221.3,381.9z"/>
	<path class="st0" d="M109.3,542.5l-37.6,21.3c-0.8,0.5-1.8,0.5-2.6,0l-37.4-21.3c-1.7-1-1.8-3.5-0.1-4.5l37.2-22.6
		c0.8-0.5,1.9-0.5,2.7,0l37.8,22.6C111.1,539,111.1,541.5,109.3,542.5z"/>
	<path class="st0" d="M331,543.3l-37.6,21.3c-0.8,0.5-1.8,0.5-2.6,0l-37.4-21.3c-1.7-1-1.8-3.5-0.1-4.5l37.2-22.6
		c0.8-0.5,1.9-0.5,2.7,0l37.8,22.6C332.8,539.8,332.7,542.3,331,543.3z"/>
	<path class="st0" d="M449.3,542.5l-37.6,21.3c-0.8,0.5-1.8,0.5-2.6,0l-37.4-21.3c-1.7-1-1.8-3.5-0.1-4.5l37.2-22.6
		c0.8-0.5,1.9-0.5,2.7,0l37.8,22.6C451.1,539,451,541.5,449.3,542.5z"/>
	<path class="st0" d="M667.8,541l-37.6,21.3c-0.8,0.5-1.8,0.5-2.6,0L590.2,541c-1.7-1-1.8-3.5-0.1-4.5l37.2-22.6
		c0.8-0.5,1.9-0.5,2.7,0l37.8,22.6C669.6,537.5,669.6,540,667.8,541z"/>
	<path class="st0" d="M563.6,382L526,403.3c-0.8,0.5-1.8,0.5-2.6,0L486,382c-1.7-1-1.8-3.5-0.1-4.5l37.2-22.6c0.8-0.5,1.9-0.5,2.7,0
		l37.8,22.6C565.4,378.5,565.4,381,563.6,382z"/>
	<g>
		<g>
			<path class="st1" d="M354.6,234.1c0-16.4,0.1-46.1,0.1-48.8l41.9-23.8v48L354.6,234.1z"/>
			<path d="M396.3,162.1v47.1L355,233.4c0-16.2,0.1-44.3,0.1-47.9L396.3,162.1 M397.1,160.8L354.4,185c-0.1,0-0.1,49.7-0.1,49.7
				l42.8-25.1V160.8L397.1,160.8z"/>
		</g>
		<g>
			<path class="st2" d="M312,209.4v-48l42.2,23.9c0.2,2.6,0,35.3-0.1,48.7L312,209.4z"/>
			<path d="M312.4,162.1l41.5,23.4c0.2,3.3,0,29.5-0.1,47.9l-41.3-24.2V162.1 M311.7,160.8v48.8l42.8,25.1c0,0,0.5-49.6,0.1-49.6
				c0,0,0,0,0,0L311.7,160.8L311.7,160.8z"/>
		</g>
		<polygon class="st3" points="397.1,160.8 354.2,185.1 311.7,160.8 354,135.1 		"/>
	</g>
	<line class="st4" x1="522.5" y1="305.8" x2="376.9" y2="210.8"/>
	<line class="st4" x1="320.2" y1="206.7" x2="188" y2="302.2"/>
	<g>
		<g>
			<g>
				<path class="st2" d="M185.2,392.9c0-16.4,0.1-46.1,0.1-48.8l41.9-23.8v48L185.2,392.9z"/>
				<path d="M226.9,320.9v47.1l-41.3,24.2c0-16.2,0.1-44.3,0.1-47.9L226.9,320.9 M227.6,319.7l-42.7,24.2c-0.1,0-0.1,49.7-0.1,49.7
					l42.8-25.1V319.7L227.6,319.7z"/>
			</g>
			<g>
				<path class="st5" d="M142.6,368.3v-48l42.2,23.9c0.2,2.6,0,35.3-0.1,48.7L142.6,368.3z"/>
				<path d="M143,320.9l41.5,23.4c0.2,3.3,0,29.5-0.1,47.9L143,368.1V320.9 M142.2,319.7v48.8l42.8,25.1c0,0,0.5-49.6,0.1-49.6
					c0,0,0,0,0,0L142.2,319.7L142.2,319.7z"/>
			</g>
			<polygon class="st3" points="227.6,319.7 184.8,343.9 142.2,319.7 184.5,293.9 			"/>
		</g>
		<polyline class="st4" points="269.9,474.8 184.8,394.4 89.7,470.1 		"/>
		<g>
			<g>
				<path class="st2" d="M70.8,555.8c0-16.4,0.1-46.1,0.1-48.8l41.9-23.8v48L70.8,555.8z"/>
				<path d="M112.5,483.9V531l-41.3,24.2c0-16.2,0.1-44.3,0.1-47.9L112.5,483.9 M113.2,482.6l-42.7,24.2c-0.1,0-0.1,49.7-0.1,49.7
					l42.8-25.1V482.6L113.2,482.6z"/>
			</g>
			<g>
				<path class="st5" d="M28.2,531.2v-48l42.2,23.9c0.2,2.6,0,35.3-0.1,48.7L28.2,531.2z"/>
				<path d="M28.6,483.9l41.5,23.4c0.2,3.3,0,29.5-0.1,47.9L28.6,531V483.9 M27.8,482.6v48.8l42.8,25.1c0,0,0.5-49.6,0.1-49.6
					c0,0,0,0,0,0L27.8,482.6L27.8,482.6z"/>
			</g>
			<polygon class="st3" points="113.2,482.6 70.4,506.9 27.8,482.6 70.2,456.9 			"/>
		</g>
		<g>
			<g>
				<path class="st2" d="M292.5,555c0-16.4,0.1-46.1,0.1-48.8l41.9-23.8v48L292.5,555z"/>
				<path d="M334.2,483.1v47.1l-41.3,24.2c0-16.2,0.1-44.3,0.1-47.9L334.2,483.1 M334.9,481.8L292.2,506c-0.1,0-0.1,49.7-0.1,49.7
					l42.8-25.1V481.8L334.9,481.8z"/>
			</g>
			<g>
				<path class="st5" d="M249.9,530.4v-48l42.2,23.9c0.2,2.6,0,35.3-0.1,48.7L249.9,530.4z"/>
				<path d="M250.3,483.1l41.5,23.4c0.2,3.3,0,29.5-0.1,47.9l-41.3-24.2V483.1 M249.5,481.8v48.8l42.8,25.1c0,0,0.5-49.6,0.1-49.6
					c0,0,0,0,0,0L249.5,481.8L249.5,481.8z"/>
			</g>
			<polygon class="st3" points="334.9,481.8 292.1,506.1 249.5,481.8 291.8,456.1 			"/>
		</g>
	</g>
	<g>
		<polyline class="st4" points="610.4,474.8 525.3,394.4 430.2,470.1 		"/>
		<g>
			<g>
				<path class="st1" d="M525.5,392.4c0-16.4,0.1-46.1,0.1-48.8l41.9-23.8v48L525.5,392.4z"/>
				<path d="M567.2,320.5v47.1l-41.3,24.2c0-16.2,0.1-44.3,0.1-47.9L567.2,320.5 M568,319.2l-42.7,24.2c-0.1,0-0.1,49.7-0.1,49.7
					L568,368V319.2L568,319.2z"/>
			</g>
			<g>
				<path class="st5" d="M483,367.8v-48l42.2,23.9c0.2,2.6,0,35.3-0.1,48.7L483,367.8z"/>
				<path d="M483.3,320.5l41.5,23.4c0.2,3.3,0,29.5-0.1,47.9l-41.3-24.2V320.5 M482.6,319.2V368l42.8,25.1c0,0,0.5-49.6,0.1-49.6
					c0,0,0,0,0,0L482.6,319.2L482.6,319.2z"/>
			</g>
			<polygon class="st3" points="568,319.2 525.1,343.5 482.6,319.2 524.9,293.5 			"/>
		</g>
		<g>
			<g>
				<path class="st1" d="M411.2,556.2c0-16.4,0.1-46.1,0.1-48.8l41.9-23.8v48L411.2,556.2z"/>
				<path d="M452.9,484.2v47.1l-41.3,24.2c0-16.2,0.1-44.3,0.1-47.9L452.9,484.2 M453.6,482.9l-42.7,24.2c-0.1,0-0.1,49.7-0.1,49.7
					l42.8-25.1V482.9L453.6,482.9z"/>
			</g>
			<g>
				<path class="st5" d="M368.6,531.5v-48l42.2,23.9c0.2,2.6,0,35.3-0.1,48.7L368.6,531.5z"/>
				<path d="M369,484.2l41.5,23.4c0.2,3.3,0,29.5-0.1,47.9L369,531.3V484.2 M368.2,482.9v48.8l42.8,25.1c0,0,0.5-49.6,0.1-49.6
					c0,0,0,0,0,0L368.2,482.9L368.2,482.9z"/>
			</g>
			<polygon class="st3" points="453.6,482.9 410.8,507.2 368.2,482.9 410.5,457.2 			"/>
		</g>
		<g>
			<g>
				<path class="st1" d="M629.7,554.6c0-16.4,0.1-46.1,0.1-48.8l41.9-23.8v48L629.7,554.6z"/>
				<path d="M671.4,482.6v47.1l-41.3,24.2c0-16.2,0.1-44.3,0.1-47.9L671.4,482.6 M672.2,481.4l-42.7,24.2c-0.1,0-0.1,49.7-0.1,49.7
					l42.8-25.1V481.4L672.2,481.4z"/>
			</g>
			<g>
				<path class="st5" d="M587.1,530v-48l42.2,23.9c0.2,2.6,0,35.3-0.1,48.7L587.1,530z"/>
				<path d="M587.5,482.6l41.5,23.4c0.2,3.3,0,29.5-0.1,47.9l-41.3-24.2V482.6 M586.8,481.4v48.8l42.8,25.1c0,0,0.5-49.6,0.1-49.6
					c0,0,0,0,0,0L586.8,481.4L586.8,481.4z"/>
			</g>
			<polygon class="st3" points="672.2,481.4 629.3,505.6 586.8,481.4 629.1,455.6 			"/>
		</g>
	</g>
</g>
</svg>
