<svg id="Layer_1" data-name="Layer 1" xmlns="http://www.w3.org/2000/svg" xmlns:xlink="http://www.w3.org/1999/xlink" viewBox="0 0 939.06 939.06"><defs><style>.cls-1{fill:url(#linear-gradient);}.cls-2{fill:url(#linear-gradient-2);}.cls-3{fill:#265104;}</style><linearGradient id="linear-gradient" y1="469.53" x2="939.06" y2="469.53" gradientUnits="userSpaceOnUse"><stop offset="0" stop-color="#84cf00"/><stop offset="0.2" stop-color="#88cf00"/><stop offset="0.39" stop-color="#93cf00"/><stop offset="0.58" stop-color="#a6cf00"/><stop offset="0.76" stop-color="#c1cf00"/><stop offset="0.94" stop-color="#e3cf00"/><stop offset="1" stop-color="#f1cf00"/></linearGradient><linearGradient id="linear-gradient-2" x1="175.85" y1="854.45" x2="655.98" y2="478.43" gradientTransform="translate(-7.32 -128.82)" xlink:href="#linear-gradient"/></defs><title>logo-gradient-nooutline</title><circle class="cls-1" cx="469.53" cy="469.53" r="469.53"/><polygon class="cls-2" points="465.09 116.08 771.57 616.62 532.69 817.74 158.59 714.95 187.89 457.97 465.09 116.08"/><path class="cls-3" d="M549.08,830.26,171.54,727l-5.63-2.41.76-4.4,16.81-255.51.05.06,1.49-3.87L465.4,130l8.8-8.8,4.41,8.8,91.77,147.5,1.12,2.86,2.92,3.84L784.06,629.76M189.43,718.12,532.88,811,402.93,582ZM417.79,581.4,544.62,804.87,551.05,603ZM564.2,605.14l-6.32,198.52L762.8,637.35ZM196,475.44,181.06,702.68,328.23,541.55Zm144.51,72.25L212.74,687.58,391.86,573.37Zm224.11,44.13,200.71,32.55-191.69-316ZM412.75,567.2l138.73,22.49,9-282.82L430.66,449Zm-63-29.65L400,562.7l14.57-96.15ZM200.52,462.92l137,68.49,80.71-88.35,44.23-291.93Zm275.76-315-42.06,277.6L560.7,287Z" transform="translate(-7.32 -8.82)"/></svg>