<?xml version="1.0" encoding="utf-8"?>
<!-- Generator: Adobe Illustrator 27.0.0, SVG Export Plug-In . SVG Version: 6.00 Build 0)  -->
<svg version="1.1" id="Layer_1" xmlns="http://www.w3.org/2000/svg" xmlns:xlink="http://www.w3.org/1999/xlink" x="0px" y="0px"
	 viewBox="0 0 512 512" style="enable-background:new 0 0 512 512;" xml:space="preserve">
<style type="text/css">
	.st0{fill:#504DD8;}
</style>
<path class="st0" d="M370.2,146.9h-7.3v15.3h7.3h8V147L370.2,146.9z M373.2,114l-41.1-41.1H129.5c-15.5,0-28.1,12.6-28.1,28.1v331.3
	c0,15.5,12.6,28.1,28.1,28.1h253.3c15.5,0,28.1-12.6,28.1-28.1V151.6L373.2,114z M336.6,99l15,15l26.6,26.6l6.4,6.4h-6.4h-8h-7.3
	h-2.7c-7.8-0.1-14.6-3.9-18.9-9.7c-1.7-2.3-3-5-3.8-7.9c-0.5-1.9-0.8-4-0.8-6.1V99H336.6z M395.5,432.3c0,7.1-5.7,12.8-12.8,12.8
	H129.5c-7.1,0-12.8-5.7-12.8-12.8V101c0-7,5.7-12.8,12.8-12.8h191.8v35c0,2.1,0.2,4.1,0.5,6.1c0.4,2.7,1.1,5.4,2.1,7.9
	c5.6,14.5,19.7,24.9,36.2,25h2.8h7.3h8h7.3l10,0.1L395.5,432.3L395.5,432.3z M370.2,146.9h-7.3v15.3h7.3h8V147L370.2,146.9z"/>
<rect x="183.4" y="231.9" class="st0" width="145.5" height="15.3"/>
<rect x="183.4" y="274.8" class="st0" width="145.5" height="15.3"/>
<rect x="183.4" y="317.6" class="st0" width="145.5" height="15.3"/>
<rect x="183.4" y="360.4" class="st0" width="145.5" height="15.3"/>
</svg>
