<svg xmlns="http://www.w3.org/2000/svg" viewBox="0 0 1488.13 205.94"><defs><style>.cls-1{isolation:isolate;}.cls-2{fill:#fff2b2;}.cls-3{fill:#ffd300;}.cls-4{fill:#d1cdb4;mix-blend-mode:screen;}.cls-5{fill:#fff;}</style></defs><g class="cls-1"><g id="Layer_2" data-name="Layer 2"><g id="Layer_1-2" data-name="Layer 1"><polygon class="cls-2" points="77 0 159.45 58.06 94.81 103.36 159.45 147.87 77 205.94 77 0"/><polygon class="cls-3" points="138.94 57.68 87.84 22.45 87.84 93.68 138.94 57.68"/><polygon class="cls-3" points="87.84 113.81 87.84 184.65 138.94 149.23 87.84 113.81"/><polygon class="cls-4" points="9.64 39.81 2.68 49.48 77 100.97 5.39 151.68 11.97 162.13 93.26 103.68 91.32 97.09 9.64 39.81"/><polygon class="cls-4" points="0 71.97 0 131.97 27.87 101.97 0 71.97"/><path class="cls-5" d="M256.42,49.42a60.17,60.17,0,0,1,18.22,2.46,35.1,35.1,0,0,1,12.75,6.9,27.48,27.48,0,0,1,7.49,10.66,37.09,37.09,0,0,1,2.46,13.75,36.73,36.73,0,0,1-2.61,14,29.41,29.41,0,0,1-7.75,11,36.43,36.43,0,0,1-12.78,7.16,55.92,55.92,0,0,1-17.78,2.57h-16v38.83H223V49.42Zm0,54.71a32.27,32.27,0,0,0,10.25-1.49,20.28,20.28,0,0,0,7.38-4.21,17.21,17.21,0,0,0,4.43-6.6A24,24,0,0,0,280,83.19a23.07,23.07,0,0,0-1.45-8.43,16.39,16.39,0,0,0-4.36-6.33,19.53,19.53,0,0,0-7.34-4,35.17,35.17,0,0,0-10.4-1.38h-16v41.07Z"/><path class="cls-5" d="M340.19,79.54a40.53,40.53,0,0,1,15.25,2.75,32.68,32.68,0,0,1,11.62,7.83,34.7,34.7,0,0,1,7.42,12.3,47.58,47.58,0,0,1,2.61,16.24,47.59,47.59,0,0,1-2.61,16.25,35.15,35.15,0,0,1-7.42,12.34,32.49,32.49,0,0,1-11.62,7.86,43.68,43.68,0,0,1-30.56,0,32.86,32.86,0,0,1-11.67-7.86,34.91,34.91,0,0,1-7.45-12.34,47.59,47.59,0,0,1-2.61-16.25,47.58,47.58,0,0,1,2.61-16.24,34.48,34.48,0,0,1,7.45-12.3,33.06,33.06,0,0,1,11.67-7.83A40.66,40.66,0,0,1,340.19,79.54Zm0,65.81q10.29,0,15.32-6.9t5-19.71q0-12.83-5-19.79t-15.32-7q-10.43,0-15.5,7t-5.07,19.79q0,12.83,5.07,19.71T340.19,145.35Z"/><path class="cls-5" d="M498.05,80.73l-24.37,76H460.94c-1.49,0-2.54-1-3.13-2.91l-15.13-47.32c-.4-1.35-.76-2.69-1.09-4s-.6-2.66-.85-3.95c-.55,2.68-1.22,5.37-2,8l-15.36,47.25c-.55,1.94-1.71,2.91-3.5,2.91H407.72l-24.37-76H396a5,5,0,0,1,3.09.93,4.24,4.24,0,0,1,1.6,2.2l12.67,44.27q.75,3.06,1.31,5.92c.37,1.92.71,3.82,1,5.71q.75-2.83,1.57-5.71l1.71-5.92,14.24-44.5a4,4,0,0,1,1.53-2.19,4.56,4.56,0,0,1,2.79-.86h7a4.89,4.89,0,0,1,2.91.86A4,4,0,0,1,449,83.63l13.86,44.5c.6,2,1.16,4,1.68,6s1,3.88,1.45,5.82c.35-1.89.72-3.81,1.12-5.74s.87-3.95,1.42-6l12.89-44.27a4.59,4.59,0,0,1,1.64-2.24,4.75,4.75,0,0,1,2.91-.89Z"/><path class="cls-5" d="M520.11,120a37.91,37.91,0,0,0,2,11.21,23.14,23.14,0,0,0,4.58,7.87,17.77,17.77,0,0,0,6.86,4.65,24.62,24.62,0,0,0,8.9,1.53,27.23,27.23,0,0,0,8.13-1.08,38.28,38.28,0,0,0,6-2.38q2.54-1.31,4.32-2.39a6.49,6.49,0,0,1,3.28-1.08,3.42,3.42,0,0,1,3,1.49l4.55,5.89a28.64,28.64,0,0,1-6.41,5.66,37.38,37.38,0,0,1-7.6,3.77,42.82,42.82,0,0,1-8.27,2.08,55.17,55.17,0,0,1-8.28.64,39.57,39.57,0,0,1-14.64-2.65,32.55,32.55,0,0,1-11.71-7.79A36.09,36.09,0,0,1,507,134.69a50.72,50.72,0,0,1-2.79-17.52,42.66,42.66,0,0,1,2.5-14.75,35.09,35.09,0,0,1,7.15-11.93,33.55,33.55,0,0,1,11.33-8,37.07,37.07,0,0,1,15.09-2.94,36,36,0,0,1,13,2.27,28.42,28.42,0,0,1,10.29,6.67,30.6,30.6,0,0,1,6.74,10.77,40.49,40.49,0,0,1,2.42,14.5c0,2.48-.27,4.14-.82,5a3.28,3.28,0,0,1-3,1.27Zm38.24-9.84a23.52,23.52,0,0,0-1.16-7.49,17.52,17.52,0,0,0-3.39-6,15.39,15.39,0,0,0-5.55-4,18.86,18.86,0,0,0-7.64-1.46q-8.72,0-13.71,5t-6.34,14Z"/><path class="cls-5" d="M602.77,94.81a33.62,33.62,0,0,1,8.64-11.36,19.75,19.75,0,0,1,16.77-3.58,12.82,12.82,0,0,1,3.88,1.68l-1.12,12.07a3,3,0,0,1-.93,1.75,2.64,2.64,0,0,1-1.68.49,18.3,18.3,0,0,1-3.2-.41,22.28,22.28,0,0,0-4.4-.41,16.59,16.59,0,0,0-5.92,1,14.26,14.26,0,0,0-4.63,2.83,19.21,19.21,0,0,0-3.61,4.54,44.85,44.85,0,0,0-2.91,6.12v47.25h-16v-76H597a5.09,5.09,0,0,1,3.51.93,5.77,5.77,0,0,1,1.34,3.24Z"/><path class="cls-5" d="M651.66,120a38.26,38.26,0,0,0,2,11.21,23.16,23.16,0,0,0,4.59,7.87,17.81,17.81,0,0,0,6.85,4.65,24.71,24.71,0,0,0,8.91,1.53,27.23,27.23,0,0,0,8.13-1.08,38.28,38.28,0,0,0,6-2.38q2.53-1.31,4.32-2.39a6.46,6.46,0,0,1,3.28-1.08,3.43,3.43,0,0,1,3,1.49l4.55,5.89a28.87,28.87,0,0,1-6.41,5.66,37.64,37.64,0,0,1-7.6,3.77,42.91,42.91,0,0,1-8.28,2.08,55,55,0,0,1-8.27.64A39.66,39.66,0,0,1,658,155.22a32.6,32.6,0,0,1-11.7-7.79,36.09,36.09,0,0,1-7.75-12.74,50.72,50.72,0,0,1-2.79-17.52,42.89,42.89,0,0,1,2.49-14.75,35.27,35.27,0,0,1,7.16-11.93,33.46,33.46,0,0,1,11.33-8,37,37,0,0,1,15.09-2.94,36,36,0,0,1,13,2.27,28.38,28.38,0,0,1,10.28,6.67,30.76,30.76,0,0,1,6.75,10.77,40.71,40.71,0,0,1,2.42,14.5c0,2.48-.27,4.14-.82,5a3.29,3.29,0,0,1-3,1.27Zm38.24-9.84a23.52,23.52,0,0,0-1.16-7.49,17.52,17.52,0,0,0-3.39-6,15.39,15.39,0,0,0-5.55-4,18.86,18.86,0,0,0-7.64-1.46q-8.73,0-13.72,5t-6.33,14Z"/><path class="cls-5" d="M783.73,46.44V156.75H774a3.9,3.9,0,0,1-4.1-3.06l-1.41-8.27a40.2,40.2,0,0,1-10.85,9,28.21,28.21,0,0,1-14.12,3.43,26,26,0,0,1-11.63-2.57,25,25,0,0,1-8.94-7.49,36.32,36.32,0,0,1-5.78-12.19A61.36,61.36,0,0,1,715.16,119a52.34,52.34,0,0,1,2.27-15.72A38.32,38.32,0,0,1,724,90.68a29.72,29.72,0,0,1,23.92-11.37,27.49,27.49,0,0,1,11.4,2.13,27.78,27.78,0,0,1,8.43,5.92V46.44Zm-16,53a18.86,18.86,0,0,0-7.38-6,22.06,22.06,0,0,0-8.72-1.72q-9.39,0-14.69,6.9T731.63,119a51.48,51.48,0,0,0,1.2,12,23.05,23.05,0,0,0,3.42,8.09,13.24,13.24,0,0,0,5.45,4.55,17.72,17.72,0,0,0,7.22,1.41,20.25,20.25,0,0,0,10.55-2.64,30.52,30.52,0,0,0,8.24-7.49Z"/><path class="cls-5" d="M856.4,90.79a38.32,38.32,0,0,1,10.51-8.2,28,28,0,0,1,13.26-3,27.13,27.13,0,0,1,12,2.57,24.94,24.94,0,0,1,9.05,7.41,35.16,35.16,0,0,1,5.74,11.74,55.54,55.54,0,0,1,2,15.54,58.13,58.13,0,0,1-2.27,16.81,39,39,0,0,1-6.52,13,29.19,29.19,0,0,1-10.29,8.34,30.25,30.25,0,0,1-13.49,3,28.87,28.87,0,0,1-6.63-.71,23.29,23.29,0,0,1-5.52-2,23.84,23.84,0,0,1-4.65-3.2,35.91,35.91,0,0,1-4.07-4.25l-.67,5.89a4,4,0,0,1-1.34,2.45,4.27,4.27,0,0,1-2.68.75H840.37V46.44h16Zm0,46.88a19.14,19.14,0,0,0,7.34,6.07,21.31,21.31,0,0,0,8.68,1.76q9.47,0,14.76-6.86t5.29-21.24q0-13.12-4.58-19.16t-13.08-6a19.4,19.4,0,0,0-10.25,2.64,30.42,30.42,0,0,0-8.16,7.57Z"/><path class="cls-5" d="M989.81,80.73l-41.89,97.63a7.77,7.77,0,0,1-2,2.69,5.46,5.46,0,0,1-3.54,1H930.56l14-30.41-31-70.88H927.5a4.6,4.6,0,0,1,3.09.93,5.78,5.78,0,0,1,1.61,2.2L950.31,127q.68,1.86,1.23,3.69c.37,1.22.73,2.47,1.08,3.76.4-1.29.79-2.55,1.19-3.8s.85-2.48,1.34-3.72l17.37-43.08a5,5,0,0,1,1.75-2.24,4.56,4.56,0,0,1,2.72-.89Z"/><path class="cls-5" d="M1176.29,49.42,1142.9,156.75h-15.73L1102,79.68c-.3-.84-.58-1.76-.86-2.75s-.53-2.06-.78-3.21c-.25,1.15-.51,2.21-.78,3.21s-.56,1.91-.86,2.75l-25.41,77.07h-15.73L1024.17,49.42h14.61a6.42,6.42,0,0,1,3.76,1.08,5.27,5.27,0,0,1,2,3l20.13,68.79c.39,1.49.77,3.11,1.11,4.85s.7,3.55,1.05,5.44c.34-1.89.73-3.72,1.15-5.48s.88-3.37,1.38-4.81l23-68.79a6.39,6.39,0,0,1,2.09-2.76,5.74,5.74,0,0,1,3.72-1.27h5.07a5.72,5.72,0,0,1,3.73,1.16,7.6,7.6,0,0,1,2.16,2.87l23,68.79c.49,1.44.95,3,1.38,4.66s.8,3.42,1.15,5.25c.35-1.83.68-3.58,1-5.25s.68-3.22,1.08-4.66l20-68.79a5.23,5.23,0,0,1,2.05-2.83,6.08,6.08,0,0,1,3.76-1.2Z"/><path class="cls-5" d="M1234.12,114.71v42h-17.36v-42l-39.21-65.29h15.28a5.59,5.59,0,0,1,3.66,1.12,9.16,9.16,0,0,1,2.23,2.83l22,38.46q1.49,2.91,2.72,5.52t2.2,5.14a41.27,41.27,0,0,1,2-5.18c.79-1.71,1.69-3.54,2.68-5.48l21.84-38.46a9,9,0,0,1,2.16-2.72,5.37,5.37,0,0,1,3.65-1.23h15.36Z"/><path class="cls-5" d="M1358.52,55.91a8.8,8.8,0,0,1-.49,2.91,12.51,12.51,0,0,1-1.3,2.68l-57.62,81.16h58.29v14.09h-81.09v-6.86a7.62,7.62,0,0,1,.45-2.64,10.39,10.39,0,0,1,1.19-2.35l57.83-81.39h-56.27V49.42h79Z"/><path class="cls-5" d="M1393.17,157.94q-9.47,0-14.57-5.33t-5.1-15V93.32h-8.35a3.38,3.38,0,0,1-2.31-.85,3.25,3.25,0,0,1-1-2.58V83.41l12.3-1.79,3.5-22a4.21,4.21,0,0,1,1.27-2,3.44,3.44,0,0,1,2.38-.79h8.2v25h21.09V93.32h-21.09v43.16q0,4.1,2,6.26a7,7,0,0,0,5.37,2.16,9.6,9.6,0,0,0,3.21-.48,15.78,15.78,0,0,0,2.31-1c.64-.37,1.2-.72,1.67-1a2.52,2.52,0,0,1,1.38-.49,2.43,2.43,0,0,1,2.16,1.49l4.77,7.83a25.9,25.9,0,0,1-8.79,5A31.69,31.69,0,0,1,1393.17,157.94Z"/><path class="cls-5" d="M1439.31,89.75a40.39,40.39,0,0,1,10.28-7.42,28.9,28.9,0,0,1,13.05-2.79,27.07,27.07,0,0,1,11,2.08,22.15,22.15,0,0,1,8,5.89,25.48,25.48,0,0,1,4.88,9.13,39.89,39.89,0,0,1,1.64,11.74v48.37h-16V108.38q0-7.68-3.54-11.93t-10.77-4.24a20.69,20.69,0,0,0-9.95,2.46,33.8,33.8,0,0,0-8.61,6.7v55.38h-16V46.44h16Z"/></g></g></g></svg>