<?xml version="1.0" encoding="utf-8"?>
<!-- Generator: Adobe Illustrator 26.0.0, SVG Export Plug-In . SVG Version: 6.00 Build 0)  -->
<svg version="1.1" id="Layer_1" xmlns="http://www.w3.org/2000/svg" xmlns:xlink="http://www.w3.org/1999/xlink" x="0px" y="0px"
	 viewBox="0 0 1428.1 337.5" style="enable-background:new 0 0 1428.1 337.5;" xml:space="preserve">
<style type="text/css">
	.st0{fill:#FFFBE1;}
	.st1{fill:#FFFFFF;}
	.st2{fill:#FFD300;}
</style>
<path class="st0" d="M138.4,147c0-32.6,0-65.3,0-97.9c1.8-0.6,2.6,0.8,3.6,1.5c29.5,20.6,58.9,41.2,88.4,61.7
	c3.3,2.3,3.8,3.3,0.1,5.8c-22.5,15.5-44.7,31.2-67.1,46.9c-1.5,1-2.9,2.1-4.6,3.4c25.4,17.8,50.3,35.2,75.6,53
	c-32,22.4-63.6,44.5-96,67.2c0-36.3,0-71.8,0-107.3c-0.5-0.6-0.6-1.3-0.4-2c0.7-1.6,1.9-2.7,3.3-3.8c1.9-1.3,3.8-2.5,5.6-3.9
	c5.2-4,5.1-2.5,1.9-8.7c-0.8-1.3-2-2.4-2.9-3.6c-2.6-3.6-5.3-7.2-7.7-11C138,147.8,138.1,147.4,138.4,147z"/>
<path class="st1" d="M474.4,201.3c3.8-14.9,7.4-29.4,11.1-43.9c4.8-19,9.6-38,14.1-57.1c0.8-3.4,2.2-4.5,5.6-4.3
	c5.5,0.3,11,0.1,17.1,0.1c-2.8,10.1-5.4,20-8.1,29.8c-9.3,33.4-18.7,66.9-27.8,100.4c-1.2,4.6-3.1,6.3-7.8,5.7
	c-4.7-0.6-10.7,1.9-14-1c-2.9-2.7-3.1-8.5-4.4-12.9c-8-28.5-16-56.9-24-85.4c-0.2-0.8-0.6-1.5-1-2.8c-1.9,2.7-2.2,5.5-2.9,8
	c-8.4,29.7-16.8,59.5-25,89.2c-1,3.5-2.2,5.4-6.3,4.9c-3.8-0.4-7.7-0.3-11.5,0c-3.2,0.2-4.5-0.9-5.4-4.1
	c-11.4-41.6-23-83.2-34.6-124.8c-1.9-6.9-1.9-6.9,5.3-6.9c4.7,0,10.3-1.5,13.7,0.7c3.4,2.1,2.9,8.4,4,12.8
	c7.3,28.8,14.6,57.7,21.9,86.5c0.4,1.6,0.9,3.2,1.4,5c2.4-1.2,2-3.5,2.5-5.2c8.4-31.8,16.8-63.6,25-95.5c0.9-3.3,2-4.6,5.6-4.4
	c5.5,0.4,12.5-1.8,16.1,0.8c4.3,3.2,3.9,10.8,5.4,16.6c7.4,27.9,14.7,55.9,22,83.9C472.6,198.5,472.4,200,474.4,201.3z"/>
<path class="st1" d="M1055.3,131.6c-1,0-2-0.1-3,0c-4.3,0.6-6.8-0.5-8-5.3c-1.6-6.2-6.7-9.9-12.5-11.9c-10.3-3.7-20.6-3.6-30.6,1.1
	c-6.5,3.1-10.2,8.4-10.6,15.7c-0.4,7.1,3.2,12,9,15.5c7.7,4.6,16.5,6.1,25,8.4c9,2.4,17.9,5,26,9.8c23.6,14,21.3,46.3,1,59.8
	c-13.3,8.9-28.1,10.4-43.6,8.7c-13-1.4-24.6-5.8-33.2-16.2c-4.8-5.8-7.1-12.7-8.2-20c-0.3-2,0.1-3.2,2.5-3c2.5,0.2,5,0.2,7.5,0
	c6.2-0.6,11.4-0.6,12.6,7.8c0.7,4.8,5.3,8,9.8,10.1c12.6,5.8,25.2,5.7,37.4-0.8c7-3.7,10.9-9.7,10.7-17.8
	c-0.2-7.9-5.2-12.2-11.8-15.3c-9.4-4.3-19.6-6.2-29.5-9.1c-6.1-1.8-11.9-4.1-17.6-6.9c-25-12.7-22.5-44.2-3.6-57.9
	c17.5-12.8,46.6-13.6,64.6-1.4c8.2,5.5,13.6,13,15.7,22.8c1.2,5.7,1,5.9-4.6,6C1058.6,131.6,1057,131.6,1055.3,131.6z"/>
<path class="st1" d="M736.6,113.6c-21.8,0-42.6,0-63.4,0c-8.6,0-8.6,0-8.6-8.6c0-8.9,0-8.9,8.7-8.9c27.8,0,55.7,0.1,83.5-0.1
	c4,0,4.8,1.1,4.9,4.9c0.2,6.1-1.3,11-4.9,16.1c-21.3,30.7-42.3,61.7-63.5,92.6c-0.8,1.2-1.6,2.4-2.9,4.4c2.9,0,5.2,0,7.4,0
	c20.2,0,40.3,0.1,60.5-0.1c3.3,0,4.4,0.9,4.1,4.1c-0.3,3.1-0.3,6.3,0,9.5c0.4,3.6-1,4.4-4.4,4.4c-25.2-0.2-50.3-0.1-75.5-0.1
	c-2.3,0-4.7,0.2-7,0c-3.3-0.3-8.9,1.6-9.6-1.1c-1.2-5-2.1-10.7,1.4-15.8c22.4-32.6,44.7-65.4,67-98.1
	C734.9,116.1,735.5,115.3,736.6,113.6z"/>
<path class="st1" d="M877.5,146.4c1.1-0.5,1.5-0.6,1.6-0.8c8.2-18.3,30.8-19.9,44.9-14.1c12.8,5.2,18.3,16,19.3,29.1
	c1.2,15.4,0.3,30.9,0.5,46.4c0.1,7.2-0.1,14.3,0.1,21.5c0,2.5-0.6,3.7-3.4,3.5c-5.4-0.5-12.2,2.2-15.8-1.1c-3-2.7-0.8-9.5-0.8-14.4
	c-0.1-15.5,0-31,0-46.4s-7.5-23.9-21.1-24c-15-0.2-24.6,8.9-24.8,23.9c-0.2,18.8-0.2,37.6,0,56.4c0.1,4.5-1,6.4-5.7,5.7
	c-2.9-0.4-6-0.3-9,0c-4.3,0.5-5.6-0.8-5.6-5.3c0.3-22.5,0.1-44.9,0.1-67.4c0-19.6,0.1-39.3-0.1-58.9c0-3.1,0.5-4.5,4.1-4.2
	c4,0.3,8,0.3,12,0c3.3-0.3,3.8,1,3.8,3.9C877.4,115.2,877.5,130.5,877.5,146.4z"/>
<path class="st1" d="M1276.1,163.8c-0.3-18.1-8.5-28.8-24.5-33.2c-8.1-2.2-16.4-2.6-24.7-1.2c-13.1,2.2-23.8,8-30.3,20.3
	c-1.8,3.4-2.2,5.5,2.6,6.1c3.1,0.3,6.2,1.3,9.2,2.1c2.9,0.8,4.8,0.7,6.8-2.5c6.4-10.1,21.2-13.9,31.9-8.7
	c6.1,2.9,10.3,10.6,8.9,17.5s-7.6,5.8-12.3,7c-0.5,0.1-1,0-1.5,0.1c-10.7,1.4-21.5,2-31.8,5.7c-12.8,4.6-19,12.9-19.1,25.6
	c-0.1,13.5,6.6,23.9,18.5,28.6c17.6,6.9,33.6,2.5,46.3-12.8c1,4.7-1.8,10.5,1.3,12.8c2.8,2.1,8.3,0.7,12.6,0.8c0.8,0,1.7-0.1,2.5,0
	c2.9,0.4,3.6-0.9,3.6-3.7C1276.1,206.7,1276.4,185.3,1276.1,163.8z M1255.9,198c-2.3,17.2-25.8,26.6-39.9,16.2
	c-2.8-2.1-4.5-4.8-5-8.2c-1-7.1,1.4-11.8,7.7-15.1c6.2-3.2,13.1-3.5,19.8-4.5c5.7-0.9,11.5-1.6,17.5-3.9
	C1256,188,1256.6,193.1,1255.9,198z"/>
<path class="st1" d="M1321.5,146.1c1.7-0.1,1.8-1,2.1-1.7c10.8-20.9,42.7-19.2,54.4-5.8c6.5,7.4,9.1,16.2,9.2,25.7
	c0.2,21.3,0,42.6,0.1,63.9c0,2.7-0.6,3.9-3.5,3.7c-4-0.2-8-0.3-12,0c-3.5,0.3-4.5-0.9-4.4-4.4c0.2-18.3,0.1-36.6,0.1-54.9
	c0-1.3,0-2.7,0-4c-0.4-14.3-8.1-22.5-21.1-22.7c-14-0.1-23.7,8.6-24,22.5c-0.4,19.5-0.3,39-0.1,58.4c0,4.2-1.2,5.6-5.3,5.1
	c-4.7-0.6-11.1,2-13.8-1c-2.4-2.6-0.8-8.9-0.8-13.5c0-27.6,0.1-55.3-0.1-82.9c0-3.7,0.8-5,4.6-4.6c4.6,0.4,10.7-1.5,13.5,0.8
	c3,2.4,0.6,8.7,1,13.3C1321.3,144.6,1321.4,145.2,1321.5,146.1z"/>
<path class="st1" d="M530.7,96.1c7,0,13.2,0.2,19.4-0.1c2.9-0.1,4.4,0.9,5.8,3.4c10.1,17.9,20.4,35.8,30.8,53.6
	c1,1.7,1.5,3.7,3.4,4.8c1.8-0.9,2.3-2.8,3.2-4.3c10.4-18,20.8-36,31-54.1c1.4-2.5,3-3.5,5.8-3.4c6.2,0.2,12.3,0.1,18.5,0.1
	c0.5,1.9-0.8,2.9-1.5,4.1c-14.7,24.7-29.5,49.4-44.3,74c-1.8,3-2.5,5.9-2.5,9.4c0.1,14.7-0.1,29.3,0.1,44c0,3.6-1,4.6-4.5,4.4
	c-3.6-0.3-7.3-0.3-11,0c-3.9,0.3-5.1-0.8-5-4.9c0.3-14.5,0-29,0.2-43.5c0-3.5-0.8-6.4-2.6-9.4c-14.8-24.6-29.5-49.3-44.3-74
	C532.4,99.1,531.8,98,530.7,96.1z"/>
<path class="st1" d="M1164.7,162.9c-1.3,0-2.7-0.1-4,0c-3.3,0.4-5.1-0.6-6.5-4.1c-6.5-16.1-28.8-18.4-40.5-4.5
	c-10.8,12.9-10.7,40.8,0.2,53.8c11.9,14.2,33.9,11.1,40.8-5.8c1-2.3,2.1-2.9,4.3-2.9c3.7,0.1,7.4,0.4,11,0c5-0.6,5,1.8,4,5.5
	c-3.7,14.5-16,25.7-31.2,28.1c-32.2,5.1-56-14.9-57.1-47.9c-0.6-16.9,2.9-32.5,15.6-44.7c17.8-17,50.4-15.5,65.5,2.8
	c3.7,4.4,5.9,9.6,7.3,15.1c0.8,3.1,0.5,5.2-3.6,4.6C1168.7,162.7,1166.7,162.9,1164.7,162.9z"/>
<path class="st1" d="M793.2,179c0-9.8-0.1-19.6,0.1-29.5c0-2.8-0.6-3.8-3.6-3.7c-3.6,0.1-8.4,1.7-10.5-0.7
	c-2.3-2.5-0.4-7.3-0.8-11.1c-0.4-3.6,1.1-4.3,4.4-4.3c10.5,0.1,10.4,0,10.5-10.7c0.1-4.4-2-10.3,1-12.8c2.6-2.2,8.3-0.4,12.5-0.9
	c5.1-0.6,7.1,1,6.5,6.4c-0.5,4.9,0,10-0.2,15c-0.1,2.4,0.8,3.2,3.2,3.1c4.7-0.1,9.3,0.1,14-0.1c2.9-0.1,3.6,0.9,3.6,3.7
	c0.3,12.4,0.3,12.4-11.9,12.4c-8.8,0-8.8,0-8.8,8.8c0,15.6,0,31.3,0,46.9c0,10.7,3.4,14.2,14.2,13.5c4-0.3,5.7,0.7,6,4.7
	c0.1,1.8,0.7,3.6,1.1,5.4c1.3,6.1,1.3,6.2-5.1,7.3c-8.3,1.5-16.3,0.6-23.7-3.6c-7.6-4.3-11.9-11.1-12.2-19.9
	c-0.3-10-0.1-20-0.1-29.9C793.3,179,793.2,179,793.2,179z"/>
<path class="st0" d="M138.4,147c0.1,0.4,0.1,0.8,0.2,1.1c0.7,1.4,1.2,2.9,0.5,4.4c-0.4,0.6-1,1.2-1.6,0.9c-4.5-2.1-7.4,0.9-10.6,3
	c-5,3.3-9.4,7.7-15.1,10c-0.5,0-0.9-0.2-1.3-0.6c-22.4-15.8-44.8-31.7-67.3-47.3c-2.9-2-3.1-3.4-1-6.1c3.6-4.6,7-9.3,10.1-14.2
	c1.8-2.9,3-3.3,6-1.2c23.4,16.7,47,33.1,70.4,49.9C132.4,149.7,135.2,150.5,138.4,147z"/>
<path class="st0" d="M110.5,166c0.4,0,0.7,0,1.1,0.1c6.3,2.9,11.4,7.7,17.1,11.5c3,2,5.7,3,9.1,1.3c0.2,0.1,0.4,0.2,0.6,0.3
	c0,0.7,0,1.3,0,2c-2.2,3.2-6.2,2-9.2,4.1c-22.3,16.2-45,31.9-67.3,48.1c-3.7,2.7-5.3,2.2-7.5-1.4c-2.9-4.7-6.1-9.1-9.5-13.4
	c-2.1-2.7-1.9-4.1,1-6.1c20.4-14.3,40.7-28.8,61-43.2C108.2,168.3,109.9,167.8,110.5,166z"/>
<path class="st0" d="M41.7,130.7c10.4,11.2,20.4,22,30.5,32.7c2.2,2.3,0.3,3.1-0.8,4.3c-9.7,10.5-19.5,20.9-29.7,32
	C41.7,176.5,41.7,154,41.7,130.7z"/>
<path class="st2" d="M195.4,221.3c-11.6,8.1-22.6,15.8-34.2,23.9c0-16.2,0-31.5,0-47.9C172.8,205.6,183.9,213.3,195.4,221.3z"/>
<path class="st2" d="M161.2,139.1c0-16.2,0-31.5,0-47.8c5.5,3.9,10.4,7.3,15.2,10.7c5.3,3.7,10.6,7.5,16,11.1
	c2.2,1.5,2.7,2.4,0.1,4.2C182.2,124.3,172.1,131.5,161.2,139.1z"/>
<path class="st0" d="M146.5,159.1c1,1,2,2,3,3c2,4.5-1.7,7-3.6,10c-1.1,1.7-2.8,2.8-4.3,4.1c-1,1-2.1,2-3.1,3.1v-0.1
	c-1.6-1.6-1.5-3.6-1.5-5.5c0.1-6.1-0.6-12.1,0.5-18.2c1.1-2.6,2.9-1.8,4.4-0.7C143.5,156,145.2,157.3,146.5,159.1z"/>
<path class="st0" d="M141.5,176.2c2.2-3,4.2-6.2,6.6-9.1c1.3-1.6,1.4-3.2,1.4-5c3.4,6.3,3.5,6.3-2.2,10.6
	C145.5,174,143.8,175.6,141.5,176.2z"/>
<path class="st0" d="M146.5,159.1c-2.7-1.7-5.3-3.3-8-5c-0.3-0.2-0.4-0.4-0.3-0.7c0.1-0.2,0.2-0.4,0.2-0.4c0.1-1.6,0.1-3.3,0.2-4.9
	C142,151.2,144.4,155,146.5,159.1z"/>
<path class="st0" d="M138.4,153.1c0,0.3,0,0.7,0.1,1c0,8.3-0.1,16.7-0.1,25c-3.2,3-6.1,2.8-9.5,0c-5.6-4.6-12.2-7.8-17.3-13.1
	c5.5-3.9,11.2-7.6,16.4-11.9C131.5,151.3,134.6,150.6,138.4,153.1z"/>
</svg>
