<?xml version="1.0" encoding="UTF-8"?><svg id="Layer_1" xmlns="http://www.w3.org/2000/svg" viewBox="0 0 1605.01 239.65"><defs><style>.cls-1,.cls-2{fill:#fff;}.cls-3{fill:#fdd200;}.cls-4{fill:#4d4d4d;}.cls-5{fill:#403500;}.cls-6{fill:#141100;}.cls-7{fill:#fdd100;}.cls-8{fill:#171717;}.cls-9{fill:#151100;}.cls-10{fill:#060500;}.cls-2{font-family:Poppins-Regular, Poppins;font-size:54.83px;}</style></defs><g><path class="cls-1" d="M433.6,156.83c3.8-14.9,7.4-29.4,11.1-43.9,4.8-19,9.6-38,14.1-57.1,.8-3.4,2.2-4.5,5.6-4.3,5.5,.3,11,.1,17.1,.1-2.8,10.1-5.4,20-8.1,29.8-9.3,33.4-18.7,66.9-27.8,100.4-1.2,4.6-3.1,6.3-7.8,5.7-4.7-.6-10.7,1.9-14-1-2.9-2.7-3.1-8.5-4.4-12.9-8-28.5-16-56.9-24-85.4-.2-.8-.6-1.5-1-2.8-1.9,2.7-2.2,5.5-2.9,8-8.4,29.7-16.8,59.5-25,89.2-1,3.5-2.2,5.4-6.3,4.9-3.8-.4-7.7-.3-11.5,0-3.2,.2-4.5-.9-5.4-4.1-11.4-41.6-23-83.2-34.6-124.8q-1.9-6.9,5.3-6.9c4.7,0,10.3-1.5,13.7,.7,3.4,2.1,2.9,8.4,4,12.8,7.3,28.8,14.6,57.7,21.9,86.5,.4,1.6,.9,3.2,1.4,5,2.4-1.2,2-3.5,2.5-5.2,8.4-31.8,16.8-63.6,25-95.5,.9-3.3,2-4.6,5.6-4.4,5.5,.4,12.5-1.8,16.1,.8,4.3,3.2,3.9,10.8,5.4,16.6,7.4,27.9,14.7,55.9,22,83.9,.2,1.1,0,2.6,2,3.9Z"/><path class="cls-1" d="M1014.5,87.13c-1,0-2-.1-3,0-4.3,.6-6.8-.5-8-5.3-1.6-6.2-6.7-9.9-12.5-11.9-10.3-3.7-20.6-3.6-30.6,1.1-6.5,3.1-10.2,8.4-10.6,15.7-.4,7.1,3.2,12,9,15.5,7.7,4.6,16.5,6.1,25,8.4,9,2.4,17.9,5,26,9.8,23.6,14,21.3,46.3,1,59.8-13.3,8.9-28.1,10.4-43.6,8.7-13-1.4-24.6-5.8-33.2-16.2-4.8-5.8-7.1-12.7-8.2-20-.3-2,.1-3.2,2.5-3,2.5,.2,5,.2,7.5,0,6.2-.6,11.4-.6,12.6,7.8,.7,4.8,5.3,8,9.8,10.1,12.6,5.8,25.2,5.7,37.4-.8,7-3.7,10.9-9.7,10.7-17.8-.2-7.9-5.2-12.2-11.8-15.3-9.4-4.3-19.6-6.2-29.5-9.1-6.1-1.8-11.9-4.1-17.6-6.9-25-12.7-22.5-44.2-3.6-57.9,17.5-12.8,46.6-13.6,64.6-1.4,8.2,5.5,13.6,13,15.7,22.8,1.2,5.7,1,5.9-4.6,6-1.7-.1-3.3-.1-5-.1Z"/><path class="cls-1" d="M695.8,69.13h-63.4q-8.6,0-8.6-8.6,0-8.9,8.7-8.9c27.8,0,55.7,.1,83.5-.1,4,0,4.8,1.1,4.9,4.9,.2,6.1-1.3,11-4.9,16.1-21.3,30.7-42.3,61.7-63.5,92.6-.8,1.2-1.6,2.4-2.9,4.4h7.4c20.2,0,40.3,.1,60.5-.1,3.3,0,4.4,.9,4.1,4.1-.3,3.1-.3,6.3,0,9.5,.4,3.6-1,4.4-4.4,4.4-25.2-.2-50.3-.1-75.5-.1-2.3,0-4.7,.2-7,0-3.3-.3-8.9,1.6-9.6-1.1-1.2-5-2.1-10.7,1.4-15.8,22.4-32.6,44.7-65.4,67-98.1,.6-.7,1.2-1.5,2.3-3.2Z"/><path class="cls-1" d="M836.7,101.93c1.1-.5,1.5-.6,1.6-.8,8.2-18.3,30.8-19.9,44.9-14.1,12.8,5.2,18.3,16,19.3,29.1,1.2,15.4,.3,30.9,.5,46.4,.1,7.2-.1,14.3,.1,21.5,0,2.5-.6,3.7-3.4,3.5-5.4-.5-12.2,2.2-15.8-1.1-3-2.7-.8-9.5-.8-14.4-.1-15.5,0-31,0-46.4s-7.5-23.9-21.1-24c-15-.2-24.6,8.9-24.8,23.9-.2,18.8-.2,37.6,0,56.4,.1,4.5-1,6.4-5.7,5.7-2.9-.4-6-.3-9,0-4.3,.5-5.6-.8-5.6-5.3,.3-22.5,.1-44.9,.1-67.4,0-19.6,.1-39.3-.1-58.9,0-3.1,.5-4.5,4.1-4.2,4,.3,8,.3,12,0,3.3-.3,3.8,1,3.8,3.9-.2,15-.1,30.3-.1,46.2Z"/><path class="cls-1" d="M1235.3,119.33c-.3-18.1-8.5-28.8-24.5-33.2-8.1-2.2-16.4-2.6-24.7-1.2-13.1,2.2-23.8,8-30.3,20.3-1.8,3.4-2.2,5.5,2.6,6.1,3.1,.3,6.2,1.3,9.2,2.1,2.9,.8,4.8,.7,6.8-2.5,6.4-10.1,21.2-13.9,31.9-8.7,6.1,2.9,10.3,10.6,8.9,17.5s-7.6,5.8-12.3,7c-.5,.1-1,0-1.5,.1-10.7,1.4-21.5,2-31.8,5.7-12.8,4.6-19,12.9-19.1,25.6-.1,13.5,6.6,23.9,18.5,28.6,17.6,6.9,33.6,2.5,46.3-12.8,1,4.7-1.8,10.5,1.3,12.8,2.8,2.1,8.3,.7,12.6,.8,.8,0,1.7-.1,2.5,0,2.9,.4,3.6-.9,3.6-3.7,0-21.6,.3-43,0-64.5Zm-20.2,34.2c-2.3,17.2-25.8,26.6-39.9,16.2-2.8-2.1-4.5-4.8-5-8.2-1-7.1,1.4-11.8,7.7-15.1,6.2-3.2,13.1-3.5,19.8-4.5,5.7-.9,11.5-1.6,17.5-3.9,0,5.5,.6,10.6-.1,15.5Z"/><path class="cls-1" d="M1280.7,101.63c1.7-.1,1.8-1,2.1-1.7,10.8-20.9,42.7-19.2,54.4-5.8,6.5,7.4,9.1,16.2,9.2,25.7,.2,21.3,0,42.6,.1,63.9,0,2.7-.6,3.9-3.5,3.7-4-.2-8-.3-12,0-3.5,.3-4.5-.9-4.4-4.4,.2-18.3,.1-36.6,.1-54.9v-4c-.4-14.3-8.1-22.5-21.1-22.7-14-.1-23.7,8.6-24,22.5-.4,19.5-.3,39-.1,58.4,0,4.2-1.2,5.6-5.3,5.1-4.7-.6-11.1,2-13.8-1-2.4-2.6-.8-8.9-.8-13.5,0-27.6,.1-55.3-.1-82.9,0-3.7,.8-5,4.6-4.6,4.6,.4,10.7-1.5,13.5,.8,3,2.4,.6,8.7,1,13.3-.1,.6,0,1.2,.1,2.1Z"/><path class="cls-1" d="M489.9,51.63c7,0,13.2,.2,19.4-.1,2.9-.1,4.4,.9,5.8,3.4,10.1,17.9,20.4,35.8,30.8,53.6,1,1.7,1.5,3.7,3.4,4.8,1.8-.9,2.3-2.8,3.2-4.3,10.4-18,20.8-36,31-54.1,1.4-2.5,3-3.5,5.8-3.4,6.2,.2,12.3,.1,18.5,.1,.5,1.9-.8,2.9-1.5,4.1-14.7,24.7-29.5,49.4-44.3,74-1.8,3-2.5,5.9-2.5,9.4,.1,14.7-.1,29.3,.1,44,0,3.6-1,4.6-4.5,4.4-3.6-.3-7.3-.3-11,0-3.9,.3-5.1-.8-5-4.9,.3-14.5,0-29,.2-43.5,0-3.5-.8-6.4-2.6-9.4-14.8-24.6-29.5-49.3-44.3-74-.8-1.1-1.4-2.2-2.5-4.1Z"/><path class="cls-1" d="M1123.9,118.43c-1.3,0-2.7-.1-4,0-3.3,.4-5.1-.6-6.5-4.1-6.5-16.1-28.8-18.4-40.5-4.5-10.8,12.9-10.7,40.8,.2,53.8,11.9,14.2,33.9,11.1,40.8-5.8,1-2.3,2.1-2.9,4.3-2.9,3.7,.1,7.4,.4,11,0,5-.6,5,1.8,4,5.5-3.7,14.5-16,25.7-31.2,28.1-32.2,5.1-56-14.9-57.1-47.9-.6-16.9,2.9-32.5,15.6-44.7,17.8-17,50.4-15.5,65.5,2.8,3.7,4.4,5.9,9.6,7.3,15.1,.8,3.1,.5,5.2-3.6,4.6-1.8-.2-3.8,0-5.8,0Z"/><path class="cls-1" d="M752.4,134.53c0-9.8-.1-19.6,.1-29.5,0-2.8-.6-3.8-3.6-3.7-3.6,.1-8.4,1.7-10.5-.7-2.3-2.5-.4-7.3-.8-11.1-.4-3.6,1.1-4.3,4.4-4.3,10.5,.1,10.4,0,10.5-10.7,.1-4.4-2-10.3,1-12.8,2.6-2.2,8.3-.4,12.5-.9,5.1-.6,7.1,1,6.5,6.4-.5,4.9,0,10-.2,15-.1,2.4,.8,3.2,3.2,3.1,4.7-.1,9.3,.1,14-.1,2.9-.1,3.6,.9,3.6,3.7q.3,12.4-11.9,12.4-8.8,0-8.8,8.8v46.9c0,10.7,3.4,14.2,14.2,13.5,4-.3,5.7,.7,6,4.7,.1,1.8,.7,3.6,1.1,5.4,1.3,6.1,1.3,6.2-5.1,7.3-8.3,1.5-16.3,.6-23.7-3.6-7.6-4.3-11.9-11.1-12.2-19.9-.3-10-.1-20-.1-29.9h-.2Z"/></g><g><path class="cls-5" d="M97.6,98.05V.15c1.8-.6,2.6,.8,3.6,1.5,29.5,20.6,58.9,41.2,88.4,61.7,3.3,2.3,3.8,3.3,.1,5.8-22.5,15.5-44.7,31.2-67.1,46.9-1.5,1-2.9,2.1-4.6,3.4,25.4,17.8,50.3,35.2,75.6,53-32,22.4-63.6,44.5-96,67.2v-107.3c-.5-.6-.6-1.3-.4-2,.7-1.6,1.9-2.7,3.3-3.8,1.9-1.3,3.8-2.5,5.6-3.9,5.2-4,5.1-2.5,1.9-8.7-.8-1.3-2-2.4-2.9-3.6-2.6-3.6-5.3-7.2-7.7-11-.2-.5-.1-.9,.2-1.3Z"/><path class="cls-4" d="M97.6,98.05c.1,.4,.1,.8,.2,1.1,.7,1.4,1.2,2.9,.5,4.4-.4,.6-1,1.2-1.6,.9-4.5-2.1-7.4,.9-10.6,3-5,3.3-9.4,7.7-15.1,10-.5,0-.9-.2-1.3-.6-22.4-15.8-44.8-31.7-67.3-47.3-2.9-2-3.1-3.4-1-6.1,3.6-4.6,7-9.3,10.1-14.2,1.8-2.9,3-3.3,6-1.2,23.4,16.7,47,33.1,70.4,49.9,3.7,2.8,6.5,3.6,9.7,.1Z"/><path class="cls-4" d="M69.7,117.05c.4,0,.7,0,1.1,.1,6.3,2.9,11.4,7.7,17.1,11.5,3,2,5.7,3,9.1,1.3l.6,.3v2c-2.2,3.2-6.2,2-9.2,4.1-22.3,16.2-45,31.9-67.3,48.1-3.7,2.7-5.3,2.2-7.5-1.4-2.9-4.7-6.1-9.1-9.5-13.4-2.1-2.7-1.9-4.1,1-6.1,20.4-14.3,40.7-28.8,61-43.2,1.3-1,3-1.5,3.6-3.3Z"/><path d="M.9,81.75c10.4,11.2,20.4,22,30.5,32.7,2.2,2.3,.3,3.1-.8,4.3-9.7,10.5-19.5,20.9-29.7,32,0-23.2,0-45.7,0-69Z"/><path class="cls-3" d="M154.6,172.35c-11.6,8.1-22.6,15.8-34.2,23.9v-47.9c11.6,8.3,22.7,16,34.2,24Z"/><path class="cls-7" d="M120.4,90.15V42.35c5.5,3.9,10.4,7.3,15.2,10.7,5.3,3.7,10.6,7.5,16,11.1,2.2,1.5,2.7,2.4,.1,4.2-10.3,7-20.4,14.2-31.3,21.8Z"/><path class="cls-10" d="M105.7,110.15l3,3c2,4.5-1.7,7-3.6,10-1.1,1.7-2.8,2.8-4.3,4.1-1,1-2.1,2-3.1,3.1v-.1c-1.6-1.6-1.5-3.6-1.5-5.5,.1-6.1-.6-12.1,.5-18.2,1.1-2.6,2.9-1.8,4.4-.7,1.6,1.2,3.3,2.5,4.6,4.3Z"/><path class="cls-6" d="M100.7,127.25c2.2-3,4.2-6.2,6.6-9.1,1.3-1.6,1.4-3.2,1.4-5,3.4,6.3,3.5,6.3-2.2,10.6-1.8,1.3-3.5,2.9-5.8,3.5Z"/><path class="cls-9" d="M105.7,110.15c-2.7-1.7-5.3-3.3-8-5-.3-.2-.4-.4-.3-.7l.2-.4c.1-1.6,.1-3.3,.2-4.9,3.4,3.1,5.8,6.9,7.9,11Z"/><path class="cls-8" d="M97.6,104.15c0,.3,0,.7,.1,1,0,8.3-.1,16.7-.1,25-3.2,3-6.1,2.8-9.5,0-5.6-4.6-12.2-7.8-17.3-13.1,5.5-3.9,11.2-7.6,16.4-11.9,3.5-2.8,6.6-3.5,10.4-1Z"/></g><rect class="cls-7" x="1373.9" y="109.44" width="231.11" height="55.11" rx="27.56" ry="27.56"/><text class="cls-2" transform="translate(1388.79 155.86)"><tspan x="0" y="0">Testnet</tspan></text></svg>